<svg xmlns="http://www.w3.org/2000/svg" xmlns:xlink="http://www.w3.org/1999/xlink" width="500" zoomAndPan="magnify" viewBox="0 0 375 374.999991" height="500" preserveAspectRatio="xMidYMid meet" version="1.0"><defs><g/><clipPath id="c9e1fb332a"><path d="M 2.332031 88 L 366.835938 88 L 366.835938 374 L 2.332031 374 Z M 2.332031 88 " clip-rule="nonzero"/></clipPath><clipPath id="d41dd852ca"><path d="M 334 64 L 366.835938 64 L 366.835938 160 L 334 160 Z M 334 64 " clip-rule="nonzero"/></clipPath><clipPath id="58711c9961"><path d="M 64.082031 243.207031 L 139.433594 243.207031 L 139.433594 350.625 L 64.082031 350.625 Z M 64.082031 243.207031 " clip-rule="nonzero"/></clipPath><clipPath id="373a0a0d7d"><path d="M 64.183594 300.605469 C 67.050781 278.476562 67.246094 278.574219 67.246094 278.28125 C 67.542969 277.292969 65.667969 273.539062 65.863281 270.476562 C 66.160156 265.734375 68.730469 256.449219 71.789062 252.894531 C 73.765625 250.621094 77.519531 250.621094 79.199219 249.140625 C 80.386719 248.050781 80.386719 246.175781 81.570312 245.582031 C 82.65625 244.992188 84.730469 245.878906 86.214844 245.582031 C 87.695312 245.1875 89.175781 243.3125 90.558594 243.3125 C 91.746094 243.410156 92.734375 245.089844 94.015625 245.484375 C 95.597656 245.878906 97.867188 244.59375 99.351562 245.386719 C 100.832031 246.175781 101.328125 249.238281 102.710938 250.621094 C 104.09375 251.90625 106.363281 252.003906 107.351562 253.386719 C 108.242188 254.769531 107.550781 257.339844 108.242188 259.015625 C 108.734375 260.398438 110.511719 261.585938 110.511719 262.671875 C 110.613281 263.5625 109.328125 264.054688 109.128906 265.140625 C 108.832031 266.625 110.414062 269.585938 110.019531 270.96875 C 109.820312 271.859375 108.636719 272.253906 108.734375 272.945312 C 108.832031 273.734375 111.007812 274.230469 111.402344 275.515625 C 111.996094 277.292969 109.722656 282.527344 110.316406 283.316406 C 110.511719 283.613281 110.90625 283.417969 111.203125 283.515625 C 111.402344 283.613281 111.601562 283.710938 111.796875 283.8125 C 111.996094 283.910156 112.191406 283.910156 112.488281 284.109375 C 112.785156 284.304688 113.179688 284.699219 113.675781 284.898438 C 114.070312 285.195312 114.859375 285.6875 114.859375 285.6875 C 114.859375 285.6875 123.15625 285.6875 126.613281 287.960938 C 130.960938 290.921875 135.40625 298.132812 137.382812 304.257812 C 139.457031 310.582031 139.851562 318.78125 138.371094 325.398438 C 136.886719 332.015625 133.824219 339.820312 128.6875 343.96875 C 123.253906 348.316406 110.117188 350.882812 105.773438 350.292969 C 103.894531 349.996094 103.402344 348.214844 102.117188 348.019531 C 100.636719 347.820312 98.957031 349.304688 97.375 349.007812 C 95.695312 348.710938 94.410156 347.03125 92.238281 346.042969 C 88.78125 344.265625 82.164062 343.574219 78.113281 340.414062 C 73.46875 337.054688 67.9375 330.535156 66.554688 325.597656 C 65.46875 321.742188 68.136719 317.398438 67.839844 313.941406 C 67.542969 311.074219 65.371094 308.011719 65.269531 306.136719 C 65.269531 305.148438 66.0625 304.554688 65.960938 303.765625 C 65.765625 302.777344 64.183594 300.605469 64.183594 300.605469 " clip-rule="nonzero"/></clipPath><clipPath id="aee0bfd5fc"><path d="M 0.0820312 0.207031 L 75.433594 0.207031 L 75.433594 107.625 L 0.0820312 107.625 Z M 0.0820312 0.207031 " clip-rule="nonzero"/></clipPath><clipPath id="efd8777ceb"><path d="M 0.183594 57.605469 C 3.050781 35.476562 3.246094 35.574219 3.246094 35.28125 C 3.542969 34.292969 1.667969 30.539062 1.863281 27.476562 C 2.160156 22.734375 4.730469 13.449219 7.789062 9.894531 C 9.765625 7.621094 13.519531 7.621094 15.199219 6.140625 C 16.386719 5.050781 16.386719 3.175781 17.570312 2.582031 C 18.65625 1.992188 20.730469 2.878906 22.214844 2.582031 C 23.695312 2.1875 25.175781 0.3125 26.558594 0.3125 C 27.746094 0.410156 28.734375 2.089844 30.015625 2.484375 C 31.597656 2.878906 33.867188 1.59375 35.351562 2.386719 C 36.832031 3.175781 37.328125 6.238281 38.710938 7.621094 C 40.09375 8.90625 42.363281 9.003906 43.351562 10.386719 C 44.242188 11.769531 43.550781 14.339844 44.242188 16.015625 C 44.734375 17.398438 46.511719 18.585938 46.511719 19.671875 C 46.613281 20.5625 45.328125 21.054688 45.128906 22.140625 C 44.832031 23.625 46.414062 26.585938 46.019531 27.96875 C 45.820312 28.859375 44.636719 29.253906 44.734375 29.945312 C 44.832031 30.734375 47.007812 31.230469 47.402344 32.515625 C 47.996094 34.292969 45.722656 39.527344 46.316406 40.316406 C 46.511719 40.613281 46.90625 40.417969 47.203125 40.515625 C 47.402344 40.613281 47.601562 40.710938 47.796875 40.8125 C 47.996094 40.910156 48.191406 40.910156 48.488281 41.109375 C 48.785156 41.304688 49.179688 41.699219 49.675781 41.898438 C 50.070312 42.195312 50.859375 42.6875 50.859375 42.6875 C 50.859375 42.6875 59.15625 42.6875 62.613281 44.960938 C 66.960938 47.921875 71.40625 55.132812 73.382812 61.257812 C 75.457031 67.582031 75.851562 75.78125 74.371094 82.398438 C 72.886719 89.015625 69.824219 96.820312 64.6875 100.96875 C 59.253906 105.316406 46.117188 107.882812 41.773438 107.292969 C 39.894531 106.996094 39.402344 105.214844 38.117188 105.019531 C 36.636719 104.820312 34.957031 106.304688 33.375 106.007812 C 31.695312 105.710938 30.410156 104.03125 28.238281 103.042969 C 24.78125 101.265625 18.164062 100.574219 14.113281 97.414062 C 9.46875 94.054688 3.9375 87.535156 2.554688 82.597656 C 1.46875 78.742188 4.136719 74.398438 3.839844 70.941406 C 3.542969 68.074219 1.371094 65.011719 1.269531 63.136719 C 1.269531 62.148438 2.0625 61.554688 1.960938 60.765625 C 1.765625 59.777344 0.183594 57.605469 0.183594 57.605469 " clip-rule="nonzero"/></clipPath><clipPath id="2d0f372538"><rect x="0" width="76" y="0" height="108"/></clipPath><clipPath id="3e1a4caddc"><rect x="0" width="228" y="0" height="86"/></clipPath><clipPath id="f7a88f2451"><rect x="0" width="369" y="0" height="375"/></clipPath></defs><g transform="matrix(1, 0, 0, 1, 3, 0)"><g clip-path="url(#f7a88f2451)"><path fill="#003049" d="M 208.292969 127.945312 L 216.449219 96.453125 L 152.894531 96.453125 L 161.050781 127.945312 Z M 208.292969 127.945312 " fill-opacity="1" fill-rule="nonzero"/><path fill="#f77f00" d="M 50.257812 191.214844 L 319.085938 191.214844 L 319.085938 317.757812 C 319.085938 343.910156 297.714844 365.28125 271.5625 365.28125 L 97.78125 365.28125 C 71.628906 365.28125 50.257812 343.910156 50.257812 317.757812 Z M 50.257812 191.214844 " fill-opacity="1" fill-rule="nonzero"/><path fill="#003049" d="M 50.257812 191.214844 L 319.085938 191.214844 L 319.085938 222.710938 L 50.257812 222.710938 Z M 50.257812 191.214844 " fill-opacity="1" fill-rule="nonzero"/><path fill="#f77f00" d="M 319.085938 191.214844 C 319.085938 191.214844 319.085938 127.945312 184.671875 127.945312 C 50.257812 127.945312 50.257812 191.214844 50.257812 191.214844 Z M 319.085938 191.214844 " fill-opacity="1" fill-rule="nonzero"/><g clip-path="url(#c9e1fb332a)"><path fill="#000000" d="M 42.382812 246.050781 L 42.382812 317.757812 C 42.382812 348.40625 67.128906 373.152344 97.78125 373.152344 L 271.84375 373.152344 C 302.496094 373.152344 327.242188 348.40625 327.242188 317.757812 L 327.242188 246.050781 C 344.675781 244.363281 366.890625 236.488281 366.890625 214.835938 C 366.890625 192.902344 343.832031 185.03125 326.398438 183.625 C 322.460938 167.035156 304.183594 129.351562 218.695312 121.480469 L 224.601562 98.140625 C 225.726562 93.921875 223.195312 89.703125 218.976562 88.578125 C 218.414062 88.296875 217.574219 88.296875 217.011719 88.296875 L 152.894531 88.296875 C 148.398438 88.296875 145.023438 91.953125 145.023438 96.171875 C 145.023438 96.734375 145.023438 97.578125 145.304688 98.140625 L 151.207031 121.480469 C 65.722656 129.351562 47.445312 167.035156 43.507812 183.625 C 25.792969 185.3125 2.734375 192.902344 2.734375 214.835938 C 2.734375 236.488281 24.949219 244.363281 42.382812 246.050781 Z M 311.210938 214.835938 L 58.132812 214.835938 L 58.132812 199.089844 L 311.210938 199.089844 Z M 271.5625 357.40625 L 97.78125 357.40625 C 75.847656 357.40625 58.132812 339.691406 58.132812 317.757812 L 58.132812 230.867188 L 311.210938 230.867188 L 311.210938 317.757812 C 311.210938 339.691406 293.496094 357.40625 271.5625 357.40625 Z M 350.863281 214.835938 C 350.863281 225.242188 336.519531 228.898438 327.242188 230.023438 L 327.242188 199.652344 C 336.519531 201.058594 350.863281 204.714844 350.863281 214.835938 Z M 163.300781 104.324219 L 206.324219 104.324219 L 202.386719 120.636719 C 196.761719 120.355469 191.140625 120.355469 184.953125 120.355469 C 178.765625 120.355469 173.144531 120.636719 167.519531 120.636719 Z M 184.671875 135.820312 C 279.15625 135.820312 303.058594 167.878906 309.242188 183.34375 L 59.820312 183.34375 C 65.722656 167.878906 88.78125 135.820312 184.671875 135.820312 Z M 42.382812 199.652344 L 42.382812 230.023438 C 33.105469 228.898438 18.761719 225.242188 18.761719 214.835938 C 18.761719 204.433594 32.824219 201.058594 42.382812 199.652344 Z M 42.382812 199.652344 " fill-opacity="1" fill-rule="nonzero"/></g><path fill="#000000" d="M 113.527344 325.628906 L 97.78125 325.628906 C 93.28125 325.628906 89.90625 321.976562 89.90625 317.757812 L 89.90625 286.261719 C 89.90625 281.761719 86.25 278.390625 82.035156 278.390625 C 77.816406 278.390625 74.160156 282.042969 74.160156 286.261719 L 74.160156 317.757812 C 74.160156 330.972656 84.84375 341.378906 97.78125 341.378906 L 113.527344 341.378906 C 118.027344 341.378906 121.402344 337.722656 121.402344 333.503906 C 121.402344 329.285156 117.746094 325.628906 113.527344 325.628906 Z M 113.527344 325.628906 " fill-opacity="1" fill-rule="nonzero"/><path fill="#000000" d="M 73.878906 254.488281 L 89.625 254.488281 L 89.625 270.234375 L 73.878906 270.234375 Z M 73.878906 254.488281 " fill-opacity="1" fill-rule="nonzero"/><path fill="#000000" d="M 58.132812 88.296875 C 58.132812 92.796875 61.785156 96.171875 66.003906 96.171875 C 70.222656 96.171875 73.878906 92.515625 73.878906 88.296875 C 73.597656 81.265625 76.128906 74.519531 80.347656 68.894531 C 86.53125 60.738281 89.625 50.898438 89.625 40.773438 C 90.75 25.027344 82.878906 10.125 69.378906 1.96875 C 65.441406 0 60.945312 1.6875 58.976562 5.34375 C 57.007812 9.28125 58.414062 14.058594 62.347656 16.027344 C 70.503906 21.652344 74.722656 30.933594 73.878906 40.773438 C 74.160156 47.804688 71.628906 54.554688 67.410156 60.175781 C 61.222656 68.332031 57.851562 78.175781 58.132812 88.296875 Z M 58.132812 88.296875 " fill-opacity="1" fill-rule="nonzero"/><path fill="#000000" d="M 263.6875 104.324219 C 263.6875 108.824219 267.34375 112.199219 271.5625 112.199219 C 275.78125 112.199219 279.4375 108.542969 279.4375 104.324219 C 279.15625 97.296875 281.6875 90.546875 285.902344 84.921875 C 292.089844 76.769531 295.183594 66.925781 295.183594 56.800781 C 296.308594 41.054688 288.433594 26.152344 274.9375 17.996094 C 271 16.027344 266.5 17.714844 264.53125 21.371094 C 262.566406 25.308594 263.96875 30.089844 267.90625 32.058594 C 276.0625 37.679688 280.28125 46.960938 279.4375 56.800781 C 279.71875 63.832031 277.1875 70.582031 272.96875 76.207031 C 266.78125 84.078125 263.6875 94.203125 263.6875 104.324219 Z M 263.6875 104.324219 " fill-opacity="1" fill-rule="nonzero"/><g clip-path="url(#d41dd852ca)"><path fill="#000000" d="M 334.832031 151.566406 C 334.832031 156.066406 338.488281 159.441406 342.707031 159.441406 C 346.925781 159.441406 350.582031 155.785156 350.582031 151.566406 C 350.300781 144.539062 352.832031 137.789062 357.046875 132.164062 C 363.234375 124.007812 366.328125 114.167969 366.328125 104.042969 C 367.453125 88.296875 359.578125 73.394531 346.082031 65.238281 C 342.144531 63.269531 337.644531 64.957031 335.675781 68.613281 C 333.707031 72.550781 335.113281 77.332031 339.050781 79.296875 C 347.207031 84.921875 351.425781 94.203125 350.582031 104.042969 C 350.863281 111.074219 348.332031 117.824219 344.113281 123.445312 C 337.925781 131.601562 334.832031 141.445312 334.832031 151.566406 Z M 334.832031 151.566406 " fill-opacity="1" fill-rule="nonzero"/></g><g clip-path="url(#58711c9961)"><g clip-path="url(#373a0a0d7d)"><g transform="matrix(1, 0, 0, 1, 64, 243)"><g clip-path="url(#2d0f372538)"><g clip-path="url(#aee0bfd5fc)"><g clip-path="url(#efd8777ceb)"><rect x="-203.5" width="648" fill="#f77f00" y="-379.499997" height="647.999984" fill-opacity="1"/></g></g></g></g></g></g><g transform="matrix(1, 0, 0, 1, 72, 251)"><g clip-path="url(#3e1a4caddc)"><g fill="#003049" fill-opacity="0.4"><g transform="translate(3.05548, 65.168922)"><g><path d="M 11.015625 -43.890625 C 11.941406 -43.890625 12.847656 -43.878906 13.734375 -43.859375 C 14.628906 -43.835938 15.5 -43.828125 16.34375 -43.828125 C 17.0625 -43.785156 17.753906 -43.753906 18.421875 -43.734375 C 19.097656 -43.710938 19.773438 -43.679688 20.453125 -43.640625 C 20.535156 -43.640625 20.609375 -43.640625 20.671875 -43.640625 C 20.734375 -43.640625 20.785156 -43.640625 20.828125 -43.640625 C 21.765625 -43.460938 22.664062 -43.21875 23.53125 -42.90625 C 24.394531 -42.59375 25.164062 -42.078125 25.84375 -41.359375 C 26.300781 -40.929688 26.707031 -40.484375 27.0625 -40.015625 C 27.425781 -39.554688 27.710938 -39.050781 27.921875 -38.5 C 28.140625 -38.039062 28.332031 -37.585938 28.5 -37.140625 C 28.664062 -36.703125 28.832031 -36.25 29 -35.78125 C 29.039062 -35.65625 29.070312 -35.523438 29.09375 -35.390625 C 29.113281 -35.265625 29.144531 -35.140625 29.1875 -35.015625 C 29.320312 -34.335938 29.453125 -33.671875 29.578125 -33.015625 C 29.703125 -32.367188 29.785156 -31.707031 29.828125 -31.03125 C 29.867188 -30.3125 29.910156 -29.59375 29.953125 -28.875 C 29.992188 -28.15625 30.015625 -27.4375 30.015625 -26.71875 C 30.015625 -23.851562 29.316406 -21.175781 27.921875 -18.6875 C 27.628906 -18.175781 27.3125 -17.675781 26.96875 -17.1875 C 26.632812 -16.707031 26.238281 -16.273438 25.78125 -15.890625 C 25.476562 -15.640625 25.164062 -15.40625 24.84375 -15.1875 C 24.53125 -14.976562 24.207031 -14.8125 23.875 -14.6875 C 23.445312 -14.519531 23.054688 -14.351562 22.703125 -14.1875 C 22.347656 -14.019531 21.976562 -13.828125 21.59375 -13.609375 C 21.082031 -13.316406 20.515625 -13.066406 19.890625 -12.859375 C 19.335938 -12.734375 18.753906 -12.613281 18.140625 -12.5 C 17.523438 -12.394531 16.925781 -12.300781 16.34375 -12.21875 C 16.164062 -12.175781 16.003906 -12.15625 15.859375 -12.15625 C 15.710938 -12.15625 15.554688 -12.15625 15.390625 -12.15625 C 15.003906 -12.113281 14.617188 -12.070312 14.234375 -12.03125 C 13.859375 -11.988281 13.503906 -11.945312 13.171875 -11.90625 C 12.921875 -11.90625 12.753906 -11.757812 12.671875 -11.46875 C 12.453125 -11.125 12.300781 -10.75 12.21875 -10.34375 C 12.132812 -9.945312 12.09375 -9.5625 12.09375 -9.1875 C 12.050781 -8.800781 12.039062 -8.40625 12.0625 -8 C 12.082031 -7.601562 12.070312 -7.21875 12.03125 -6.84375 C 12.03125 -6.289062 12.03125 -5.71875 12.03125 -5.125 C 12.03125 -4.539062 12.007812 -3.953125 11.96875 -3.359375 C 11.925781 -2.929688 11.863281 -2.472656 11.78125 -1.984375 C 11.695312 -1.503906 11.546875 -1.054688 11.328125 -0.640625 C 11.117188 -0.296875 10.890625 -0.0390625 10.640625 0.125 C 9.492188 0.632812 8.375 0.867188 7.28125 0.828125 C 7.113281 0.828125 6.90625 0.785156 6.65625 0.703125 C 6.3125 0.609375 5.976562 0.507812 5.65625 0.40625 C 5.34375 0.300781 5.019531 0.207031 4.6875 0.125 C 4.394531 0.0390625 4.160156 -0.0820312 3.984375 -0.25 C 3.816406 -0.414062 3.648438 -0.585938 3.484375 -0.765625 C 3.316406 -1.054688 3.15625 -1.347656 3 -1.640625 C 2.851562 -1.941406 2.800781 -2.257812 2.84375 -2.59375 C 3.019531 -4.789062 3.097656 -6.972656 3.078125 -9.140625 C 3.054688 -11.316406 3.046875 -13.503906 3.046875 -15.703125 C 3.046875 -17.816406 3.046875 -19.945312 3.046875 -22.09375 C 3.046875 -24.25 3.046875 -26.40625 3.046875 -28.5625 C 3.046875 -31.132812 2.914062 -33.75 2.65625 -36.40625 C 2.613281 -37.125 2.613281 -37.863281 2.65625 -38.625 C 2.695312 -39.382812 2.78125 -40.125 2.90625 -40.84375 C 2.945312 -40.96875 2.976562 -41.101562 3 -41.25 C 3.03125 -41.40625 3.066406 -41.566406 3.109375 -41.734375 C 3.191406 -42.367188 3.453125 -42.882812 3.890625 -43.28125 C 4.335938 -43.6875 4.878906 -43.910156 5.515625 -43.953125 C 6.179688 -43.992188 6.832031 -43.992188 7.46875 -43.953125 C 8.101562 -43.910156 8.738281 -43.890625 9.375 -43.890625 C 9.664062 -43.890625 9.945312 -43.890625 10.21875 -43.890625 C 10.5 -43.890625 10.765625 -43.890625 11.015625 -43.890625 Z M 12.28125 -24.890625 C 12.28125 -24.421875 12.28125 -23.960938 12.28125 -23.515625 C 12.28125 -23.078125 12.28125 -22.628906 12.28125 -22.171875 C 12.28125 -21.992188 12.289062 -21.84375 12.3125 -21.71875 C 12.332031 -21.59375 12.363281 -21.445312 12.40625 -21.28125 C 12.488281 -20.894531 12.582031 -20.648438 12.6875 -20.546875 C 12.800781 -20.441406 13.066406 -20.367188 13.484375 -20.328125 C 13.867188 -20.285156 14.25 -20.253906 14.625 -20.234375 C 15.007812 -20.210938 15.390625 -20.222656 15.765625 -20.265625 C 16.191406 -20.347656 16.601562 -20.429688 17 -20.515625 C 17.40625 -20.597656 17.796875 -20.722656 18.171875 -20.890625 C 18.804688 -21.148438 19.226562 -21.578125 19.4375 -22.171875 C 19.519531 -22.296875 19.59375 -22.421875 19.65625 -22.546875 C 19.726562 -22.671875 19.785156 -22.816406 19.828125 -22.984375 C 20.535156 -24.335938 20.914062 -25.753906 20.96875 -27.234375 C 21.007812 -27.828125 21.039062 -28.394531 21.0625 -28.9375 C 21.082031 -29.488281 21.070312 -30.039062 21.03125 -30.59375 C 21.03125 -31.8125 20.796875 -32.90625 20.328125 -33.875 C 20.117188 -34.257812 19.820312 -34.554688 19.4375 -34.765625 C 18.632812 -35.191406 17.8125 -35.425781 16.96875 -35.46875 C 16.375 -35.507812 15.769531 -35.519531 15.15625 -35.5 C 14.550781 -35.476562 13.953125 -35.46875 13.359375 -35.46875 C 13.023438 -35.46875 12.75 -35.296875 12.53125 -34.953125 C 12.488281 -34.867188 12.445312 -34.773438 12.40625 -34.671875 C 12.363281 -34.566406 12.34375 -34.453125 12.34375 -34.328125 C 12.300781 -34.023438 12.257812 -33.707031 12.21875 -33.375 C 12.175781 -33.039062 12.15625 -32.703125 12.15625 -32.359375 C 12.15625 -31.140625 12.164062 -29.894531 12.1875 -28.625 C 12.207031 -27.351562 12.238281 -26.109375 12.28125 -24.890625 Z M 12.28125 -24.890625 "/></g></g></g><g fill="#003049" fill-opacity="0.4"><g transform="translate(41.434662, 65.168922)"><g><path d="M 2.53125 -20.453125 C 2.613281 -22.015625 2.738281 -23.515625 2.90625 -24.953125 C 3 -25.410156 3.054688 -25.894531 3.078125 -26.40625 C 3.097656 -26.914062 3.128906 -27.398438 3.171875 -27.859375 C 3.296875 -29.046875 3.472656 -30.207031 3.703125 -31.34375 C 3.929688 -32.488281 4.238281 -33.609375 4.625 -34.703125 C 4.875 -35.421875 5.15625 -36.128906 5.46875 -36.828125 C 5.789062 -37.523438 6.164062 -38.1875 6.59375 -38.8125 C 7.09375 -39.613281 7.679688 -40.320312 8.359375 -40.9375 C 9.035156 -41.550781 9.773438 -42.132812 10.578125 -42.6875 C 10.953125 -42.976562 11.359375 -43.238281 11.796875 -43.46875 C 12.242188 -43.707031 12.679688 -43.910156 13.109375 -44.078125 C 14.335938 -44.585938 15.582031 -44.84375 16.84375 -44.84375 C 17.4375 -44.882812 18.046875 -44.90625 18.671875 -44.90625 C 19.304688 -44.90625 19.941406 -44.859375 20.578125 -44.765625 C 21.253906 -44.722656 22.054688 -44.554688 22.984375 -44.265625 C 22.984375 -44.265625 22.992188 -44.265625 23.015625 -44.265625 C 23.035156 -44.265625 23.046875 -44.265625 23.046875 -44.265625 C 23.597656 -43.972656 24.144531 -43.695312 24.6875 -43.4375 C 25.238281 -43.1875 25.769531 -42.894531 26.28125 -42.5625 C 26.789062 -42.21875 27.234375 -41.832031 27.609375 -41.40625 C 27.992188 -40.988281 28.351562 -40.550781 28.6875 -40.09375 C 30.164062 -38.1875 31.15625 -36.007812 31.65625 -33.5625 C 31.914062 -32.25 32.179688 -30.914062 32.453125 -29.5625 C 32.734375 -28.21875 32.894531 -26.867188 32.9375 -25.515625 C 32.976562 -24.796875 33 -24.054688 33 -23.296875 C 33 -22.546875 33 -21.8125 33 -21.09375 C 33 -21.007812 32.976562 -20.941406 32.9375 -20.890625 C 32.757812 -20.265625 32.660156 -19.625 32.640625 -18.96875 C 32.617188 -18.3125 32.523438 -17.664062 32.359375 -17.03125 C 32.109375 -15.8125 31.820312 -14.585938 31.5 -13.359375 C 31.1875 -12.140625 30.773438 -10.957031 30.265625 -9.8125 C 30.054688 -9.351562 29.847656 -8.867188 29.640625 -8.359375 C 29.335938 -7.679688 28.992188 -7.015625 28.609375 -6.359375 C 28.234375 -5.710938 27.835938 -5.070312 27.421875 -4.4375 C 27.085938 -3.882812 26.675781 -3.394531 26.1875 -2.96875 C 25.695312 -2.550781 25.179688 -2.175781 24.640625 -1.84375 C 24.503906 -1.707031 24.363281 -1.585938 24.21875 -1.484375 C 24.070312 -1.378906 23.914062 -1.285156 23.75 -1.203125 C 23.582031 -1.078125 23.410156 -0.960938 23.234375 -0.859375 C 23.066406 -0.753906 22.898438 -0.65625 22.734375 -0.5625 C 22.523438 -0.476562 22.300781 -0.382812 22.0625 -0.28125 C 21.832031 -0.175781 21.613281 -0.0820312 21.40625 0 C 20.976562 0.207031 20.519531 0.34375 20.03125 0.40625 C 19.550781 0.46875 19.082031 0.519531 18.625 0.5625 C 17.945312 0.613281 17.25 0.613281 16.53125 0.5625 C 15.8125 0.519531 15.09375 0.4375 14.375 0.3125 C 13.695312 0.1875 13.03125 0.0507812 12.375 -0.09375 C 11.726562 -0.238281 11.109375 -0.503906 10.515625 -0.890625 C 9.921875 -1.347656 9.328125 -1.804688 8.734375 -2.265625 C 8.148438 -2.734375 7.625 -3.265625 7.15625 -3.859375 C 5.976562 -5.421875 5.050781 -7.046875 4.375 -8.734375 C 3.945312 -9.835938 3.628906 -10.945312 3.421875 -12.0625 C 3.210938 -13.175781 3.0625 -14.304688 2.96875 -15.453125 C 2.96875 -15.785156 2.9375 -16.097656 2.875 -16.390625 C 2.8125 -16.691406 2.78125 -16.988281 2.78125 -17.28125 C 2.738281 -17.832031 2.695312 -18.367188 2.65625 -18.890625 C 2.613281 -19.421875 2.570312 -19.941406 2.53125 -20.453125 Z M 24.1875 -22.546875 C 24.1875 -22.921875 24.195312 -23.296875 24.21875 -23.671875 C 24.238281 -24.054688 24.226562 -24.441406 24.1875 -24.828125 C 24.101562 -25.878906 23.96875 -26.921875 23.78125 -27.953125 C 23.59375 -28.992188 23.328125 -30.019531 22.984375 -31.03125 C 22.648438 -32.164062 22.144531 -33.203125 21.46875 -34.140625 C 21.425781 -34.179688 21.382812 -34.222656 21.34375 -34.265625 C 21.300781 -34.304688 21.257812 -34.347656 21.21875 -34.390625 C 20.15625 -35.191406 18.972656 -35.59375 17.671875 -35.59375 C 16.316406 -35.507812 15.195312 -34.957031 14.3125 -33.9375 C 13.507812 -33.007812 12.875 -31.984375 12.40625 -30.859375 C 11.945312 -29.742188 11.566406 -28.597656 11.265625 -27.421875 C 11.097656 -26.867188 10.992188 -26.328125 10.953125 -25.796875 C 10.910156 -25.273438 10.867188 -24.738281 10.828125 -24.1875 C 10.742188 -22.75 10.722656 -21.300781 10.765625 -19.84375 C 10.804688 -18.394531 10.953125 -16.953125 11.203125 -15.515625 C 11.335938 -14.835938 11.5 -14.160156 11.6875 -13.484375 C 11.875 -12.804688 12.113281 -12.15625 12.40625 -11.53125 C 13.082031 -10.21875 14.078125 -9.375 15.390625 -9 C 15.804688 -8.90625 16.238281 -8.816406 16.6875 -8.734375 C 17.132812 -8.648438 17.566406 -8.585938 17.984375 -8.546875 C 18.492188 -8.503906 18.988281 -8.554688 19.46875 -8.703125 C 19.957031 -8.847656 20.410156 -9.050781 20.828125 -9.3125 C 21.585938 -9.726562 22.097656 -10.398438 22.359375 -11.328125 C 22.691406 -12.179688 22.953125 -13.039062 23.140625 -13.90625 C 23.335938 -14.769531 23.519531 -15.644531 23.6875 -16.53125 C 23.894531 -17.5 24.019531 -18.488281 24.0625 -19.5 C 24.101562 -20.519531 24.144531 -21.535156 24.1875 -22.546875 Z M 24.1875 -22.546875 "/></g></g></g><g fill="#003049" fill-opacity="0.4"><g transform="translate(83.740299, 65.168922)"><g><path d="M 11.015625 -43.890625 C 11.941406 -43.890625 12.847656 -43.878906 13.734375 -43.859375 C 14.628906 -43.835938 15.5 -43.828125 16.34375 -43.828125 C 17.0625 -43.785156 17.753906 -43.753906 18.421875 -43.734375 C 19.097656 -43.710938 19.773438 -43.679688 20.453125 -43.640625 C 20.535156 -43.640625 20.609375 -43.640625 20.671875 -43.640625 C 20.734375 -43.640625 20.785156 -43.640625 20.828125 -43.640625 C 21.765625 -43.460938 22.664062 -43.21875 23.53125 -42.90625 C 24.394531 -42.59375 25.164062 -42.078125 25.84375 -41.359375 C 26.300781 -40.929688 26.707031 -40.484375 27.0625 -40.015625 C 27.425781 -39.554688 27.710938 -39.050781 27.921875 -38.5 C 28.140625 -38.039062 28.332031 -37.585938 28.5 -37.140625 C 28.664062 -36.703125 28.832031 -36.25 29 -35.78125 C 29.039062 -35.65625 29.070312 -35.523438 29.09375 -35.390625 C 29.113281 -35.265625 29.144531 -35.140625 29.1875 -35.015625 C 29.320312 -34.335938 29.453125 -33.671875 29.578125 -33.015625 C 29.703125 -32.367188 29.785156 -31.707031 29.828125 -31.03125 C 29.867188 -30.3125 29.910156 -29.59375 29.953125 -28.875 C 29.992188 -28.15625 30.015625 -27.4375 30.015625 -26.71875 C 30.015625 -23.851562 29.316406 -21.175781 27.921875 -18.6875 C 27.628906 -18.175781 27.3125 -17.675781 26.96875 -17.1875 C 26.632812 -16.707031 26.238281 -16.273438 25.78125 -15.890625 C 25.476562 -15.640625 25.164062 -15.40625 24.84375 -15.1875 C 24.53125 -14.976562 24.207031 -14.8125 23.875 -14.6875 C 23.445312 -14.519531 23.054688 -14.351562 22.703125 -14.1875 C 22.347656 -14.019531 21.976562 -13.828125 21.59375 -13.609375 C 21.082031 -13.316406 20.515625 -13.066406 19.890625 -12.859375 C 19.335938 -12.734375 18.753906 -12.613281 18.140625 -12.5 C 17.523438 -12.394531 16.925781 -12.300781 16.34375 -12.21875 C 16.164062 -12.175781 16.003906 -12.15625 15.859375 -12.15625 C 15.710938 -12.15625 15.554688 -12.15625 15.390625 -12.15625 C 15.003906 -12.113281 14.617188 -12.070312 14.234375 -12.03125 C 13.859375 -11.988281 13.503906 -11.945312 13.171875 -11.90625 C 12.921875 -11.90625 12.753906 -11.757812 12.671875 -11.46875 C 12.453125 -11.125 12.300781 -10.75 12.21875 -10.34375 C 12.132812 -9.945312 12.09375 -9.5625 12.09375 -9.1875 C 12.050781 -8.800781 12.039062 -8.40625 12.0625 -8 C 12.082031 -7.601562 12.070312 -7.21875 12.03125 -6.84375 C 12.03125 -6.289062 12.03125 -5.71875 12.03125 -5.125 C 12.03125 -4.539062 12.007812 -3.953125 11.96875 -3.359375 C 11.925781 -2.929688 11.863281 -2.472656 11.78125 -1.984375 C 11.695312 -1.503906 11.546875 -1.054688 11.328125 -0.640625 C 11.117188 -0.296875 10.890625 -0.0390625 10.640625 0.125 C 9.492188 0.632812 8.375 0.867188 7.28125 0.828125 C 7.113281 0.828125 6.90625 0.785156 6.65625 0.703125 C 6.3125 0.609375 5.976562 0.507812 5.65625 0.40625 C 5.34375 0.300781 5.019531 0.207031 4.6875 0.125 C 4.394531 0.0390625 4.160156 -0.0820312 3.984375 -0.25 C 3.816406 -0.414062 3.648438 -0.585938 3.484375 -0.765625 C 3.316406 -1.054688 3.15625 -1.347656 3 -1.640625 C 2.851562 -1.941406 2.800781 -2.257812 2.84375 -2.59375 C 3.019531 -4.789062 3.097656 -6.972656 3.078125 -9.140625 C 3.054688 -11.316406 3.046875 -13.503906 3.046875 -15.703125 C 3.046875 -17.816406 3.046875 -19.945312 3.046875 -22.09375 C 3.046875 -24.25 3.046875 -26.40625 3.046875 -28.5625 C 3.046875 -31.132812 2.914062 -33.75 2.65625 -36.40625 C 2.613281 -37.125 2.613281 -37.863281 2.65625 -38.625 C 2.695312 -39.382812 2.78125 -40.125 2.90625 -40.84375 C 2.945312 -40.96875 2.976562 -41.101562 3 -41.25 C 3.03125 -41.40625 3.066406 -41.566406 3.109375 -41.734375 C 3.191406 -42.367188 3.453125 -42.882812 3.890625 -43.28125 C 4.335938 -43.6875 4.878906 -43.910156 5.515625 -43.953125 C 6.179688 -43.992188 6.832031 -43.992188 7.46875 -43.953125 C 8.101562 -43.910156 8.738281 -43.890625 9.375 -43.890625 C 9.664062 -43.890625 9.945312 -43.890625 10.21875 -43.890625 C 10.5 -43.890625 10.765625 -43.890625 11.015625 -43.890625 Z M 12.28125 -24.890625 C 12.28125 -24.421875 12.28125 -23.960938 12.28125 -23.515625 C 12.28125 -23.078125 12.28125 -22.628906 12.28125 -22.171875 C 12.28125 -21.992188 12.289062 -21.84375 12.3125 -21.71875 C 12.332031 -21.59375 12.363281 -21.445312 12.40625 -21.28125 C 12.488281 -20.894531 12.582031 -20.648438 12.6875 -20.546875 C 12.800781 -20.441406 13.066406 -20.367188 13.484375 -20.328125 C 13.867188 -20.285156 14.25 -20.253906 14.625 -20.234375 C 15.007812 -20.210938 15.390625 -20.222656 15.765625 -20.265625 C 16.191406 -20.347656 16.601562 -20.429688 17 -20.515625 C 17.40625 -20.597656 17.796875 -20.722656 18.171875 -20.890625 C 18.804688 -21.148438 19.226562 -21.578125 19.4375 -22.171875 C 19.519531 -22.296875 19.59375 -22.421875 19.65625 -22.546875 C 19.726562 -22.671875 19.785156 -22.816406 19.828125 -22.984375 C 20.535156 -24.335938 20.914062 -25.753906 20.96875 -27.234375 C 21.007812 -27.828125 21.039062 -28.394531 21.0625 -28.9375 C 21.082031 -29.488281 21.070312 -30.039062 21.03125 -30.59375 C 21.03125 -31.8125 20.796875 -32.90625 20.328125 -33.875 C 20.117188 -34.257812 19.820312 -34.554688 19.4375 -34.765625 C 18.632812 -35.191406 17.8125 -35.425781 16.96875 -35.46875 C 16.375 -35.507812 15.769531 -35.519531 15.15625 -35.5 C 14.550781 -35.476562 13.953125 -35.46875 13.359375 -35.46875 C 13.023438 -35.46875 12.75 -35.296875 12.53125 -34.953125 C 12.488281 -34.867188 12.445312 -34.773438 12.40625 -34.671875 C 12.363281 -34.566406 12.34375 -34.453125 12.34375 -34.328125 C 12.300781 -34.023438 12.257812 -33.707031 12.21875 -33.375 C 12.175781 -33.039062 12.15625 -32.703125 12.15625 -32.359375 C 12.15625 -31.140625 12.164062 -29.894531 12.1875 -28.625 C 12.207031 -27.351562 12.238281 -26.109375 12.28125 -24.890625 Z M 12.28125 -24.890625 "/></g></g></g><g fill="#003049" fill-opacity="0.4"><g transform="translate(122.119467, 65.168922)"><g><path d="M 2.53125 -20.453125 C 2.613281 -22.015625 2.738281 -23.515625 2.90625 -24.953125 C 3 -25.410156 3.054688 -25.894531 3.078125 -26.40625 C 3.097656 -26.914062 3.128906 -27.398438 3.171875 -27.859375 C 3.296875 -29.046875 3.472656 -30.207031 3.703125 -31.34375 C 3.929688 -32.488281 4.238281 -33.609375 4.625 -34.703125 C 4.875 -35.421875 5.15625 -36.128906 5.46875 -36.828125 C 5.789062 -37.523438 6.164062 -38.1875 6.59375 -38.8125 C 7.09375 -39.613281 7.679688 -40.320312 8.359375 -40.9375 C 9.035156 -41.550781 9.773438 -42.132812 10.578125 -42.6875 C 10.953125 -42.976562 11.359375 -43.238281 11.796875 -43.46875 C 12.242188 -43.707031 12.679688 -43.910156 13.109375 -44.078125 C 14.335938 -44.585938 15.582031 -44.84375 16.84375 -44.84375 C 17.4375 -44.882812 18.046875 -44.90625 18.671875 -44.90625 C 19.304688 -44.90625 19.941406 -44.859375 20.578125 -44.765625 C 21.253906 -44.722656 22.054688 -44.554688 22.984375 -44.265625 C 22.984375 -44.265625 22.992188 -44.265625 23.015625 -44.265625 C 23.035156 -44.265625 23.046875 -44.265625 23.046875 -44.265625 C 23.597656 -43.972656 24.144531 -43.695312 24.6875 -43.4375 C 25.238281 -43.1875 25.769531 -42.894531 26.28125 -42.5625 C 26.789062 -42.21875 27.234375 -41.832031 27.609375 -41.40625 C 27.992188 -40.988281 28.351562 -40.550781 28.6875 -40.09375 C 30.164062 -38.1875 31.15625 -36.007812 31.65625 -33.5625 C 31.914062 -32.25 32.179688 -30.914062 32.453125 -29.5625 C 32.734375 -28.21875 32.894531 -26.867188 32.9375 -25.515625 C 32.976562 -24.796875 33 -24.054688 33 -23.296875 C 33 -22.546875 33 -21.8125 33 -21.09375 C 33 -21.007812 32.976562 -20.941406 32.9375 -20.890625 C 32.757812 -20.265625 32.660156 -19.625 32.640625 -18.96875 C 32.617188 -18.3125 32.523438 -17.664062 32.359375 -17.03125 C 32.109375 -15.8125 31.820312 -14.585938 31.5 -13.359375 C 31.1875 -12.140625 30.773438 -10.957031 30.265625 -9.8125 C 30.054688 -9.351562 29.847656 -8.867188 29.640625 -8.359375 C 29.335938 -7.679688 28.992188 -7.015625 28.609375 -6.359375 C 28.234375 -5.710938 27.835938 -5.070312 27.421875 -4.4375 C 27.085938 -3.882812 26.675781 -3.394531 26.1875 -2.96875 C 25.695312 -2.550781 25.179688 -2.175781 24.640625 -1.84375 C 24.503906 -1.707031 24.363281 -1.585938 24.21875 -1.484375 C 24.070312 -1.378906 23.914062 -1.285156 23.75 -1.203125 C 23.582031 -1.078125 23.410156 -0.960938 23.234375 -0.859375 C 23.066406 -0.753906 22.898438 -0.65625 22.734375 -0.5625 C 22.523438 -0.476562 22.300781 -0.382812 22.0625 -0.28125 C 21.832031 -0.175781 21.613281 -0.0820312 21.40625 0 C 20.976562 0.207031 20.519531 0.34375 20.03125 0.40625 C 19.550781 0.46875 19.082031 0.519531 18.625 0.5625 C 17.945312 0.613281 17.25 0.613281 16.53125 0.5625 C 15.8125 0.519531 15.09375 0.4375 14.375 0.3125 C 13.695312 0.1875 13.03125 0.0507812 12.375 -0.09375 C 11.726562 -0.238281 11.109375 -0.503906 10.515625 -0.890625 C 9.921875 -1.347656 9.328125 -1.804688 8.734375 -2.265625 C 8.148438 -2.734375 7.625 -3.265625 7.15625 -3.859375 C 5.976562 -5.421875 5.050781 -7.046875 4.375 -8.734375 C 3.945312 -9.835938 3.628906 -10.945312 3.421875 -12.0625 C 3.210938 -13.175781 3.0625 -14.304688 2.96875 -15.453125 C 2.96875 -15.785156 2.9375 -16.097656 2.875 -16.390625 C 2.8125 -16.691406 2.78125 -16.988281 2.78125 -17.28125 C 2.738281 -17.832031 2.695312 -18.367188 2.65625 -18.890625 C 2.613281 -19.421875 2.570312 -19.941406 2.53125 -20.453125 Z M 24.1875 -22.546875 C 24.1875 -22.921875 24.195312 -23.296875 24.21875 -23.671875 C 24.238281 -24.054688 24.226562 -24.441406 24.1875 -24.828125 C 24.101562 -25.878906 23.96875 -26.921875 23.78125 -27.953125 C 23.59375 -28.992188 23.328125 -30.019531 22.984375 -31.03125 C 22.648438 -32.164062 22.144531 -33.203125 21.46875 -34.140625 C 21.425781 -34.179688 21.382812 -34.222656 21.34375 -34.265625 C 21.300781 -34.304688 21.257812 -34.347656 21.21875 -34.390625 C 20.15625 -35.191406 18.972656 -35.59375 17.671875 -35.59375 C 16.316406 -35.507812 15.195312 -34.957031 14.3125 -33.9375 C 13.507812 -33.007812 12.875 -31.984375 12.40625 -30.859375 C 11.945312 -29.742188 11.566406 -28.597656 11.265625 -27.421875 C 11.097656 -26.867188 10.992188 -26.328125 10.953125 -25.796875 C 10.910156 -25.273438 10.867188 -24.738281 10.828125 -24.1875 C 10.742188 -22.75 10.722656 -21.300781 10.765625 -19.84375 C 10.804688 -18.394531 10.953125 -16.953125 11.203125 -15.515625 C 11.335938 -14.835938 11.5 -14.160156 11.6875 -13.484375 C 11.875 -12.804688 12.113281 -12.15625 12.40625 -11.53125 C 13.082031 -10.21875 14.078125 -9.375 15.390625 -9 C 15.804688 -8.90625 16.238281 -8.816406 16.6875 -8.734375 C 17.132812 -8.648438 17.566406 -8.585938 17.984375 -8.546875 C 18.492188 -8.503906 18.988281 -8.554688 19.46875 -8.703125 C 19.957031 -8.847656 20.410156 -9.050781 20.828125 -9.3125 C 21.585938 -9.726562 22.097656 -10.398438 22.359375 -11.328125 C 22.691406 -12.179688 22.953125 -13.039062 23.140625 -13.90625 C 23.335938 -14.769531 23.519531 -15.644531 23.6875 -16.53125 C 23.894531 -17.5 24.019531 -18.488281 24.0625 -19.5 C 24.101562 -20.519531 24.144531 -21.535156 24.1875 -22.546875 Z M 24.1875 -22.546875 "/></g></g></g><g fill="#003049" fill-opacity="0.4"><g transform="translate(162.651617, 65.168922)"><g><path d="M 8.171875 -14.8125 C 8.210938 -16.164062 8.242188 -17.53125 8.265625 -18.90625 C 8.285156 -20.28125 8.316406 -21.660156 8.359375 -23.046875 C 8.398438 -23.847656 8.441406 -24.648438 8.484375 -25.453125 C 8.523438 -26.253906 8.566406 -27.054688 8.609375 -27.859375 C 8.648438 -28.835938 8.660156 -29.800781 8.640625 -30.75 C 8.617188 -31.695312 8.609375 -32.65625 8.609375 -33.625 C 8.609375 -33.75 8.609375 -33.882812 8.609375 -34.03125 C 8.609375 -34.1875 8.609375 -34.328125 8.609375 -34.453125 C 8.609375 -34.660156 8.566406 -34.890625 8.484375 -35.140625 C 8.316406 -35.609375 8 -35.84375 7.53125 -35.84375 C 6.90625 -35.84375 6.273438 -35.832031 5.640625 -35.8125 C 5.003906 -35.789062 4.390625 -35.800781 3.796875 -35.84375 C 3.503906 -35.84375 3.1875 -35.875 2.84375 -35.9375 C 2.507812 -36 2.21875 -36.15625 1.96875 -36.40625 C 1.5 -36.789062 1.265625 -37.300781 1.265625 -37.9375 C 1.265625 -38.738281 1.335938 -39.53125 1.484375 -40.3125 C 1.628906 -41.09375 1.851562 -41.863281 2.15625 -42.625 C 2.363281 -43.039062 2.613281 -43.375 2.90625 -43.625 C 3.207031 -43.882812 3.585938 -44.015625 4.046875 -44.015625 C 4.679688 -44.015625 5.304688 -44.015625 5.921875 -44.015625 C 6.535156 -44.015625 7.160156 -44.015625 7.796875 -44.015625 C 8.253906 -43.972656 8.710938 -43.929688 9.171875 -43.890625 C 9.640625 -43.847656 10.085938 -43.828125 10.515625 -43.828125 C 11.734375 -43.828125 12.941406 -43.816406 14.140625 -43.796875 C 15.347656 -43.773438 16.546875 -43.765625 17.734375 -43.765625 C 18.367188 -43.765625 18.988281 -43.785156 19.59375 -43.828125 C 20.207031 -43.867188 20.8125 -43.910156 21.40625 -43.953125 C 21.738281 -43.953125 22.082031 -43.929688 22.4375 -43.890625 C 22.800781 -43.847656 23.132812 -43.738281 23.4375 -43.5625 C 23.769531 -43.394531 24.039062 -43.101562 24.25 -42.6875 C 24.332031 -42.382812 24.40625 -42.097656 24.46875 -41.828125 C 24.539062 -41.554688 24.554688 -41.269531 24.515625 -40.96875 C 24.460938 -40.46875 24.414062 -39.953125 24.375 -39.421875 C 24.332031 -38.890625 24.332031 -38.351562 24.375 -37.8125 C 24.375 -37.46875 24.238281 -37.132812 23.96875 -36.8125 C 23.695312 -36.5 23.410156 -36.300781 23.109375 -36.21875 C 22.859375 -36.175781 22.601562 -36.125 22.34375 -36.0625 C 22.09375 -36 21.820312 -35.96875 21.53125 -35.96875 C 20.9375 -35.925781 20.332031 -35.90625 19.71875 -35.90625 C 19.113281 -35.90625 18.515625 -35.882812 17.921875 -35.84375 C 17.367188 -35.84375 17.03125 -35.523438 16.90625 -34.890625 C 16.863281 -34.554688 16.820312 -34.21875 16.78125 -33.875 C 16.738281 -33.539062 16.71875 -33.207031 16.71875 -32.875 C 16.675781 -31.257812 16.65625 -29.660156 16.65625 -28.078125 C 16.65625 -26.503906 16.613281 -24.914062 16.53125 -23.3125 C 16.53125 -22.59375 16.507812 -21.863281 16.46875 -21.125 C 16.425781 -20.382812 16.382812 -19.632812 16.34375 -18.875 C 16.300781 -18.195312 16.28125 -17.519531 16.28125 -16.84375 C 16.28125 -16.164062 16.257812 -15.488281 16.21875 -14.8125 C 16.21875 -13.382812 16.21875 -11.960938 16.21875 -10.546875 C 16.21875 -9.128906 16.195312 -7.703125 16.15625 -6.265625 C 16.15625 -5.804688 16.15625 -5.34375 16.15625 -4.875 C 16.15625 -4.40625 16.109375 -3.941406 16.015625 -3.484375 C 15.972656 -3.191406 15.929688 -2.914062 15.890625 -2.65625 C 15.847656 -2.40625 15.785156 -2.15625 15.703125 -1.90625 C 15.660156 -1.726562 15.609375 -1.546875 15.546875 -1.359375 C 15.484375 -1.171875 15.410156 -0.972656 15.328125 -0.765625 C 15.203125 -0.210938 14.863281 0.164062 14.3125 0.375 C 14.144531 0.414062 13.941406 0.46875 13.703125 0.53125 C 13.472656 0.601562 13.253906 0.660156 13.046875 0.703125 C 12.660156 0.742188 12.273438 0.785156 11.890625 0.828125 C 11.515625 0.867188 11.117188 0.847656 10.703125 0.765625 C 9.515625 0.546875 8.773438 -0.0859375 8.484375 -1.140625 C 8.359375 -1.648438 8.296875 -2.15625 8.296875 -2.65625 C 8.253906 -4.6875 8.234375 -6.710938 8.234375 -8.734375 C 8.234375 -10.765625 8.234375 -12.789062 8.234375 -14.8125 C 8.191406 -14.8125 8.171875 -14.8125 8.171875 -14.8125 Z M 8.171875 -14.8125 "/></g></g></g><g fill="#003049" fill-opacity="0.4"><g transform="translate(195.710984, 65.168922)"><g><path d="M 2.90625 -20.765625 C 3 -22.503906 3.054688 -24.117188 3.078125 -25.609375 C 3.097656 -27.109375 3.128906 -28.597656 3.171875 -30.078125 C 3.210938 -31.429688 3.234375 -32.78125 3.234375 -34.125 C 3.234375 -35.476562 3.234375 -36.8125 3.234375 -38.125 C 3.273438 -38.332031 3.296875 -38.539062 3.296875 -38.75 C 3.296875 -38.96875 3.316406 -39.160156 3.359375 -39.328125 C 3.441406 -39.785156 3.523438 -40.257812 3.609375 -40.75 C 3.691406 -41.238281 3.773438 -41.710938 3.859375 -42.171875 C 4.242188 -43.441406 5.066406 -44.140625 6.328125 -44.265625 C 6.921875 -44.304688 7.5 -44.347656 8.0625 -44.390625 C 8.632812 -44.429688 9.195312 -44.472656 9.75 -44.515625 C 9.957031 -44.515625 10.175781 -44.515625 10.40625 -44.515625 C 10.644531 -44.515625 10.847656 -44.515625 11.015625 -44.515625 C 11.359375 -44.515625 11.707031 -44.515625 12.0625 -44.515625 C 12.425781 -44.515625 12.773438 -44.515625 13.109375 -44.515625 C 13.953125 -44.554688 14.816406 -44.578125 15.703125 -44.578125 C 16.585938 -44.578125 17.472656 -44.578125 18.359375 -44.578125 C 18.703125 -44.617188 19.050781 -44.628906 19.40625 -44.609375 C 19.769531 -44.585938 20.117188 -44.578125 20.453125 -44.578125 C 21.046875 -44.535156 21.632812 -44.515625 22.21875 -44.515625 C 22.8125 -44.515625 23.382812 -44.492188 23.9375 -44.453125 C 24.269531 -44.453125 24.503906 -44.429688 24.640625 -44.390625 C 24.847656 -44.390625 25.023438 -44.378906 25.171875 -44.359375 C 25.316406 -44.335938 25.472656 -44.328125 25.640625 -44.328125 C 26.785156 -44.328125 27.546875 -43.84375 27.921875 -42.875 C 28.054688 -42.445312 28.125 -41.984375 28.125 -41.484375 C 28.164062 -40.847656 28.1875 -40.222656 28.1875 -39.609375 C 28.1875 -38.992188 28.207031 -38.394531 28.25 -37.8125 C 28.25 -37.632812 28.238281 -37.484375 28.21875 -37.359375 C 28.195312 -37.234375 28.207031 -37.109375 28.25 -36.984375 C 28.289062 -36.773438 28.265625 -36.570312 28.171875 -36.375 C 28.085938 -36.1875 28.003906 -35.988281 27.921875 -35.78125 C 27.796875 -35.53125 27.617188 -35.367188 27.390625 -35.296875 C 27.160156 -35.234375 26.9375 -35.179688 26.71875 -35.140625 C 26.21875 -35.097656 25.722656 -35.066406 25.234375 -35.046875 C 24.753906 -35.023438 24.257812 -35.015625 23.75 -35.015625 C 22.601562 -34.972656 21.453125 -34.941406 20.296875 -34.921875 C 19.140625 -34.898438 17.988281 -34.867188 16.84375 -34.828125 C 16.082031 -34.828125 15.28125 -34.765625 14.4375 -34.640625 C 14.1875 -34.597656 13.941406 -34.515625 13.703125 -34.390625 C 13.472656 -34.265625 13.316406 -34.050781 13.234375 -33.75 C 12.722656 -32.53125 12.597656 -31.265625 12.859375 -29.953125 C 13.023438 -29.316406 13.425781 -28.875 14.0625 -28.625 C 14.351562 -28.539062 14.644531 -28.476562 14.9375 -28.4375 C 15.238281 -28.394531 15.535156 -28.375 15.828125 -28.375 C 16.753906 -28.375 17.671875 -28.375 18.578125 -28.375 C 19.492188 -28.375 20.394531 -28.375 21.28125 -28.375 C 21.875 -28.375 22.484375 -28.242188 23.109375 -27.984375 C 23.453125 -27.816406 23.644531 -27.609375 23.6875 -27.359375 C 23.9375 -26.679688 24.09375 -25.972656 24.15625 -25.234375 C 24.21875 -24.492188 24.144531 -23.765625 23.9375 -23.046875 C 23.851562 -22.796875 23.738281 -22.539062 23.59375 -22.28125 C 23.445312 -22.03125 23.285156 -21.800781 23.109375 -21.59375 C 22.898438 -21.257812 22.539062 -21.09375 22.03125 -21.09375 C 21.445312 -21.050781 20.847656 -20.984375 20.234375 -20.890625 C 19.617188 -20.804688 19.015625 -20.722656 18.421875 -20.640625 C 17.796875 -20.597656 17.164062 -20.546875 16.53125 -20.484375 C 15.894531 -20.421875 15.28125 -20.390625 14.6875 -20.390625 C 14.3125 -20.390625 13.953125 -20.238281 13.609375 -19.9375 C 13.273438 -19.644531 13.066406 -19.3125 12.984375 -18.9375 C 12.941406 -18.632812 12.910156 -18.347656 12.890625 -18.078125 C 12.867188 -17.804688 12.859375 -17.5 12.859375 -17.15625 C 12.816406 -16.226562 12.796875 -15.300781 12.796875 -14.375 C 12.796875 -13.445312 12.796875 -12.5 12.796875 -11.53125 C 12.796875 -11.269531 12.796875 -11.015625 12.796875 -10.765625 C 12.796875 -10.515625 12.816406 -10.257812 12.859375 -10 C 12.898438 -9.75 12.972656 -9.519531 13.078125 -9.3125 C 13.179688 -9.101562 13.296875 -8.890625 13.421875 -8.671875 C 13.546875 -8.503906 13.710938 -8.398438 13.921875 -8.359375 C 14.140625 -8.316406 14.332031 -8.296875 14.5 -8.296875 C 15.09375 -8.296875 15.703125 -8.296875 16.328125 -8.296875 C 16.960938 -8.296875 17.597656 -8.316406 18.234375 -8.359375 C 18.828125 -8.359375 19.441406 -8.367188 20.078125 -8.390625 C 20.710938 -8.410156 21.320312 -8.441406 21.90625 -8.484375 C 22.375 -8.484375 22.804688 -8.492188 23.203125 -8.515625 C 23.609375 -8.535156 24.019531 -8.546875 24.4375 -8.546875 C 24.820312 -8.546875 25.203125 -8.523438 25.578125 -8.484375 C 25.960938 -8.441406 26.320312 -8.335938 26.65625 -8.171875 C 26.78125 -8.128906 26.90625 -8.078125 27.03125 -8.015625 C 27.164062 -7.953125 27.273438 -7.878906 27.359375 -7.796875 C 28.203125 -7.160156 28.625 -6.3125 28.625 -5.25 C 28.625 -4.914062 28.632812 -4.578125 28.65625 -4.234375 C 28.675781 -3.898438 28.707031 -3.566406 28.75 -3.234375 C 28.75 -2.929688 28.75 -2.644531 28.75 -2.375 C 28.75 -2.101562 28.75 -1.816406 28.75 -1.515625 C 28.707031 -1.222656 28.59375 -0.957031 28.40625 -0.71875 C 28.21875 -0.488281 28.015625 -0.269531 27.796875 -0.0625 C 27.671875 0.0625 27.460938 0.125 27.171875 0.125 C 26.109375 0.164062 25.0625 0.1875 24.03125 0.1875 C 23 0.1875 21.953125 0.207031 20.890625 0.25 C 20.347656 0.25 19.8125 0.269531 19.28125 0.3125 C 18.75 0.351562 18.210938 0.375 17.671875 0.375 C 16.828125 0.414062 15.984375 0.4375 15.140625 0.4375 C 14.296875 0.4375 13.453125 0.457031 12.609375 0.5 C 12.015625 0.539062 11.410156 0.582031 10.796875 0.625 C 10.179688 0.675781 9.582031 0.722656 9 0.765625 C 8.445312 0.804688 7.875 0.816406 7.28125 0.796875 C 6.6875 0.773438 6.097656 0.695312 5.515625 0.5625 C 5.210938 0.519531 4.910156 0.445312 4.609375 0.34375 C 4.316406 0.238281 4.046875 0.101562 3.796875 -0.0625 C 3.710938 -0.144531 3.628906 -0.226562 3.546875 -0.3125 C 3.460938 -0.394531 3.398438 -0.476562 3.359375 -0.5625 C 2.972656 -1.238281 2.738281 -2 2.65625 -2.84375 C 2.613281 -3.6875 2.59375 -4.519531 2.59375 -5.34375 C 2.59375 -6.175781 2.59375 -6.992188 2.59375 -7.796875 C 2.675781 -9.441406 2.738281 -11.085938 2.78125 -12.734375 C 2.820312 -14.378906 2.863281 -16.023438 2.90625 -17.671875 C 2.945312 -18.265625 2.957031 -18.84375 2.9375 -19.40625 C 2.914062 -19.976562 2.90625 -20.429688 2.90625 -20.765625 Z M 2.90625 -20.765625 "/></g></g></g><g fill="#003049" fill-opacity="1"><g transform="translate(0.256288, 62.369723)"><g><path d="M 11.015625 -43.890625 C 11.941406 -43.890625 12.847656 -43.878906 13.734375 -43.859375 C 14.628906 -43.835938 15.5 -43.828125 16.34375 -43.828125 C 17.0625 -43.785156 17.753906 -43.753906 18.421875 -43.734375 C 19.097656 -43.710938 19.773438 -43.679688 20.453125 -43.640625 C 20.535156 -43.640625 20.609375 -43.640625 20.671875 -43.640625 C 20.734375 -43.640625 20.785156 -43.640625 20.828125 -43.640625 C 21.765625 -43.460938 22.664062 -43.21875 23.53125 -42.90625 C 24.394531 -42.59375 25.164062 -42.078125 25.84375 -41.359375 C 26.300781 -40.929688 26.707031 -40.484375 27.0625 -40.015625 C 27.425781 -39.554688 27.710938 -39.050781 27.921875 -38.5 C 28.140625 -38.039062 28.332031 -37.585938 28.5 -37.140625 C 28.664062 -36.703125 28.832031 -36.25 29 -35.78125 C 29.039062 -35.65625 29.070312 -35.523438 29.09375 -35.390625 C 29.113281 -35.265625 29.144531 -35.140625 29.1875 -35.015625 C 29.320312 -34.335938 29.453125 -33.671875 29.578125 -33.015625 C 29.703125 -32.367188 29.785156 -31.707031 29.828125 -31.03125 C 29.867188 -30.3125 29.910156 -29.59375 29.953125 -28.875 C 29.992188 -28.15625 30.015625 -27.4375 30.015625 -26.71875 C 30.015625 -23.851562 29.316406 -21.175781 27.921875 -18.6875 C 27.628906 -18.175781 27.3125 -17.675781 26.96875 -17.1875 C 26.632812 -16.707031 26.238281 -16.273438 25.78125 -15.890625 C 25.476562 -15.640625 25.164062 -15.40625 24.84375 -15.1875 C 24.53125 -14.976562 24.207031 -14.8125 23.875 -14.6875 C 23.445312 -14.519531 23.054688 -14.351562 22.703125 -14.1875 C 22.347656 -14.019531 21.976562 -13.828125 21.59375 -13.609375 C 21.082031 -13.316406 20.515625 -13.066406 19.890625 -12.859375 C 19.335938 -12.734375 18.753906 -12.613281 18.140625 -12.5 C 17.523438 -12.394531 16.925781 -12.300781 16.34375 -12.21875 C 16.164062 -12.175781 16.003906 -12.15625 15.859375 -12.15625 C 15.710938 -12.15625 15.554688 -12.15625 15.390625 -12.15625 C 15.003906 -12.113281 14.617188 -12.070312 14.234375 -12.03125 C 13.859375 -11.988281 13.503906 -11.945312 13.171875 -11.90625 C 12.921875 -11.90625 12.753906 -11.757812 12.671875 -11.46875 C 12.453125 -11.125 12.300781 -10.75 12.21875 -10.34375 C 12.132812 -9.945312 12.09375 -9.5625 12.09375 -9.1875 C 12.050781 -8.800781 12.039062 -8.40625 12.0625 -8 C 12.082031 -7.601562 12.070312 -7.21875 12.03125 -6.84375 C 12.03125 -6.289062 12.03125 -5.71875 12.03125 -5.125 C 12.03125 -4.539062 12.007812 -3.953125 11.96875 -3.359375 C 11.925781 -2.929688 11.863281 -2.472656 11.78125 -1.984375 C 11.695312 -1.503906 11.546875 -1.054688 11.328125 -0.640625 C 11.117188 -0.296875 10.890625 -0.0390625 10.640625 0.125 C 9.492188 0.632812 8.375 0.867188 7.28125 0.828125 C 7.113281 0.828125 6.90625 0.785156 6.65625 0.703125 C 6.3125 0.609375 5.976562 0.507812 5.65625 0.40625 C 5.34375 0.300781 5.019531 0.207031 4.6875 0.125 C 4.394531 0.0390625 4.160156 -0.0820312 3.984375 -0.25 C 3.816406 -0.414062 3.648438 -0.585938 3.484375 -0.765625 C 3.316406 -1.054688 3.15625 -1.347656 3 -1.640625 C 2.851562 -1.941406 2.800781 -2.257812 2.84375 -2.59375 C 3.019531 -4.789062 3.097656 -6.972656 3.078125 -9.140625 C 3.054688 -11.316406 3.046875 -13.503906 3.046875 -15.703125 C 3.046875 -17.816406 3.046875 -19.945312 3.046875 -22.09375 C 3.046875 -24.25 3.046875 -26.40625 3.046875 -28.5625 C 3.046875 -31.132812 2.914062 -33.75 2.65625 -36.40625 C 2.613281 -37.125 2.613281 -37.863281 2.65625 -38.625 C 2.695312 -39.382812 2.78125 -40.125 2.90625 -40.84375 C 2.945312 -40.96875 2.976562 -41.101562 3 -41.25 C 3.03125 -41.40625 3.066406 -41.566406 3.109375 -41.734375 C 3.191406 -42.367188 3.453125 -42.882812 3.890625 -43.28125 C 4.335938 -43.6875 4.878906 -43.910156 5.515625 -43.953125 C 6.179688 -43.992188 6.832031 -43.992188 7.46875 -43.953125 C 8.101562 -43.910156 8.738281 -43.890625 9.375 -43.890625 C 9.664062 -43.890625 9.945312 -43.890625 10.21875 -43.890625 C 10.5 -43.890625 10.765625 -43.890625 11.015625 -43.890625 Z M 12.28125 -24.890625 C 12.28125 -24.421875 12.28125 -23.960938 12.28125 -23.515625 C 12.28125 -23.078125 12.28125 -22.628906 12.28125 -22.171875 C 12.28125 -21.992188 12.289062 -21.84375 12.3125 -21.71875 C 12.332031 -21.59375 12.363281 -21.445312 12.40625 -21.28125 C 12.488281 -20.894531 12.582031 -20.648438 12.6875 -20.546875 C 12.800781 -20.441406 13.066406 -20.367188 13.484375 -20.328125 C 13.867188 -20.285156 14.25 -20.253906 14.625 -20.234375 C 15.007812 -20.210938 15.390625 -20.222656 15.765625 -20.265625 C 16.191406 -20.347656 16.601562 -20.429688 17 -20.515625 C 17.40625 -20.597656 17.796875 -20.722656 18.171875 -20.890625 C 18.804688 -21.148438 19.226562 -21.578125 19.4375 -22.171875 C 19.519531 -22.296875 19.59375 -22.421875 19.65625 -22.546875 C 19.726562 -22.671875 19.785156 -22.816406 19.828125 -22.984375 C 20.535156 -24.335938 20.914062 -25.753906 20.96875 -27.234375 C 21.007812 -27.828125 21.039062 -28.394531 21.0625 -28.9375 C 21.082031 -29.488281 21.070312 -30.039062 21.03125 -30.59375 C 21.03125 -31.8125 20.796875 -32.90625 20.328125 -33.875 C 20.117188 -34.257812 19.820312 -34.554688 19.4375 -34.765625 C 18.632812 -35.191406 17.8125 -35.425781 16.96875 -35.46875 C 16.375 -35.507812 15.769531 -35.519531 15.15625 -35.5 C 14.550781 -35.476562 13.953125 -35.46875 13.359375 -35.46875 C 13.023438 -35.46875 12.75 -35.296875 12.53125 -34.953125 C 12.488281 -34.867188 12.445312 -34.773438 12.40625 -34.671875 C 12.363281 -34.566406 12.34375 -34.453125 12.34375 -34.328125 C 12.300781 -34.023438 12.257812 -33.707031 12.21875 -33.375 C 12.175781 -33.039062 12.15625 -32.703125 12.15625 -32.359375 C 12.15625 -31.140625 12.164062 -29.894531 12.1875 -28.625 C 12.207031 -27.351562 12.238281 -26.109375 12.28125 -24.890625 Z M 12.28125 -24.890625 "/></g></g></g><g fill="#003049" fill-opacity="1"><g transform="translate(38.635463, 62.369723)"><g><path d="M 2.53125 -20.453125 C 2.613281 -22.015625 2.738281 -23.515625 2.90625 -24.953125 C 3 -25.410156 3.054688 -25.894531 3.078125 -26.40625 C 3.097656 -26.914062 3.128906 -27.398438 3.171875 -27.859375 C 3.296875 -29.046875 3.472656 -30.207031 3.703125 -31.34375 C 3.929688 -32.488281 4.238281 -33.609375 4.625 -34.703125 C 4.875 -35.421875 5.15625 -36.128906 5.46875 -36.828125 C 5.789062 -37.523438 6.164062 -38.1875 6.59375 -38.8125 C 7.09375 -39.613281 7.679688 -40.320312 8.359375 -40.9375 C 9.035156 -41.550781 9.773438 -42.132812 10.578125 -42.6875 C 10.953125 -42.976562 11.359375 -43.238281 11.796875 -43.46875 C 12.242188 -43.707031 12.679688 -43.910156 13.109375 -44.078125 C 14.335938 -44.585938 15.582031 -44.84375 16.84375 -44.84375 C 17.4375 -44.882812 18.046875 -44.90625 18.671875 -44.90625 C 19.304688 -44.90625 19.941406 -44.859375 20.578125 -44.765625 C 21.253906 -44.722656 22.054688 -44.554688 22.984375 -44.265625 C 22.984375 -44.265625 22.992188 -44.265625 23.015625 -44.265625 C 23.035156 -44.265625 23.046875 -44.265625 23.046875 -44.265625 C 23.597656 -43.972656 24.144531 -43.695312 24.6875 -43.4375 C 25.238281 -43.1875 25.769531 -42.894531 26.28125 -42.5625 C 26.789062 -42.21875 27.234375 -41.832031 27.609375 -41.40625 C 27.992188 -40.988281 28.351562 -40.550781 28.6875 -40.09375 C 30.164062 -38.1875 31.15625 -36.007812 31.65625 -33.5625 C 31.914062 -32.25 32.179688 -30.914062 32.453125 -29.5625 C 32.734375 -28.21875 32.894531 -26.867188 32.9375 -25.515625 C 32.976562 -24.796875 33 -24.054688 33 -23.296875 C 33 -22.546875 33 -21.8125 33 -21.09375 C 33 -21.007812 32.976562 -20.941406 32.9375 -20.890625 C 32.757812 -20.265625 32.660156 -19.625 32.640625 -18.96875 C 32.617188 -18.3125 32.523438 -17.664062 32.359375 -17.03125 C 32.109375 -15.8125 31.820312 -14.585938 31.5 -13.359375 C 31.1875 -12.140625 30.773438 -10.957031 30.265625 -9.8125 C 30.054688 -9.351562 29.847656 -8.867188 29.640625 -8.359375 C 29.335938 -7.679688 28.992188 -7.015625 28.609375 -6.359375 C 28.234375 -5.710938 27.835938 -5.070312 27.421875 -4.4375 C 27.085938 -3.882812 26.675781 -3.394531 26.1875 -2.96875 C 25.695312 -2.550781 25.179688 -2.175781 24.640625 -1.84375 C 24.503906 -1.707031 24.363281 -1.585938 24.21875 -1.484375 C 24.070312 -1.378906 23.914062 -1.285156 23.75 -1.203125 C 23.582031 -1.078125 23.410156 -0.960938 23.234375 -0.859375 C 23.066406 -0.753906 22.898438 -0.65625 22.734375 -0.5625 C 22.523438 -0.476562 22.300781 -0.382812 22.0625 -0.28125 C 21.832031 -0.175781 21.613281 -0.0820312 21.40625 0 C 20.976562 0.207031 20.519531 0.34375 20.03125 0.40625 C 19.550781 0.46875 19.082031 0.519531 18.625 0.5625 C 17.945312 0.613281 17.25 0.613281 16.53125 0.5625 C 15.8125 0.519531 15.09375 0.4375 14.375 0.3125 C 13.695312 0.1875 13.03125 0.0507812 12.375 -0.09375 C 11.726562 -0.238281 11.109375 -0.503906 10.515625 -0.890625 C 9.921875 -1.347656 9.328125 -1.804688 8.734375 -2.265625 C 8.148438 -2.734375 7.625 -3.265625 7.15625 -3.859375 C 5.976562 -5.421875 5.050781 -7.046875 4.375 -8.734375 C 3.945312 -9.835938 3.628906 -10.945312 3.421875 -12.0625 C 3.210938 -13.175781 3.0625 -14.304688 2.96875 -15.453125 C 2.96875 -15.785156 2.9375 -16.097656 2.875 -16.390625 C 2.8125 -16.691406 2.78125 -16.988281 2.78125 -17.28125 C 2.738281 -17.832031 2.695312 -18.367188 2.65625 -18.890625 C 2.613281 -19.421875 2.570312 -19.941406 2.53125 -20.453125 Z M 24.1875 -22.546875 C 24.1875 -22.921875 24.195312 -23.296875 24.21875 -23.671875 C 24.238281 -24.054688 24.226562 -24.441406 24.1875 -24.828125 C 24.101562 -25.878906 23.96875 -26.921875 23.78125 -27.953125 C 23.59375 -28.992188 23.328125 -30.019531 22.984375 -31.03125 C 22.648438 -32.164062 22.144531 -33.203125 21.46875 -34.140625 C 21.425781 -34.179688 21.382812 -34.222656 21.34375 -34.265625 C 21.300781 -34.304688 21.257812 -34.347656 21.21875 -34.390625 C 20.15625 -35.191406 18.972656 -35.59375 17.671875 -35.59375 C 16.316406 -35.507812 15.195312 -34.957031 14.3125 -33.9375 C 13.507812 -33.007812 12.875 -31.984375 12.40625 -30.859375 C 11.945312 -29.742188 11.566406 -28.597656 11.265625 -27.421875 C 11.097656 -26.867188 10.992188 -26.328125 10.953125 -25.796875 C 10.910156 -25.273438 10.867188 -24.738281 10.828125 -24.1875 C 10.742188 -22.75 10.722656 -21.300781 10.765625 -19.84375 C 10.804688 -18.394531 10.953125 -16.953125 11.203125 -15.515625 C 11.335938 -14.835938 11.5 -14.160156 11.6875 -13.484375 C 11.875 -12.804688 12.113281 -12.15625 12.40625 -11.53125 C 13.082031 -10.21875 14.078125 -9.375 15.390625 -9 C 15.804688 -8.90625 16.238281 -8.816406 16.6875 -8.734375 C 17.132812 -8.648438 17.566406 -8.585938 17.984375 -8.546875 C 18.492188 -8.503906 18.988281 -8.554688 19.46875 -8.703125 C 19.957031 -8.847656 20.410156 -9.050781 20.828125 -9.3125 C 21.585938 -9.726562 22.097656 -10.398438 22.359375 -11.328125 C 22.691406 -12.179688 22.953125 -13.039062 23.140625 -13.90625 C 23.335938 -14.769531 23.519531 -15.644531 23.6875 -16.53125 C 23.894531 -17.5 24.019531 -18.488281 24.0625 -19.5 C 24.101562 -20.519531 24.144531 -21.535156 24.1875 -22.546875 Z M 24.1875 -22.546875 "/></g></g></g><g fill="#003049" fill-opacity="1"><g transform="translate(80.9411, 62.369723)"><g><path d="M 11.015625 -43.890625 C 11.941406 -43.890625 12.847656 -43.878906 13.734375 -43.859375 C 14.628906 -43.835938 15.5 -43.828125 16.34375 -43.828125 C 17.0625 -43.785156 17.753906 -43.753906 18.421875 -43.734375 C 19.097656 -43.710938 19.773438 -43.679688 20.453125 -43.640625 C 20.535156 -43.640625 20.609375 -43.640625 20.671875 -43.640625 C 20.734375 -43.640625 20.785156 -43.640625 20.828125 -43.640625 C 21.765625 -43.460938 22.664062 -43.21875 23.53125 -42.90625 C 24.394531 -42.59375 25.164062 -42.078125 25.84375 -41.359375 C 26.300781 -40.929688 26.707031 -40.484375 27.0625 -40.015625 C 27.425781 -39.554688 27.710938 -39.050781 27.921875 -38.5 C 28.140625 -38.039062 28.332031 -37.585938 28.5 -37.140625 C 28.664062 -36.703125 28.832031 -36.25 29 -35.78125 C 29.039062 -35.65625 29.070312 -35.523438 29.09375 -35.390625 C 29.113281 -35.265625 29.144531 -35.140625 29.1875 -35.015625 C 29.320312 -34.335938 29.453125 -33.671875 29.578125 -33.015625 C 29.703125 -32.367188 29.785156 -31.707031 29.828125 -31.03125 C 29.867188 -30.3125 29.910156 -29.59375 29.953125 -28.875 C 29.992188 -28.15625 30.015625 -27.4375 30.015625 -26.71875 C 30.015625 -23.851562 29.316406 -21.175781 27.921875 -18.6875 C 27.628906 -18.175781 27.3125 -17.675781 26.96875 -17.1875 C 26.632812 -16.707031 26.238281 -16.273438 25.78125 -15.890625 C 25.476562 -15.640625 25.164062 -15.40625 24.84375 -15.1875 C 24.53125 -14.976562 24.207031 -14.8125 23.875 -14.6875 C 23.445312 -14.519531 23.054688 -14.351562 22.703125 -14.1875 C 22.347656 -14.019531 21.976562 -13.828125 21.59375 -13.609375 C 21.082031 -13.316406 20.515625 -13.066406 19.890625 -12.859375 C 19.335938 -12.734375 18.753906 -12.613281 18.140625 -12.5 C 17.523438 -12.394531 16.925781 -12.300781 16.34375 -12.21875 C 16.164062 -12.175781 16.003906 -12.15625 15.859375 -12.15625 C 15.710938 -12.15625 15.554688 -12.15625 15.390625 -12.15625 C 15.003906 -12.113281 14.617188 -12.070312 14.234375 -12.03125 C 13.859375 -11.988281 13.503906 -11.945312 13.171875 -11.90625 C 12.921875 -11.90625 12.753906 -11.757812 12.671875 -11.46875 C 12.453125 -11.125 12.300781 -10.75 12.21875 -10.34375 C 12.132812 -9.945312 12.09375 -9.5625 12.09375 -9.1875 C 12.050781 -8.800781 12.039062 -8.40625 12.0625 -8 C 12.082031 -7.601562 12.070312 -7.21875 12.03125 -6.84375 C 12.03125 -6.289062 12.03125 -5.71875 12.03125 -5.125 C 12.03125 -4.539062 12.007812 -3.953125 11.96875 -3.359375 C 11.925781 -2.929688 11.863281 -2.472656 11.78125 -1.984375 C 11.695312 -1.503906 11.546875 -1.054688 11.328125 -0.640625 C 11.117188 -0.296875 10.890625 -0.0390625 10.640625 0.125 C 9.492188 0.632812 8.375 0.867188 7.28125 0.828125 C 7.113281 0.828125 6.90625 0.785156 6.65625 0.703125 C 6.3125 0.609375 5.976562 0.507812 5.65625 0.40625 C 5.34375 0.300781 5.019531 0.207031 4.6875 0.125 C 4.394531 0.0390625 4.160156 -0.0820312 3.984375 -0.25 C 3.816406 -0.414062 3.648438 -0.585938 3.484375 -0.765625 C 3.316406 -1.054688 3.15625 -1.347656 3 -1.640625 C 2.851562 -1.941406 2.800781 -2.257812 2.84375 -2.59375 C 3.019531 -4.789062 3.097656 -6.972656 3.078125 -9.140625 C 3.054688 -11.316406 3.046875 -13.503906 3.046875 -15.703125 C 3.046875 -17.816406 3.046875 -19.945312 3.046875 -22.09375 C 3.046875 -24.25 3.046875 -26.40625 3.046875 -28.5625 C 3.046875 -31.132812 2.914062 -33.75 2.65625 -36.40625 C 2.613281 -37.125 2.613281 -37.863281 2.65625 -38.625 C 2.695312 -39.382812 2.78125 -40.125 2.90625 -40.84375 C 2.945312 -40.96875 2.976562 -41.101562 3 -41.25 C 3.03125 -41.40625 3.066406 -41.566406 3.109375 -41.734375 C 3.191406 -42.367188 3.453125 -42.882812 3.890625 -43.28125 C 4.335938 -43.6875 4.878906 -43.910156 5.515625 -43.953125 C 6.179688 -43.992188 6.832031 -43.992188 7.46875 -43.953125 C 8.101562 -43.910156 8.738281 -43.890625 9.375 -43.890625 C 9.664062 -43.890625 9.945312 -43.890625 10.21875 -43.890625 C 10.5 -43.890625 10.765625 -43.890625 11.015625 -43.890625 Z M 12.28125 -24.890625 C 12.28125 -24.421875 12.28125 -23.960938 12.28125 -23.515625 C 12.28125 -23.078125 12.28125 -22.628906 12.28125 -22.171875 C 12.28125 -21.992188 12.289062 -21.84375 12.3125 -21.71875 C 12.332031 -21.59375 12.363281 -21.445312 12.40625 -21.28125 C 12.488281 -20.894531 12.582031 -20.648438 12.6875 -20.546875 C 12.800781 -20.441406 13.066406 -20.367188 13.484375 -20.328125 C 13.867188 -20.285156 14.25 -20.253906 14.625 -20.234375 C 15.007812 -20.210938 15.390625 -20.222656 15.765625 -20.265625 C 16.191406 -20.347656 16.601562 -20.429688 17 -20.515625 C 17.40625 -20.597656 17.796875 -20.722656 18.171875 -20.890625 C 18.804688 -21.148438 19.226562 -21.578125 19.4375 -22.171875 C 19.519531 -22.296875 19.59375 -22.421875 19.65625 -22.546875 C 19.726562 -22.671875 19.785156 -22.816406 19.828125 -22.984375 C 20.535156 -24.335938 20.914062 -25.753906 20.96875 -27.234375 C 21.007812 -27.828125 21.039062 -28.394531 21.0625 -28.9375 C 21.082031 -29.488281 21.070312 -30.039062 21.03125 -30.59375 C 21.03125 -31.8125 20.796875 -32.90625 20.328125 -33.875 C 20.117188 -34.257812 19.820312 -34.554688 19.4375 -34.765625 C 18.632812 -35.191406 17.8125 -35.425781 16.96875 -35.46875 C 16.375 -35.507812 15.769531 -35.519531 15.15625 -35.5 C 14.550781 -35.476562 13.953125 -35.46875 13.359375 -35.46875 C 13.023438 -35.46875 12.75 -35.296875 12.53125 -34.953125 C 12.488281 -34.867188 12.445312 -34.773438 12.40625 -34.671875 C 12.363281 -34.566406 12.34375 -34.453125 12.34375 -34.328125 C 12.300781 -34.023438 12.257812 -33.707031 12.21875 -33.375 C 12.175781 -33.039062 12.15625 -32.703125 12.15625 -32.359375 C 12.15625 -31.140625 12.164062 -29.894531 12.1875 -28.625 C 12.207031 -27.351562 12.238281 -26.109375 12.28125 -24.890625 Z M 12.28125 -24.890625 "/></g></g></g><g fill="#003049" fill-opacity="1"><g transform="translate(119.320268, 62.369723)"><g><path d="M 2.53125 -20.453125 C 2.613281 -22.015625 2.738281 -23.515625 2.90625 -24.953125 C 3 -25.410156 3.054688 -25.894531 3.078125 -26.40625 C 3.097656 -26.914062 3.128906 -27.398438 3.171875 -27.859375 C 3.296875 -29.046875 3.472656 -30.207031 3.703125 -31.34375 C 3.929688 -32.488281 4.238281 -33.609375 4.625 -34.703125 C 4.875 -35.421875 5.15625 -36.128906 5.46875 -36.828125 C 5.789062 -37.523438 6.164062 -38.1875 6.59375 -38.8125 C 7.09375 -39.613281 7.679688 -40.320312 8.359375 -40.9375 C 9.035156 -41.550781 9.773438 -42.132812 10.578125 -42.6875 C 10.953125 -42.976562 11.359375 -43.238281 11.796875 -43.46875 C 12.242188 -43.707031 12.679688 -43.910156 13.109375 -44.078125 C 14.335938 -44.585938 15.582031 -44.84375 16.84375 -44.84375 C 17.4375 -44.882812 18.046875 -44.90625 18.671875 -44.90625 C 19.304688 -44.90625 19.941406 -44.859375 20.578125 -44.765625 C 21.253906 -44.722656 22.054688 -44.554688 22.984375 -44.265625 C 22.984375 -44.265625 22.992188 -44.265625 23.015625 -44.265625 C 23.035156 -44.265625 23.046875 -44.265625 23.046875 -44.265625 C 23.597656 -43.972656 24.144531 -43.695312 24.6875 -43.4375 C 25.238281 -43.1875 25.769531 -42.894531 26.28125 -42.5625 C 26.789062 -42.21875 27.234375 -41.832031 27.609375 -41.40625 C 27.992188 -40.988281 28.351562 -40.550781 28.6875 -40.09375 C 30.164062 -38.1875 31.15625 -36.007812 31.65625 -33.5625 C 31.914062 -32.25 32.179688 -30.914062 32.453125 -29.5625 C 32.734375 -28.21875 32.894531 -26.867188 32.9375 -25.515625 C 32.976562 -24.796875 33 -24.054688 33 -23.296875 C 33 -22.546875 33 -21.8125 33 -21.09375 C 33 -21.007812 32.976562 -20.941406 32.9375 -20.890625 C 32.757812 -20.265625 32.660156 -19.625 32.640625 -18.96875 C 32.617188 -18.3125 32.523438 -17.664062 32.359375 -17.03125 C 32.109375 -15.8125 31.820312 -14.585938 31.5 -13.359375 C 31.1875 -12.140625 30.773438 -10.957031 30.265625 -9.8125 C 30.054688 -9.351562 29.847656 -8.867188 29.640625 -8.359375 C 29.335938 -7.679688 28.992188 -7.015625 28.609375 -6.359375 C 28.234375 -5.710938 27.835938 -5.070312 27.421875 -4.4375 C 27.085938 -3.882812 26.675781 -3.394531 26.1875 -2.96875 C 25.695312 -2.550781 25.179688 -2.175781 24.640625 -1.84375 C 24.503906 -1.707031 24.363281 -1.585938 24.21875 -1.484375 C 24.070312 -1.378906 23.914062 -1.285156 23.75 -1.203125 C 23.582031 -1.078125 23.410156 -0.960938 23.234375 -0.859375 C 23.066406 -0.753906 22.898438 -0.65625 22.734375 -0.5625 C 22.523438 -0.476562 22.300781 -0.382812 22.0625 -0.28125 C 21.832031 -0.175781 21.613281 -0.0820312 21.40625 0 C 20.976562 0.207031 20.519531 0.34375 20.03125 0.40625 C 19.550781 0.46875 19.082031 0.519531 18.625 0.5625 C 17.945312 0.613281 17.25 0.613281 16.53125 0.5625 C 15.8125 0.519531 15.09375 0.4375 14.375 0.3125 C 13.695312 0.1875 13.03125 0.0507812 12.375 -0.09375 C 11.726562 -0.238281 11.109375 -0.503906 10.515625 -0.890625 C 9.921875 -1.347656 9.328125 -1.804688 8.734375 -2.265625 C 8.148438 -2.734375 7.625 -3.265625 7.15625 -3.859375 C 5.976562 -5.421875 5.050781 -7.046875 4.375 -8.734375 C 3.945312 -9.835938 3.628906 -10.945312 3.421875 -12.0625 C 3.210938 -13.175781 3.0625 -14.304688 2.96875 -15.453125 C 2.96875 -15.785156 2.9375 -16.097656 2.875 -16.390625 C 2.8125 -16.691406 2.78125 -16.988281 2.78125 -17.28125 C 2.738281 -17.832031 2.695312 -18.367188 2.65625 -18.890625 C 2.613281 -19.421875 2.570312 -19.941406 2.53125 -20.453125 Z M 24.1875 -22.546875 C 24.1875 -22.921875 24.195312 -23.296875 24.21875 -23.671875 C 24.238281 -24.054688 24.226562 -24.441406 24.1875 -24.828125 C 24.101562 -25.878906 23.96875 -26.921875 23.78125 -27.953125 C 23.59375 -28.992188 23.328125 -30.019531 22.984375 -31.03125 C 22.648438 -32.164062 22.144531 -33.203125 21.46875 -34.140625 C 21.425781 -34.179688 21.382812 -34.222656 21.34375 -34.265625 C 21.300781 -34.304688 21.257812 -34.347656 21.21875 -34.390625 C 20.15625 -35.191406 18.972656 -35.59375 17.671875 -35.59375 C 16.316406 -35.507812 15.195312 -34.957031 14.3125 -33.9375 C 13.507812 -33.007812 12.875 -31.984375 12.40625 -30.859375 C 11.945312 -29.742188 11.566406 -28.597656 11.265625 -27.421875 C 11.097656 -26.867188 10.992188 -26.328125 10.953125 -25.796875 C 10.910156 -25.273438 10.867188 -24.738281 10.828125 -24.1875 C 10.742188 -22.75 10.722656 -21.300781 10.765625 -19.84375 C 10.804688 -18.394531 10.953125 -16.953125 11.203125 -15.515625 C 11.335938 -14.835938 11.5 -14.160156 11.6875 -13.484375 C 11.875 -12.804688 12.113281 -12.15625 12.40625 -11.53125 C 13.082031 -10.21875 14.078125 -9.375 15.390625 -9 C 15.804688 -8.90625 16.238281 -8.816406 16.6875 -8.734375 C 17.132812 -8.648438 17.566406 -8.585938 17.984375 -8.546875 C 18.492188 -8.503906 18.988281 -8.554688 19.46875 -8.703125 C 19.957031 -8.847656 20.410156 -9.050781 20.828125 -9.3125 C 21.585938 -9.726562 22.097656 -10.398438 22.359375 -11.328125 C 22.691406 -12.179688 22.953125 -13.039062 23.140625 -13.90625 C 23.335938 -14.769531 23.519531 -15.644531 23.6875 -16.53125 C 23.894531 -17.5 24.019531 -18.488281 24.0625 -19.5 C 24.101562 -20.519531 24.144531 -21.535156 24.1875 -22.546875 Z M 24.1875 -22.546875 "/></g></g></g><g fill="#003049" fill-opacity="1"><g transform="translate(159.852433, 62.369723)"><g><path d="M 8.171875 -14.8125 C 8.210938 -16.164062 8.242188 -17.53125 8.265625 -18.90625 C 8.285156 -20.28125 8.316406 -21.660156 8.359375 -23.046875 C 8.398438 -23.847656 8.441406 -24.648438 8.484375 -25.453125 C 8.523438 -26.253906 8.566406 -27.054688 8.609375 -27.859375 C 8.648438 -28.835938 8.660156 -29.800781 8.640625 -30.75 C 8.617188 -31.695312 8.609375 -32.65625 8.609375 -33.625 C 8.609375 -33.75 8.609375 -33.882812 8.609375 -34.03125 C 8.609375 -34.1875 8.609375 -34.328125 8.609375 -34.453125 C 8.609375 -34.660156 8.566406 -34.890625 8.484375 -35.140625 C 8.316406 -35.609375 8 -35.84375 7.53125 -35.84375 C 6.90625 -35.84375 6.273438 -35.832031 5.640625 -35.8125 C 5.003906 -35.789062 4.390625 -35.800781 3.796875 -35.84375 C 3.503906 -35.84375 3.1875 -35.875 2.84375 -35.9375 C 2.507812 -36 2.21875 -36.15625 1.96875 -36.40625 C 1.5 -36.789062 1.265625 -37.300781 1.265625 -37.9375 C 1.265625 -38.738281 1.335938 -39.53125 1.484375 -40.3125 C 1.628906 -41.09375 1.851562 -41.863281 2.15625 -42.625 C 2.363281 -43.039062 2.613281 -43.375 2.90625 -43.625 C 3.207031 -43.882812 3.585938 -44.015625 4.046875 -44.015625 C 4.679688 -44.015625 5.304688 -44.015625 5.921875 -44.015625 C 6.535156 -44.015625 7.160156 -44.015625 7.796875 -44.015625 C 8.253906 -43.972656 8.710938 -43.929688 9.171875 -43.890625 C 9.640625 -43.847656 10.085938 -43.828125 10.515625 -43.828125 C 11.734375 -43.828125 12.941406 -43.816406 14.140625 -43.796875 C 15.347656 -43.773438 16.546875 -43.765625 17.734375 -43.765625 C 18.367188 -43.765625 18.988281 -43.785156 19.59375 -43.828125 C 20.207031 -43.867188 20.8125 -43.910156 21.40625 -43.953125 C 21.738281 -43.953125 22.082031 -43.929688 22.4375 -43.890625 C 22.800781 -43.847656 23.132812 -43.738281 23.4375 -43.5625 C 23.769531 -43.394531 24.039062 -43.101562 24.25 -42.6875 C 24.332031 -42.382812 24.40625 -42.097656 24.46875 -41.828125 C 24.539062 -41.554688 24.554688 -41.269531 24.515625 -40.96875 C 24.460938 -40.46875 24.414062 -39.953125 24.375 -39.421875 C 24.332031 -38.890625 24.332031 -38.351562 24.375 -37.8125 C 24.375 -37.46875 24.238281 -37.132812 23.96875 -36.8125 C 23.695312 -36.5 23.410156 -36.300781 23.109375 -36.21875 C 22.859375 -36.175781 22.601562 -36.125 22.34375 -36.0625 C 22.09375 -36 21.820312 -35.96875 21.53125 -35.96875 C 20.9375 -35.925781 20.332031 -35.90625 19.71875 -35.90625 C 19.113281 -35.90625 18.515625 -35.882812 17.921875 -35.84375 C 17.367188 -35.84375 17.03125 -35.523438 16.90625 -34.890625 C 16.863281 -34.554688 16.820312 -34.21875 16.78125 -33.875 C 16.738281 -33.539062 16.71875 -33.207031 16.71875 -32.875 C 16.675781 -31.257812 16.65625 -29.660156 16.65625 -28.078125 C 16.65625 -26.503906 16.613281 -24.914062 16.53125 -23.3125 C 16.53125 -22.59375 16.507812 -21.863281 16.46875 -21.125 C 16.425781 -20.382812 16.382812 -19.632812 16.34375 -18.875 C 16.300781 -18.195312 16.28125 -17.519531 16.28125 -16.84375 C 16.28125 -16.164062 16.257812 -15.488281 16.21875 -14.8125 C 16.21875 -13.382812 16.21875 -11.960938 16.21875 -10.546875 C 16.21875 -9.128906 16.195312 -7.703125 16.15625 -6.265625 C 16.15625 -5.804688 16.15625 -5.34375 16.15625 -4.875 C 16.15625 -4.40625 16.109375 -3.941406 16.015625 -3.484375 C 15.972656 -3.191406 15.929688 -2.914062 15.890625 -2.65625 C 15.847656 -2.40625 15.785156 -2.15625 15.703125 -1.90625 C 15.660156 -1.726562 15.609375 -1.546875 15.546875 -1.359375 C 15.484375 -1.171875 15.410156 -0.972656 15.328125 -0.765625 C 15.203125 -0.210938 14.863281 0.164062 14.3125 0.375 C 14.144531 0.414062 13.941406 0.46875 13.703125 0.53125 C 13.472656 0.601562 13.253906 0.660156 13.046875 0.703125 C 12.660156 0.742188 12.273438 0.785156 11.890625 0.828125 C 11.515625 0.867188 11.117188 0.847656 10.703125 0.765625 C 9.515625 0.546875 8.773438 -0.0859375 8.484375 -1.140625 C 8.359375 -1.648438 8.296875 -2.15625 8.296875 -2.65625 C 8.253906 -4.6875 8.234375 -6.710938 8.234375 -8.734375 C 8.234375 -10.765625 8.234375 -12.789062 8.234375 -14.8125 C 8.191406 -14.8125 8.171875 -14.8125 8.171875 -14.8125 Z M 8.171875 -14.8125 "/></g></g></g><g fill="#003049" fill-opacity="1"><g transform="translate(192.911816, 62.369723)"><g><path d="M 2.90625 -20.765625 C 3 -22.503906 3.054688 -24.117188 3.078125 -25.609375 C 3.097656 -27.109375 3.128906 -28.597656 3.171875 -30.078125 C 3.210938 -31.429688 3.234375 -32.78125 3.234375 -34.125 C 3.234375 -35.476562 3.234375 -36.8125 3.234375 -38.125 C 3.273438 -38.332031 3.296875 -38.539062 3.296875 -38.75 C 3.296875 -38.96875 3.316406 -39.160156 3.359375 -39.328125 C 3.441406 -39.785156 3.523438 -40.257812 3.609375 -40.75 C 3.691406 -41.238281 3.773438 -41.710938 3.859375 -42.171875 C 4.242188 -43.441406 5.066406 -44.140625 6.328125 -44.265625 C 6.921875 -44.304688 7.5 -44.347656 8.0625 -44.390625 C 8.632812 -44.429688 9.195312 -44.472656 9.75 -44.515625 C 9.957031 -44.515625 10.175781 -44.515625 10.40625 -44.515625 C 10.644531 -44.515625 10.847656 -44.515625 11.015625 -44.515625 C 11.359375 -44.515625 11.707031 -44.515625 12.0625 -44.515625 C 12.425781 -44.515625 12.773438 -44.515625 13.109375 -44.515625 C 13.953125 -44.554688 14.816406 -44.578125 15.703125 -44.578125 C 16.585938 -44.578125 17.472656 -44.578125 18.359375 -44.578125 C 18.703125 -44.617188 19.050781 -44.628906 19.40625 -44.609375 C 19.769531 -44.585938 20.117188 -44.578125 20.453125 -44.578125 C 21.046875 -44.535156 21.632812 -44.515625 22.21875 -44.515625 C 22.8125 -44.515625 23.382812 -44.492188 23.9375 -44.453125 C 24.269531 -44.453125 24.503906 -44.429688 24.640625 -44.390625 C 24.847656 -44.390625 25.023438 -44.378906 25.171875 -44.359375 C 25.316406 -44.335938 25.472656 -44.328125 25.640625 -44.328125 C 26.785156 -44.328125 27.546875 -43.84375 27.921875 -42.875 C 28.054688 -42.445312 28.125 -41.984375 28.125 -41.484375 C 28.164062 -40.847656 28.1875 -40.222656 28.1875 -39.609375 C 28.1875 -38.992188 28.207031 -38.394531 28.25 -37.8125 C 28.25 -37.632812 28.238281 -37.484375 28.21875 -37.359375 C 28.195312 -37.234375 28.207031 -37.109375 28.25 -36.984375 C 28.289062 -36.773438 28.265625 -36.570312 28.171875 -36.375 C 28.085938 -36.1875 28.003906 -35.988281 27.921875 -35.78125 C 27.796875 -35.53125 27.617188 -35.367188 27.390625 -35.296875 C 27.160156 -35.234375 26.9375 -35.179688 26.71875 -35.140625 C 26.21875 -35.097656 25.722656 -35.066406 25.234375 -35.046875 C 24.753906 -35.023438 24.257812 -35.015625 23.75 -35.015625 C 22.601562 -34.972656 21.453125 -34.941406 20.296875 -34.921875 C 19.140625 -34.898438 17.988281 -34.867188 16.84375 -34.828125 C 16.082031 -34.828125 15.28125 -34.765625 14.4375 -34.640625 C 14.1875 -34.597656 13.941406 -34.515625 13.703125 -34.390625 C 13.472656 -34.265625 13.316406 -34.050781 13.234375 -33.75 C 12.722656 -32.53125 12.597656 -31.265625 12.859375 -29.953125 C 13.023438 -29.316406 13.425781 -28.875 14.0625 -28.625 C 14.351562 -28.539062 14.644531 -28.476562 14.9375 -28.4375 C 15.238281 -28.394531 15.535156 -28.375 15.828125 -28.375 C 16.753906 -28.375 17.671875 -28.375 18.578125 -28.375 C 19.492188 -28.375 20.394531 -28.375 21.28125 -28.375 C 21.875 -28.375 22.484375 -28.242188 23.109375 -27.984375 C 23.453125 -27.816406 23.644531 -27.609375 23.6875 -27.359375 C 23.9375 -26.679688 24.09375 -25.972656 24.15625 -25.234375 C 24.21875 -24.492188 24.144531 -23.765625 23.9375 -23.046875 C 23.851562 -22.796875 23.738281 -22.539062 23.59375 -22.28125 C 23.445312 -22.03125 23.285156 -21.800781 23.109375 -21.59375 C 22.898438 -21.257812 22.539062 -21.09375 22.03125 -21.09375 C 21.445312 -21.050781 20.847656 -20.984375 20.234375 -20.890625 C 19.617188 -20.804688 19.015625 -20.722656 18.421875 -20.640625 C 17.796875 -20.597656 17.164062 -20.546875 16.53125 -20.484375 C 15.894531 -20.421875 15.28125 -20.390625 14.6875 -20.390625 C 14.3125 -20.390625 13.953125 -20.238281 13.609375 -19.9375 C 13.273438 -19.644531 13.066406 -19.3125 12.984375 -18.9375 C 12.941406 -18.632812 12.910156 -18.347656 12.890625 -18.078125 C 12.867188 -17.804688 12.859375 -17.5 12.859375 -17.15625 C 12.816406 -16.226562 12.796875 -15.300781 12.796875 -14.375 C 12.796875 -13.445312 12.796875 -12.5 12.796875 -11.53125 C 12.796875 -11.269531 12.796875 -11.015625 12.796875 -10.765625 C 12.796875 -10.515625 12.816406 -10.257812 12.859375 -10 C 12.898438 -9.75 12.972656 -9.519531 13.078125 -9.3125 C 13.179688 -9.101562 13.296875 -8.890625 13.421875 -8.671875 C 13.546875 -8.503906 13.710938 -8.398438 13.921875 -8.359375 C 14.140625 -8.316406 14.332031 -8.296875 14.5 -8.296875 C 15.09375 -8.296875 15.703125 -8.296875 16.328125 -8.296875 C 16.960938 -8.296875 17.597656 -8.316406 18.234375 -8.359375 C 18.828125 -8.359375 19.441406 -8.367188 20.078125 -8.390625 C 20.710938 -8.410156 21.320312 -8.441406 21.90625 -8.484375 C 22.375 -8.484375 22.804688 -8.492188 23.203125 -8.515625 C 23.609375 -8.535156 24.019531 -8.546875 24.4375 -8.546875 C 24.820312 -8.546875 25.203125 -8.523438 25.578125 -8.484375 C 25.960938 -8.441406 26.320312 -8.335938 26.65625 -8.171875 C 26.78125 -8.128906 26.90625 -8.078125 27.03125 -8.015625 C 27.164062 -7.953125 27.273438 -7.878906 27.359375 -7.796875 C 28.203125 -7.160156 28.625 -6.3125 28.625 -5.25 C 28.625 -4.914062 28.632812 -4.578125 28.65625 -4.234375 C 28.675781 -3.898438 28.707031 -3.566406 28.75 -3.234375 C 28.75 -2.929688 28.75 -2.644531 28.75 -2.375 C 28.75 -2.101562 28.75 -1.816406 28.75 -1.515625 C 28.707031 -1.222656 28.59375 -0.957031 28.40625 -0.71875 C 28.21875 -0.488281 28.015625 -0.269531 27.796875 -0.0625 C 27.671875 0.0625 27.460938 0.125 27.171875 0.125 C 26.109375 0.164062 25.0625 0.1875 24.03125 0.1875 C 23 0.1875 21.953125 0.207031 20.890625 0.25 C 20.347656 0.25 19.8125 0.269531 19.28125 0.3125 C 18.75 0.351562 18.210938 0.375 17.671875 0.375 C 16.828125 0.414062 15.984375 0.4375 15.140625 0.4375 C 14.296875 0.4375 13.453125 0.457031 12.609375 0.5 C 12.015625 0.539062 11.410156 0.582031 10.796875 0.625 C 10.179688 0.675781 9.582031 0.722656 9 0.765625 C 8.445312 0.804688 7.875 0.816406 7.28125 0.796875 C 6.6875 0.773438 6.097656 0.695312 5.515625 0.5625 C 5.210938 0.519531 4.910156 0.445312 4.609375 0.34375 C 4.316406 0.238281 4.046875 0.101562 3.796875 -0.0625 C 3.710938 -0.144531 3.628906 -0.226562 3.546875 -0.3125 C 3.460938 -0.394531 3.398438 -0.476562 3.359375 -0.5625 C 2.972656 -1.238281 2.738281 -2 2.65625 -2.84375 C 2.613281 -3.6875 2.59375 -4.519531 2.59375 -5.34375 C 2.59375 -6.175781 2.59375 -6.992188 2.59375 -7.796875 C 2.675781 -9.441406 2.738281 -11.085938 2.78125 -12.734375 C 2.820312 -14.378906 2.863281 -16.023438 2.90625 -17.671875 C 2.945312 -18.265625 2.957031 -18.84375 2.9375 -19.40625 C 2.914062 -19.976562 2.90625 -20.429688 2.90625 -20.765625 Z M 2.90625 -20.765625 "/></g></g></g></g></g></g></g></svg>