<svg xmlns="http://www.w3.org/2000/svg" xmlns:xlink="http://www.w3.org/1999/xlink" width="500" zoomAndPan="magnify" viewBox="0 0 375 374.999991" height="500" preserveAspectRatio="xMidYMid meet" version="1.0"><defs><g/><clipPath id="ac327d9a8f"><path d="M 49.1875 112 L 325.9375 112 L 325.9375 329 L 49.1875 329 Z M 49.1875 112 " clip-rule="nonzero"/></clipPath><clipPath id="3f0b9aebc2"><path d="M 301 94 L 325.9375 94 L 325.9375 167 L 301 167 Z M 301 94 " clip-rule="nonzero"/></clipPath><clipPath id="bc3780b78c"><path d="M 96.070312 229.796875 L 153.285156 229.796875 L 153.285156 311.355469 L 96.070312 311.355469 Z M 96.070312 229.796875 " clip-rule="nonzero"/></clipPath><clipPath id="289b4c30b9"><path d="M 96.148438 273.375 C 98.324219 256.574219 98.476562 256.648438 98.476562 256.425781 C 98.699219 255.675781 97.273438 252.824219 97.425781 250.5 C 97.648438 246.898438 99.601562 239.851562 101.925781 237.148438 C 103.425781 235.425781 106.273438 235.425781 107.550781 234.300781 C 108.449219 233.476562 108.449219 232.050781 109.351562 231.601562 C 110.175781 231.148438 111.75 231.824219 112.875 231.601562 C 114 231.300781 115.125 229.875 116.175781 229.875 C 117.074219 229.949219 117.824219 231.226562 118.800781 231.523438 C 120 231.824219 121.726562 230.851562 122.851562 231.449219 C 123.976562 232.050781 124.351562 234.375 125.398438 235.425781 C 126.449219 236.398438 128.175781 236.476562 128.925781 237.523438 C 129.601562 238.574219 129.074219 240.523438 129.601562 241.800781 C 129.976562 242.851562 131.324219 243.75 131.324219 244.574219 C 131.398438 245.25 130.425781 245.625 130.273438 246.449219 C 130.050781 247.574219 131.25 249.824219 130.949219 250.875 C 130.800781 251.550781 129.898438 251.851562 129.976562 252.375 C 130.050781 252.976562 131.699219 253.351562 132 254.324219 C 132.449219 255.675781 130.726562 259.648438 131.175781 260.25 C 131.324219 260.476562 131.625 260.324219 131.851562 260.398438 C 132 260.476562 132.148438 260.550781 132.300781 260.625 C 132.449219 260.699219 132.601562 260.699219 132.824219 260.851562 C 133.050781 261 133.351562 261.300781 133.726562 261.449219 C 134.023438 261.675781 134.625 262.050781 134.625 262.050781 C 134.625 262.050781 140.925781 262.050781 143.550781 263.773438 C 146.851562 266.023438 150.226562 271.5 151.726562 276.148438 C 153.300781 280.949219 153.601562 287.175781 152.476562 292.199219 C 151.351562 297.226562 149.023438 303.148438 145.125 306.300781 C 141 309.601562 131.023438 311.550781 127.726562 311.101562 C 126.300781 310.875 125.925781 309.523438 124.949219 309.375 C 123.824219 309.226562 122.550781 310.351562 121.351562 310.125 C 120.074219 309.898438 119.101562 308.625 117.449219 307.875 C 114.824219 306.523438 109.800781 306 106.726562 303.601562 C 103.199219 301.050781 99 296.101562 97.949219 292.351562 C 97.125 289.425781 99.148438 286.125 98.925781 283.5 C 98.699219 281.324219 97.050781 279 96.976562 277.574219 C 96.976562 276.824219 97.574219 276.375 97.5 275.773438 C 97.351562 275.023438 96.148438 273.375 96.148438 273.375 " clip-rule="nonzero"/></clipPath><clipPath id="73763acc75"><path d="M 0.0703125 0.796875 L 57.285156 0.796875 L 57.285156 82.355469 L 0.0703125 82.355469 Z M 0.0703125 0.796875 " clip-rule="nonzero"/></clipPath><clipPath id="a8487b0559"><path d="M 0.148438 44.375 C 2.324219 27.574219 2.476562 27.648438 2.476562 27.425781 C 2.699219 26.675781 1.273438 23.824219 1.425781 21.5 C 1.648438 17.898438 3.601562 10.851562 5.925781 8.148438 C 7.425781 6.425781 10.273438 6.425781 11.550781 5.300781 C 12.449219 4.476562 12.449219 3.050781 13.351562 2.601562 C 14.175781 2.148438 15.75 2.824219 16.875 2.601562 C 18 2.300781 19.125 0.875 20.175781 0.875 C 21.074219 0.949219 21.824219 2.226562 22.800781 2.523438 C 24 2.824219 25.726562 1.851562 26.851562 2.449219 C 27.976562 3.050781 28.351562 5.375 29.398438 6.425781 C 30.449219 7.398438 32.175781 7.476562 32.925781 8.523438 C 33.601562 9.574219 33.074219 11.523438 33.601562 12.800781 C 33.976562 13.851562 35.324219 14.75 35.324219 15.574219 C 35.398438 16.25 34.425781 16.625 34.273438 17.449219 C 34.050781 18.574219 35.25 20.824219 34.949219 21.875 C 34.800781 22.550781 33.898438 22.851562 33.976562 23.375 C 34.050781 23.976562 35.699219 24.351562 36 25.324219 C 36.449219 26.675781 34.726562 30.648438 35.175781 31.25 C 35.324219 31.476562 35.625 31.324219 35.851562 31.398438 C 36 31.476562 36.148438 31.550781 36.300781 31.625 C 36.449219 31.699219 36.601562 31.699219 36.824219 31.851562 C 37.050781 32 37.351562 32.300781 37.726562 32.449219 C 38.023438 32.675781 38.625 33.050781 38.625 33.050781 C 38.625 33.050781 44.925781 33.050781 47.550781 34.773438 C 50.851562 37.023438 54.226562 42.5 55.726562 47.148438 C 57.300781 51.949219 57.601562 58.175781 56.476562 63.199219 C 55.351562 68.226562 53.023438 74.148438 49.125 77.300781 C 45 80.601562 35.023438 82.550781 31.726562 82.101562 C 30.300781 81.875 29.925781 80.523438 28.949219 80.375 C 27.824219 80.226562 26.550781 81.351562 25.351562 81.125 C 24.074219 80.898438 23.101562 79.625 21.449219 78.875 C 18.824219 77.523438 13.800781 77 10.726562 74.601562 C 7.199219 72.050781 3 67.101562 1.949219 63.351562 C 1.125 60.425781 3.148438 57.125 2.925781 54.5 C 2.699219 52.324219 1.050781 50 0.976562 48.574219 C 0.976562 47.824219 1.574219 47.375 1.5 46.773438 C 1.351562 46.023438 0.148438 44.375 0.148438 44.375 " clip-rule="nonzero"/></clipPath><clipPath id="2887d156a3"><rect x="0" width="58" y="0" height="83"/></clipPath><clipPath id="0bbe761cd8"><rect x="0" width="174" y="0" height="65"/></clipPath></defs><rect x="-37.5" width="450" fill="#ffffff" y="-37.499999" height="449.999989" fill-opacity="1"/><rect x="-37.5" width="450" fill="#ffffff" y="-37.499999" height="449.999989" fill-opacity="1"/><path fill="#003049" d="M 205.566406 142.285156 L 211.757812 118.371094 L 163.503906 118.371094 L 169.695312 142.285156 Z M 205.566406 142.285156 " fill-opacity="1" fill-rule="nonzero"/><path fill="#f77f00" d="M 85.574219 190.320312 L 289.683594 190.320312 L 289.683594 286.398438 C 289.683594 306.253906 273.457031 322.480469 253.601562 322.480469 L 121.65625 322.480469 C 101.800781 322.480469 85.574219 306.253906 85.574219 286.398438 Z M 85.574219 190.320312 " fill-opacity="1" fill-rule="nonzero"/><path fill="#003049" d="M 85.574219 190.320312 L 289.683594 190.320312 L 289.683594 214.234375 L 85.574219 214.234375 Z M 85.574219 190.320312 " fill-opacity="1" fill-rule="nonzero"/><path fill="#f77f00" d="M 289.683594 190.320312 C 289.683594 190.320312 289.683594 142.285156 187.628906 142.285156 C 85.574219 142.285156 85.574219 190.320312 85.574219 190.320312 Z M 289.683594 190.320312 " fill-opacity="1" fill-rule="nonzero"/><g clip-path="url(#ac327d9a8f)"><path fill="#000000" d="M 79.597656 231.957031 L 79.597656 286.398438 C 79.597656 309.671875 98.386719 328.457031 121.65625 328.457031 L 253.816406 328.457031 C 277.089844 328.457031 295.875 309.671875 295.875 286.398438 L 295.875 231.957031 C 309.113281 230.675781 325.980469 224.695312 325.980469 208.257812 C 325.980469 191.601562 308.472656 185.625 295.234375 184.558594 C 292.246094 171.960938 278.371094 143.351562 213.464844 137.375 L 217.949219 119.652344 C 218.800781 116.449219 216.878906 113.246094 213.679688 112.394531 C 213.25 112.179688 212.609375 112.179688 212.183594 112.179688 L 163.503906 112.179688 C 160.089844 112.179688 157.527344 114.957031 157.527344 118.15625 C 157.527344 118.585938 157.527344 119.226562 157.738281 119.652344 L 162.222656 137.375 C 97.320312 143.351562 83.441406 171.960938 80.453125 184.558594 C 67 185.839844 49.492188 191.601562 49.492188 208.257812 C 49.492188 224.695312 66.359375 230.675781 79.597656 231.957031 Z M 283.707031 208.257812 L 91.554688 208.257812 L 91.554688 196.300781 L 283.707031 196.300781 Z M 253.601562 316.503906 L 121.65625 316.503906 C 105.003906 316.503906 91.554688 303.050781 91.554688 286.398438 L 91.554688 220.425781 L 283.707031 220.425781 L 283.707031 286.398438 C 283.707031 303.050781 270.257812 316.503906 253.601562 316.503906 Z M 313.8125 208.257812 C 313.8125 216.15625 302.921875 218.929688 295.875 219.785156 L 295.875 196.726562 C 302.921875 197.792969 313.8125 200.570312 313.8125 208.257812 Z M 171.402344 124.347656 L 204.070312 124.347656 L 201.082031 136.734375 C 196.8125 136.519531 192.542969 136.519531 187.84375 136.519531 C 183.148438 136.519531 178.875 136.734375 174.605469 136.734375 Z M 187.628906 148.261719 C 259.367188 148.261719 277.515625 172.601562 282.210938 184.34375 L 92.835938 184.34375 C 97.320312 172.601562 114.824219 148.261719 187.628906 148.261719 Z M 79.597656 196.726562 L 79.597656 219.785156 C 72.550781 218.929688 61.664062 216.15625 61.664062 208.257812 C 61.664062 200.355469 72.339844 197.792969 79.597656 196.726562 Z M 79.597656 196.726562 " fill-opacity="1" fill-rule="nonzero"/></g><path fill="#000000" d="M 133.613281 292.375 L 121.65625 292.375 C 118.242188 292.375 115.679688 289.601562 115.679688 286.398438 L 115.679688 262.484375 C 115.679688 259.070312 112.902344 256.507812 109.703125 256.507812 C 106.5 256.507812 103.722656 259.285156 103.722656 262.484375 L 103.722656 286.398438 C 103.722656 296.433594 111.835938 304.332031 121.65625 304.332031 L 133.613281 304.332031 C 137.03125 304.332031 139.59375 301.558594 139.59375 298.355469 C 139.59375 295.152344 136.816406 292.375 133.613281 292.375 Z M 133.613281 292.375 " fill-opacity="1" fill-rule="nonzero"/><path fill="#000000" d="M 103.511719 238.359375 L 115.464844 238.359375 L 115.464844 250.316406 L 103.511719 250.316406 Z M 103.511719 238.359375 " fill-opacity="1" fill-rule="nonzero"/><path fill="#000000" d="M 91.554688 112.179688 C 91.554688 115.597656 94.328125 118.15625 97.53125 118.15625 C 100.734375 118.15625 103.511719 115.382812 103.511719 112.179688 C 103.296875 106.84375 105.21875 101.71875 108.421875 97.449219 C 113.117188 91.257812 115.464844 83.785156 115.464844 76.097656 C 116.320312 64.140625 110.34375 52.824219 100.09375 46.632812 C 97.105469 45.140625 93.6875 46.421875 92.195312 49.195312 C 90.699219 52.183594 91.765625 55.816406 94.757812 57.308594 C 100.949219 61.578125 104.152344 68.625 103.511719 76.097656 C 103.722656 81.433594 101.800781 86.558594 98.597656 90.828125 C 93.902344 97.019531 91.339844 104.492188 91.554688 112.179688 Z M 91.554688 112.179688 " fill-opacity="1" fill-rule="nonzero"/><path fill="#000000" d="M 247.625 124.347656 C 247.625 127.765625 250.402344 130.328125 253.601562 130.328125 C 256.804688 130.328125 259.582031 127.550781 259.582031 124.347656 C 259.367188 119.011719 261.289062 113.886719 264.492188 109.617188 C 269.1875 103.425781 271.539062 95.953125 271.539062 88.265625 C 272.390625 76.3125 266.414062 64.996094 256.164062 58.804688 C 253.175781 57.308594 249.761719 58.589844 248.265625 61.367188 C 246.769531 64.355469 247.839844 67.984375 250.828125 69.480469 C 257.019531 73.75 260.222656 80.792969 259.582031 88.265625 C 259.792969 93.605469 257.875 98.730469 254.671875 103 C 249.972656 108.976562 247.625 116.664062 247.625 124.347656 Z M 247.625 124.347656 " fill-opacity="1" fill-rule="nonzero"/><g clip-path="url(#3f0b9aebc2)"><path fill="#000000" d="M 301.640625 160.21875 C 301.640625 163.632812 304.417969 166.195312 307.621094 166.195312 C 310.820312 166.195312 313.597656 163.421875 313.597656 160.21875 C 313.382812 154.878906 315.304688 149.757812 318.507812 145.484375 C 323.207031 139.292969 325.554688 131.820312 325.554688 124.136719 C 326.40625 112.179688 320.429688 100.863281 310.179688 94.671875 C 307.191406 93.179688 303.777344 94.457031 302.28125 97.234375 C 300.789062 100.222656 301.855469 103.851562 304.84375 105.347656 C 311.035156 109.617188 314.238281 116.664062 313.597656 124.136719 C 313.8125 129.472656 311.890625 134.597656 308.6875 138.867188 C 303.988281 145.058594 301.640625 152.53125 301.640625 160.21875 Z M 301.640625 160.21875 " fill-opacity="1" fill-rule="nonzero"/></g><g clip-path="url(#bc3780b78c)"><g clip-path="url(#289b4c30b9)"><g transform="matrix(1, 0, 0, 1, 96, 229)"><g clip-path="url(#2887d156a3)"><g clip-path="url(#73763acc75)"><g clip-path="url(#a8487b0559)"><rect x="-178.5" width="540" fill="#f77f00" height="539.999987" y="-311.499998" fill-opacity="1"/></g></g></g></g></g></g><g transform="matrix(1, 0, 0, 1, 102, 236)"><g clip-path="url(#0bbe761cd8)"><g fill="#003049" fill-opacity="0.4"><g transform="translate(2.403649, 49.192562)"><g><path d="M 8.375 -33.328125 C 9.070312 -33.328125 9.757812 -33.316406 10.4375 -33.296875 C 11.113281 -33.285156 11.769531 -33.28125 12.40625 -33.28125 C 12.945312 -33.25 13.472656 -33.222656 13.984375 -33.203125 C 14.503906 -33.191406 15.019531 -33.171875 15.53125 -33.140625 C 15.59375 -33.140625 15.648438 -33.140625 15.703125 -33.140625 C 15.753906 -33.140625 15.796875 -33.140625 15.828125 -33.140625 C 16.523438 -33.003906 17.203125 -32.816406 17.859375 -32.578125 C 18.523438 -32.335938 19.113281 -31.945312 19.625 -31.40625 C 19.976562 -31.082031 20.289062 -30.742188 20.5625 -30.390625 C 20.832031 -30.035156 21.046875 -29.648438 21.203125 -29.234375 C 21.367188 -28.890625 21.515625 -28.546875 21.640625 -28.203125 C 21.765625 -27.867188 21.894531 -27.523438 22.03125 -27.171875 C 22.0625 -27.078125 22.082031 -26.976562 22.09375 -26.875 C 22.113281 -26.78125 22.140625 -26.6875 22.171875 -26.59375 C 22.265625 -26.082031 22.359375 -25.578125 22.453125 -25.078125 C 22.554688 -24.578125 22.625 -24.070312 22.65625 -23.5625 C 22.6875 -23.019531 22.71875 -22.472656 22.75 -21.921875 C 22.78125 -21.378906 22.796875 -20.835938 22.796875 -20.296875 C 22.796875 -18.117188 22.265625 -16.082031 21.203125 -14.1875 C 20.984375 -13.800781 20.742188 -13.421875 20.484375 -13.046875 C 20.234375 -12.679688 19.929688 -12.359375 19.578125 -12.078125 C 19.347656 -11.878906 19.113281 -11.695312 18.875 -11.53125 C 18.632812 -11.375 18.382812 -11.25 18.125 -11.15625 C 17.8125 -11.03125 17.515625 -10.898438 17.234375 -10.765625 C 16.960938 -10.640625 16.6875 -10.5 16.40625 -10.34375 C 16.019531 -10.113281 15.582031 -9.921875 15.09375 -9.765625 C 14.675781 -9.671875 14.234375 -9.582031 13.765625 -9.5 C 13.304688 -9.414062 12.851562 -9.34375 12.40625 -9.28125 C 12.28125 -9.25 12.160156 -9.234375 12.046875 -9.234375 C 11.929688 -9.234375 11.8125 -9.234375 11.6875 -9.234375 C 11.394531 -9.203125 11.101562 -9.171875 10.8125 -9.140625 C 10.53125 -9.109375 10.257812 -9.078125 10 -9.046875 C 9.8125 -9.046875 9.6875 -8.929688 9.625 -8.703125 C 9.457031 -8.441406 9.34375 -8.160156 9.28125 -7.859375 C 9.21875 -7.554688 9.1875 -7.257812 9.1875 -6.96875 C 9.15625 -6.6875 9.144531 -6.390625 9.15625 -6.078125 C 9.175781 -5.773438 9.171875 -5.476562 9.140625 -5.1875 C 9.140625 -4.769531 9.140625 -4.335938 9.140625 -3.890625 C 9.140625 -3.441406 9.125 -2.992188 9.09375 -2.546875 C 9.0625 -2.222656 9.007812 -1.878906 8.9375 -1.515625 C 8.875 -1.148438 8.765625 -0.804688 8.609375 -0.484375 C 8.453125 -0.222656 8.273438 -0.03125 8.078125 0.09375 C 7.210938 0.476562 6.363281 0.65625 5.53125 0.625 C 5.40625 0.625 5.242188 0.59375 5.046875 0.53125 C 4.796875 0.46875 4.546875 0.394531 4.296875 0.3125 C 4.054688 0.226562 3.8125 0.15625 3.5625 0.09375 C 3.332031 0.03125 3.15625 -0.0625 3.03125 -0.1875 C 2.90625 -0.320312 2.773438 -0.453125 2.640625 -0.578125 C 2.515625 -0.796875 2.394531 -1.019531 2.28125 -1.25 C 2.164062 -1.476562 2.128906 -1.71875 2.171875 -1.96875 C 2.296875 -3.632812 2.347656 -5.289062 2.328125 -6.9375 C 2.316406 -8.59375 2.3125 -10.253906 2.3125 -11.921875 C 2.3125 -13.523438 2.3125 -15.144531 2.3125 -16.78125 C 2.3125 -18.414062 2.3125 -20.050781 2.3125 -21.6875 C 2.3125 -23.644531 2.210938 -25.632812 2.015625 -27.65625 C 1.984375 -28.195312 1.984375 -28.753906 2.015625 -29.328125 C 2.046875 -29.910156 2.113281 -30.472656 2.21875 -31.015625 C 2.25 -31.117188 2.269531 -31.222656 2.28125 -31.328125 C 2.300781 -31.441406 2.328125 -31.5625 2.359375 -31.6875 C 2.421875 -32.175781 2.617188 -32.570312 2.953125 -32.875 C 3.296875 -33.175781 3.707031 -33.34375 4.1875 -33.375 C 4.695312 -33.40625 5.191406 -33.40625 5.671875 -33.375 C 6.148438 -33.34375 6.632812 -33.328125 7.125 -33.328125 C 7.34375 -33.328125 7.554688 -33.328125 7.765625 -33.328125 C 7.972656 -33.328125 8.175781 -33.328125 8.375 -33.328125 Z M 9.328125 -18.90625 C 9.328125 -18.550781 9.328125 -18.203125 9.328125 -17.859375 C 9.328125 -17.523438 9.328125 -17.179688 9.328125 -16.828125 C 9.328125 -16.703125 9.332031 -16.59375 9.34375 -16.5 C 9.363281 -16.40625 9.390625 -16.289062 9.421875 -16.15625 C 9.484375 -15.875 9.554688 -15.691406 9.640625 -15.609375 C 9.722656 -15.523438 9.925781 -15.46875 10.25 -15.4375 C 10.53125 -15.40625 10.816406 -15.378906 11.109375 -15.359375 C 11.398438 -15.347656 11.6875 -15.359375 11.96875 -15.390625 C 12.289062 -15.453125 12.601562 -15.515625 12.90625 -15.578125 C 13.21875 -15.640625 13.515625 -15.738281 13.796875 -15.875 C 14.285156 -16.0625 14.609375 -16.378906 14.765625 -16.828125 C 14.828125 -16.929688 14.878906 -17.03125 14.921875 -17.125 C 14.972656 -17.21875 15.015625 -17.328125 15.046875 -17.453125 C 15.597656 -18.484375 15.890625 -19.5625 15.921875 -20.6875 C 15.953125 -21.132812 15.972656 -21.566406 15.984375 -21.984375 C 16.003906 -22.398438 16 -22.816406 15.96875 -23.234375 C 15.96875 -24.160156 15.789062 -24.992188 15.4375 -25.734375 C 15.28125 -26.015625 15.054688 -26.238281 14.765625 -26.40625 C 14.148438 -26.726562 13.523438 -26.90625 12.890625 -26.9375 C 12.441406 -26.96875 11.984375 -26.972656 11.515625 -26.953125 C 11.054688 -26.941406 10.597656 -26.9375 10.140625 -26.9375 C 9.890625 -26.9375 9.679688 -26.804688 9.515625 -26.546875 C 9.484375 -26.484375 9.453125 -26.410156 9.421875 -26.328125 C 9.390625 -26.253906 9.375 -26.164062 9.375 -26.0625 C 9.34375 -25.84375 9.3125 -25.601562 9.28125 -25.34375 C 9.25 -25.082031 9.234375 -24.828125 9.234375 -24.578125 C 9.234375 -23.648438 9.238281 -22.703125 9.25 -21.734375 C 9.269531 -20.773438 9.296875 -19.832031 9.328125 -18.90625 Z M 9.328125 -18.90625 "/></g></g></g><g fill="#003049" fill-opacity="0.4"><g transform="translate(31.543249, 49.192562)"><g><path d="M 1.921875 -15.53125 C 1.984375 -16.71875 2.082031 -17.859375 2.21875 -18.953125 C 2.28125 -19.304688 2.316406 -19.671875 2.328125 -20.046875 C 2.347656 -20.429688 2.375 -20.800781 2.40625 -21.15625 C 2.5 -22.0625 2.632812 -22.945312 2.8125 -23.8125 C 2.988281 -24.675781 3.222656 -25.523438 3.515625 -26.359375 C 3.703125 -26.898438 3.914062 -27.4375 4.15625 -27.96875 C 4.394531 -28.5 4.675781 -29.003906 5 -29.484375 C 5.382812 -30.085938 5.832031 -30.625 6.34375 -31.09375 C 6.863281 -31.5625 7.425781 -32.003906 8.03125 -32.421875 C 8.320312 -32.640625 8.632812 -32.835938 8.96875 -33.015625 C 9.300781 -33.191406 9.628906 -33.34375 9.953125 -33.46875 C 10.878906 -33.851562 11.828125 -34.046875 12.796875 -34.046875 C 13.242188 -34.078125 13.707031 -34.09375 14.1875 -34.09375 C 14.664062 -34.09375 15.144531 -34.0625 15.625 -34 C 16.144531 -33.96875 16.753906 -33.84375 17.453125 -33.625 C 17.453125 -33.625 17.457031 -33.625 17.46875 -33.625 C 17.488281 -33.625 17.5 -33.625 17.5 -33.625 C 17.914062 -33.394531 18.332031 -33.179688 18.75 -32.984375 C 19.164062 -32.796875 19.566406 -32.570312 19.953125 -32.3125 C 20.335938 -32.0625 20.675781 -31.773438 20.96875 -31.453125 C 21.257812 -31.128906 21.53125 -30.789062 21.78125 -30.4375 C 22.90625 -29 23.660156 -27.347656 24.046875 -25.484375 C 24.234375 -24.492188 24.429688 -23.484375 24.640625 -22.453125 C 24.847656 -21.429688 24.972656 -20.40625 25.015625 -19.375 C 25.046875 -18.832031 25.0625 -18.269531 25.0625 -17.6875 C 25.0625 -17.113281 25.0625 -16.554688 25.0625 -16.015625 C 25.0625 -15.953125 25.046875 -15.90625 25.015625 -15.875 C 24.878906 -15.394531 24.800781 -14.90625 24.78125 -14.40625 C 24.769531 -13.90625 24.703125 -13.414062 24.578125 -12.9375 C 24.378906 -12.007812 24.160156 -11.078125 23.921875 -10.140625 C 23.679688 -9.210938 23.367188 -8.316406 22.984375 -7.453125 C 22.828125 -7.097656 22.671875 -6.726562 22.515625 -6.34375 C 22.285156 -5.832031 22.023438 -5.328125 21.734375 -4.828125 C 21.453125 -4.335938 21.148438 -3.847656 20.828125 -3.359375 C 20.566406 -2.941406 20.25 -2.570312 19.875 -2.25 C 19.507812 -1.9375 19.117188 -1.648438 18.703125 -1.390625 C 18.609375 -1.296875 18.503906 -1.207031 18.390625 -1.125 C 18.285156 -1.050781 18.164062 -0.976562 18.03125 -0.90625 C 17.90625 -0.8125 17.773438 -0.722656 17.640625 -0.640625 C 17.515625 -0.566406 17.390625 -0.5 17.265625 -0.4375 C 17.109375 -0.375 16.941406 -0.300781 16.765625 -0.21875 C 16.585938 -0.132812 16.414062 -0.0625 16.25 0 C 15.9375 0.15625 15.59375 0.257812 15.21875 0.3125 C 14.851562 0.363281 14.492188 0.40625 14.140625 0.4375 C 13.628906 0.46875 13.097656 0.46875 12.546875 0.4375 C 12.003906 0.40625 11.460938 0.335938 10.921875 0.234375 C 10.398438 0.140625 9.890625 0.0390625 9.390625 -0.0625 C 8.898438 -0.175781 8.429688 -0.378906 7.984375 -0.671875 C 7.535156 -1.023438 7.085938 -1.378906 6.640625 -1.734375 C 6.191406 -2.085938 5.789062 -2.488281 5.4375 -2.9375 C 4.539062 -4.125 3.832031 -5.359375 3.3125 -6.640625 C 3 -7.472656 2.757812 -8.3125 2.59375 -9.15625 C 2.4375 -10.007812 2.328125 -10.867188 2.265625 -11.734375 C 2.265625 -11.992188 2.238281 -12.234375 2.1875 -12.453125 C 2.132812 -12.679688 2.109375 -12.90625 2.109375 -13.125 C 2.078125 -13.539062 2.046875 -13.945312 2.015625 -14.34375 C 1.984375 -14.75 1.953125 -15.144531 1.921875 -15.53125 Z M 18.375 -17.125 C 18.375 -17.40625 18.378906 -17.691406 18.390625 -17.984375 C 18.410156 -18.273438 18.40625 -18.566406 18.375 -18.859375 C 18.3125 -19.660156 18.207031 -20.453125 18.0625 -21.234375 C 17.914062 -22.015625 17.710938 -22.789062 17.453125 -23.5625 C 17.203125 -24.425781 16.816406 -25.210938 16.296875 -25.921875 C 16.265625 -25.953125 16.234375 -25.984375 16.203125 -26.015625 C 16.171875 -26.046875 16.140625 -26.078125 16.109375 -26.109375 C 15.304688 -26.722656 14.410156 -27.03125 13.421875 -27.03125 C 12.390625 -26.96875 11.539062 -26.550781 10.875 -25.78125 C 10.257812 -25.070312 9.773438 -24.289062 9.421875 -23.4375 C 9.066406 -22.59375 8.78125 -21.722656 8.5625 -20.828125 C 8.4375 -20.410156 8.351562 -20 8.3125 -19.59375 C 8.28125 -19.195312 8.25 -18.789062 8.21875 -18.375 C 8.15625 -17.28125 8.140625 -16.179688 8.171875 -15.078125 C 8.203125 -13.972656 8.316406 -12.875 8.515625 -11.78125 C 8.609375 -11.269531 8.726562 -10.753906 8.875 -10.234375 C 9.019531 -9.722656 9.203125 -9.226562 9.421875 -8.75 C 9.941406 -7.757812 10.695312 -7.117188 11.6875 -6.828125 C 12.007812 -6.765625 12.335938 -6.703125 12.671875 -6.640625 C 13.003906 -6.578125 13.332031 -6.53125 13.65625 -6.5 C 14.039062 -6.457031 14.414062 -6.492188 14.78125 -6.609375 C 15.15625 -6.722656 15.503906 -6.875 15.828125 -7.0625 C 16.398438 -7.382812 16.785156 -7.898438 16.984375 -8.609375 C 17.234375 -9.253906 17.429688 -9.90625 17.578125 -10.5625 C 17.722656 -11.21875 17.859375 -11.878906 17.984375 -12.546875 C 18.148438 -13.285156 18.25 -14.039062 18.28125 -14.8125 C 18.3125 -15.582031 18.34375 -16.351562 18.375 -17.125 Z M 18.375 -17.125 "/></g></g></g><g fill="#003049" fill-opacity="0.4"><g transform="translate(63.664019, 49.192562)"><g><path d="M 8.375 -33.328125 C 9.070312 -33.328125 9.757812 -33.316406 10.4375 -33.296875 C 11.113281 -33.285156 11.769531 -33.28125 12.40625 -33.28125 C 12.945312 -33.25 13.472656 -33.222656 13.984375 -33.203125 C 14.503906 -33.191406 15.019531 -33.171875 15.53125 -33.140625 C 15.59375 -33.140625 15.648438 -33.140625 15.703125 -33.140625 C 15.753906 -33.140625 15.796875 -33.140625 15.828125 -33.140625 C 16.523438 -33.003906 17.203125 -32.816406 17.859375 -32.578125 C 18.523438 -32.335938 19.113281 -31.945312 19.625 -31.40625 C 19.976562 -31.082031 20.289062 -30.742188 20.5625 -30.390625 C 20.832031 -30.035156 21.046875 -29.648438 21.203125 -29.234375 C 21.367188 -28.890625 21.515625 -28.546875 21.640625 -28.203125 C 21.765625 -27.867188 21.894531 -27.523438 22.03125 -27.171875 C 22.0625 -27.078125 22.082031 -26.976562 22.09375 -26.875 C 22.113281 -26.78125 22.140625 -26.6875 22.171875 -26.59375 C 22.265625 -26.082031 22.359375 -25.578125 22.453125 -25.078125 C 22.554688 -24.578125 22.625 -24.070312 22.65625 -23.5625 C 22.6875 -23.019531 22.71875 -22.472656 22.75 -21.921875 C 22.78125 -21.378906 22.796875 -20.835938 22.796875 -20.296875 C 22.796875 -18.117188 22.265625 -16.082031 21.203125 -14.1875 C 20.984375 -13.800781 20.742188 -13.421875 20.484375 -13.046875 C 20.234375 -12.679688 19.929688 -12.359375 19.578125 -12.078125 C 19.347656 -11.878906 19.113281 -11.695312 18.875 -11.53125 C 18.632812 -11.375 18.382812 -11.25 18.125 -11.15625 C 17.8125 -11.03125 17.515625 -10.898438 17.234375 -10.765625 C 16.960938 -10.640625 16.6875 -10.5 16.40625 -10.34375 C 16.019531 -10.113281 15.582031 -9.921875 15.09375 -9.765625 C 14.675781 -9.671875 14.234375 -9.582031 13.765625 -9.5 C 13.304688 -9.414062 12.851562 -9.34375 12.40625 -9.28125 C 12.28125 -9.25 12.160156 -9.234375 12.046875 -9.234375 C 11.929688 -9.234375 11.8125 -9.234375 11.6875 -9.234375 C 11.394531 -9.203125 11.101562 -9.171875 10.8125 -9.140625 C 10.53125 -9.109375 10.257812 -9.078125 10 -9.046875 C 9.8125 -9.046875 9.6875 -8.929688 9.625 -8.703125 C 9.457031 -8.441406 9.34375 -8.160156 9.28125 -7.859375 C 9.21875 -7.554688 9.1875 -7.257812 9.1875 -6.96875 C 9.15625 -6.6875 9.144531 -6.390625 9.15625 -6.078125 C 9.175781 -5.773438 9.171875 -5.476562 9.140625 -5.1875 C 9.140625 -4.769531 9.140625 -4.335938 9.140625 -3.890625 C 9.140625 -3.441406 9.125 -2.992188 9.09375 -2.546875 C 9.0625 -2.222656 9.007812 -1.878906 8.9375 -1.515625 C 8.875 -1.148438 8.765625 -0.804688 8.609375 -0.484375 C 8.453125 -0.222656 8.273438 -0.03125 8.078125 0.09375 C 7.210938 0.476562 6.363281 0.65625 5.53125 0.625 C 5.40625 0.625 5.242188 0.59375 5.046875 0.53125 C 4.796875 0.46875 4.546875 0.394531 4.296875 0.3125 C 4.054688 0.226562 3.8125 0.15625 3.5625 0.09375 C 3.332031 0.03125 3.15625 -0.0625 3.03125 -0.1875 C 2.90625 -0.320312 2.773438 -0.453125 2.640625 -0.578125 C 2.515625 -0.796875 2.394531 -1.019531 2.28125 -1.25 C 2.164062 -1.476562 2.128906 -1.71875 2.171875 -1.96875 C 2.296875 -3.632812 2.347656 -5.289062 2.328125 -6.9375 C 2.316406 -8.59375 2.3125 -10.253906 2.3125 -11.921875 C 2.3125 -13.523438 2.3125 -15.144531 2.3125 -16.78125 C 2.3125 -18.414062 2.3125 -20.050781 2.3125 -21.6875 C 2.3125 -23.644531 2.210938 -25.632812 2.015625 -27.65625 C 1.984375 -28.195312 1.984375 -28.753906 2.015625 -29.328125 C 2.046875 -29.910156 2.113281 -30.472656 2.21875 -31.015625 C 2.25 -31.117188 2.269531 -31.222656 2.28125 -31.328125 C 2.300781 -31.441406 2.328125 -31.5625 2.359375 -31.6875 C 2.421875 -32.175781 2.617188 -32.570312 2.953125 -32.875 C 3.296875 -33.175781 3.707031 -33.34375 4.1875 -33.375 C 4.695312 -33.40625 5.191406 -33.40625 5.671875 -33.375 C 6.148438 -33.34375 6.632812 -33.328125 7.125 -33.328125 C 7.34375 -33.328125 7.554688 -33.328125 7.765625 -33.328125 C 7.972656 -33.328125 8.175781 -33.328125 8.375 -33.328125 Z M 9.328125 -18.90625 C 9.328125 -18.550781 9.328125 -18.203125 9.328125 -17.859375 C 9.328125 -17.523438 9.328125 -17.179688 9.328125 -16.828125 C 9.328125 -16.703125 9.332031 -16.59375 9.34375 -16.5 C 9.363281 -16.40625 9.390625 -16.289062 9.421875 -16.15625 C 9.484375 -15.875 9.554688 -15.691406 9.640625 -15.609375 C 9.722656 -15.523438 9.925781 -15.46875 10.25 -15.4375 C 10.53125 -15.40625 10.816406 -15.378906 11.109375 -15.359375 C 11.398438 -15.347656 11.6875 -15.359375 11.96875 -15.390625 C 12.289062 -15.453125 12.601562 -15.515625 12.90625 -15.578125 C 13.21875 -15.640625 13.515625 -15.738281 13.796875 -15.875 C 14.285156 -16.0625 14.609375 -16.378906 14.765625 -16.828125 C 14.828125 -16.929688 14.878906 -17.03125 14.921875 -17.125 C 14.972656 -17.21875 15.015625 -17.328125 15.046875 -17.453125 C 15.597656 -18.484375 15.890625 -19.5625 15.921875 -20.6875 C 15.953125 -21.132812 15.972656 -21.566406 15.984375 -21.984375 C 16.003906 -22.398438 16 -22.816406 15.96875 -23.234375 C 15.96875 -24.160156 15.789062 -24.992188 15.4375 -25.734375 C 15.28125 -26.015625 15.054688 -26.238281 14.765625 -26.40625 C 14.148438 -26.726562 13.523438 -26.90625 12.890625 -26.9375 C 12.441406 -26.96875 11.984375 -26.972656 11.515625 -26.953125 C 11.054688 -26.941406 10.597656 -26.9375 10.140625 -26.9375 C 9.890625 -26.9375 9.679688 -26.804688 9.515625 -26.546875 C 9.484375 -26.484375 9.453125 -26.410156 9.421875 -26.328125 C 9.390625 -26.253906 9.375 -26.164062 9.375 -26.0625 C 9.34375 -25.84375 9.3125 -25.601562 9.28125 -25.34375 C 9.25 -25.082031 9.234375 -24.828125 9.234375 -24.578125 C 9.234375 -23.648438 9.238281 -22.703125 9.25 -21.734375 C 9.269531 -20.773438 9.296875 -19.832031 9.328125 -18.90625 Z M 9.328125 -18.90625 "/></g></g></g><g fill="#003049" fill-opacity="0.4"><g transform="translate(92.803627, 49.192562)"><g><path d="M 1.921875 -15.53125 C 1.984375 -16.71875 2.082031 -17.859375 2.21875 -18.953125 C 2.28125 -19.304688 2.316406 -19.671875 2.328125 -20.046875 C 2.347656 -20.429688 2.375 -20.800781 2.40625 -21.15625 C 2.5 -22.0625 2.632812 -22.945312 2.8125 -23.8125 C 2.988281 -24.675781 3.222656 -25.523438 3.515625 -26.359375 C 3.703125 -26.898438 3.914062 -27.4375 4.15625 -27.96875 C 4.394531 -28.5 4.675781 -29.003906 5 -29.484375 C 5.382812 -30.085938 5.832031 -30.625 6.34375 -31.09375 C 6.863281 -31.5625 7.425781 -32.003906 8.03125 -32.421875 C 8.320312 -32.640625 8.632812 -32.835938 8.96875 -33.015625 C 9.300781 -33.191406 9.628906 -33.34375 9.953125 -33.46875 C 10.878906 -33.851562 11.828125 -34.046875 12.796875 -34.046875 C 13.242188 -34.078125 13.707031 -34.09375 14.1875 -34.09375 C 14.664062 -34.09375 15.144531 -34.0625 15.625 -34 C 16.144531 -33.96875 16.753906 -33.84375 17.453125 -33.625 C 17.453125 -33.625 17.457031 -33.625 17.46875 -33.625 C 17.488281 -33.625 17.5 -33.625 17.5 -33.625 C 17.914062 -33.394531 18.332031 -33.179688 18.75 -32.984375 C 19.164062 -32.796875 19.566406 -32.570312 19.953125 -32.3125 C 20.335938 -32.0625 20.675781 -31.773438 20.96875 -31.453125 C 21.257812 -31.128906 21.53125 -30.789062 21.78125 -30.4375 C 22.90625 -29 23.660156 -27.347656 24.046875 -25.484375 C 24.234375 -24.492188 24.429688 -23.484375 24.640625 -22.453125 C 24.847656 -21.429688 24.972656 -20.40625 25.015625 -19.375 C 25.046875 -18.832031 25.0625 -18.269531 25.0625 -17.6875 C 25.0625 -17.113281 25.0625 -16.554688 25.0625 -16.015625 C 25.0625 -15.953125 25.046875 -15.90625 25.015625 -15.875 C 24.878906 -15.394531 24.800781 -14.90625 24.78125 -14.40625 C 24.769531 -13.90625 24.703125 -13.414062 24.578125 -12.9375 C 24.378906 -12.007812 24.160156 -11.078125 23.921875 -10.140625 C 23.679688 -9.210938 23.367188 -8.316406 22.984375 -7.453125 C 22.828125 -7.097656 22.671875 -6.726562 22.515625 -6.34375 C 22.285156 -5.832031 22.023438 -5.328125 21.734375 -4.828125 C 21.453125 -4.335938 21.148438 -3.847656 20.828125 -3.359375 C 20.566406 -2.941406 20.25 -2.570312 19.875 -2.25 C 19.507812 -1.9375 19.117188 -1.648438 18.703125 -1.390625 C 18.609375 -1.296875 18.503906 -1.207031 18.390625 -1.125 C 18.285156 -1.050781 18.164062 -0.976562 18.03125 -0.90625 C 17.90625 -0.8125 17.773438 -0.722656 17.640625 -0.640625 C 17.515625 -0.566406 17.390625 -0.5 17.265625 -0.4375 C 17.109375 -0.375 16.941406 -0.300781 16.765625 -0.21875 C 16.585938 -0.132812 16.414062 -0.0625 16.25 0 C 15.9375 0.15625 15.59375 0.257812 15.21875 0.3125 C 14.851562 0.363281 14.492188 0.40625 14.140625 0.4375 C 13.628906 0.46875 13.097656 0.46875 12.546875 0.4375 C 12.003906 0.40625 11.460938 0.335938 10.921875 0.234375 C 10.398438 0.140625 9.890625 0.0390625 9.390625 -0.0625 C 8.898438 -0.175781 8.429688 -0.378906 7.984375 -0.671875 C 7.535156 -1.023438 7.085938 -1.378906 6.640625 -1.734375 C 6.191406 -2.085938 5.789062 -2.488281 5.4375 -2.9375 C 4.539062 -4.125 3.832031 -5.359375 3.3125 -6.640625 C 3 -7.472656 2.757812 -8.3125 2.59375 -9.15625 C 2.4375 -10.007812 2.328125 -10.867188 2.265625 -11.734375 C 2.265625 -11.992188 2.238281 -12.234375 2.1875 -12.453125 C 2.132812 -12.679688 2.109375 -12.90625 2.109375 -13.125 C 2.078125 -13.539062 2.046875 -13.945312 2.015625 -14.34375 C 1.984375 -14.75 1.953125 -15.144531 1.921875 -15.53125 Z M 18.375 -17.125 C 18.375 -17.40625 18.378906 -17.691406 18.390625 -17.984375 C 18.410156 -18.273438 18.40625 -18.566406 18.375 -18.859375 C 18.3125 -19.660156 18.207031 -20.453125 18.0625 -21.234375 C 17.914062 -22.015625 17.710938 -22.789062 17.453125 -23.5625 C 17.203125 -24.425781 16.816406 -25.210938 16.296875 -25.921875 C 16.265625 -25.953125 16.234375 -25.984375 16.203125 -26.015625 C 16.171875 -26.046875 16.140625 -26.078125 16.109375 -26.109375 C 15.304688 -26.722656 14.410156 -27.03125 13.421875 -27.03125 C 12.390625 -26.96875 11.539062 -26.550781 10.875 -25.78125 C 10.257812 -25.070312 9.773438 -24.289062 9.421875 -23.4375 C 9.066406 -22.59375 8.78125 -21.722656 8.5625 -20.828125 C 8.4375 -20.410156 8.351562 -20 8.3125 -19.59375 C 8.28125 -19.195312 8.25 -18.789062 8.21875 -18.375 C 8.15625 -17.28125 8.140625 -16.179688 8.171875 -15.078125 C 8.203125 -13.972656 8.316406 -12.875 8.515625 -11.78125 C 8.609375 -11.269531 8.726562 -10.753906 8.875 -10.234375 C 9.019531 -9.722656 9.203125 -9.226562 9.421875 -8.75 C 9.941406 -7.757812 10.695312 -7.117188 11.6875 -6.828125 C 12.007812 -6.765625 12.335938 -6.703125 12.671875 -6.640625 C 13.003906 -6.578125 13.332031 -6.53125 13.65625 -6.5 C 14.039062 -6.457031 14.414062 -6.492188 14.78125 -6.609375 C 15.15625 -6.722656 15.503906 -6.875 15.828125 -7.0625 C 16.398438 -7.382812 16.785156 -7.898438 16.984375 -8.609375 C 17.234375 -9.253906 17.429688 -9.90625 17.578125 -10.5625 C 17.722656 -11.21875 17.859375 -11.878906 17.984375 -12.546875 C 18.148438 -13.285156 18.25 -14.039062 18.28125 -14.8125 C 18.3125 -15.582031 18.34375 -16.351562 18.375 -17.125 Z M 18.375 -17.125 "/></g></g></g><g fill="#003049" fill-opacity="0.4"><g transform="translate(123.577882, 49.192562)"><g><path d="M 6.203125 -11.25 C 6.234375 -12.28125 6.253906 -13.316406 6.265625 -14.359375 C 6.285156 -15.398438 6.3125 -16.445312 6.34375 -17.5 C 6.375 -18.113281 6.40625 -18.722656 6.4375 -19.328125 C 6.476562 -19.941406 6.515625 -20.550781 6.546875 -21.15625 C 6.578125 -21.894531 6.582031 -22.625 6.5625 -23.34375 C 6.550781 -24.070312 6.546875 -24.800781 6.546875 -25.53125 C 6.546875 -25.632812 6.546875 -25.738281 6.546875 -25.84375 C 6.546875 -25.957031 6.546875 -26.0625 6.546875 -26.15625 C 6.546875 -26.320312 6.507812 -26.5 6.4375 -26.6875 C 6.3125 -27.039062 6.070312 -27.21875 5.71875 -27.21875 C 5.238281 -27.21875 4.757812 -27.207031 4.28125 -27.1875 C 3.800781 -27.175781 3.335938 -27.1875 2.890625 -27.21875 C 2.660156 -27.21875 2.414062 -27.238281 2.15625 -27.28125 C 1.90625 -27.332031 1.679688 -27.457031 1.484375 -27.65625 C 1.140625 -27.945312 0.96875 -28.332031 0.96875 -28.8125 C 0.96875 -29.414062 1.019531 -30.015625 1.125 -30.609375 C 1.238281 -31.203125 1.410156 -31.785156 1.640625 -32.359375 C 1.796875 -32.679688 1.984375 -32.9375 2.203125 -33.125 C 2.429688 -33.320312 2.722656 -33.421875 3.078125 -33.421875 C 3.554688 -33.421875 4.023438 -33.421875 4.484375 -33.421875 C 4.953125 -33.421875 5.429688 -33.421875 5.921875 -33.421875 C 6.265625 -33.390625 6.613281 -33.359375 6.96875 -33.328125 C 7.320312 -33.296875 7.660156 -33.28125 7.984375 -33.28125 C 8.910156 -33.28125 9.832031 -33.269531 10.75 -33.25 C 11.664062 -33.238281 12.570312 -33.234375 13.46875 -33.234375 C 13.945312 -33.234375 14.414062 -33.25 14.875 -33.28125 C 15.34375 -33.3125 15.800781 -33.34375 16.25 -33.375 C 16.507812 -33.375 16.773438 -33.359375 17.046875 -33.328125 C 17.316406 -33.296875 17.566406 -33.21875 17.796875 -33.09375 C 18.046875 -32.957031 18.253906 -32.734375 18.421875 -32.421875 C 18.484375 -32.191406 18.535156 -31.972656 18.578125 -31.765625 C 18.628906 -31.554688 18.640625 -31.335938 18.609375 -31.109375 C 18.578125 -30.734375 18.546875 -30.34375 18.515625 -29.9375 C 18.484375 -29.539062 18.484375 -29.132812 18.515625 -28.71875 C 18.515625 -28.457031 18.410156 -28.207031 18.203125 -27.96875 C 17.992188 -27.726562 17.773438 -27.578125 17.546875 -27.515625 C 17.359375 -27.484375 17.164062 -27.441406 16.96875 -27.390625 C 16.78125 -27.335938 16.578125 -27.3125 16.359375 -27.3125 C 15.898438 -27.28125 15.4375 -27.265625 14.96875 -27.265625 C 14.507812 -27.265625 14.054688 -27.25 13.609375 -27.21875 C 13.191406 -27.21875 12.9375 -26.976562 12.84375 -26.5 C 12.8125 -26.238281 12.78125 -25.976562 12.75 -25.71875 C 12.71875 -25.46875 12.703125 -25.210938 12.703125 -24.953125 C 12.671875 -23.742188 12.65625 -22.535156 12.65625 -21.328125 C 12.65625 -20.128906 12.617188 -18.921875 12.546875 -17.703125 C 12.546875 -17.148438 12.53125 -16.59375 12.5 -16.03125 C 12.46875 -15.476562 12.4375 -14.910156 12.40625 -14.328125 C 12.375 -13.816406 12.359375 -13.304688 12.359375 -12.796875 C 12.359375 -12.285156 12.34375 -11.769531 12.3125 -11.25 C 12.3125 -10.164062 12.3125 -9.082031 12.3125 -8 C 12.3125 -6.925781 12.296875 -5.847656 12.265625 -4.765625 C 12.265625 -4.410156 12.265625 -4.054688 12.265625 -3.703125 C 12.265625 -3.347656 12.234375 -2.992188 12.171875 -2.640625 C 12.140625 -2.421875 12.109375 -2.210938 12.078125 -2.015625 C 12.046875 -1.828125 11.992188 -1.632812 11.921875 -1.4375 C 11.890625 -1.3125 11.847656 -1.175781 11.796875 -1.03125 C 11.753906 -0.882812 11.703125 -0.734375 11.640625 -0.578125 C 11.546875 -0.160156 11.289062 0.125 10.875 0.28125 C 10.738281 0.320312 10.582031 0.363281 10.40625 0.40625 C 10.226562 0.457031 10.0625 0.5 9.90625 0.53125 C 9.613281 0.5625 9.320312 0.59375 9.03125 0.625 C 8.75 0.65625 8.445312 0.640625 8.125 0.578125 C 7.226562 0.421875 6.664062 -0.0546875 6.4375 -0.859375 C 6.34375 -1.242188 6.296875 -1.628906 6.296875 -2.015625 C 6.265625 -3.554688 6.25 -5.097656 6.25 -6.640625 C 6.25 -8.179688 6.25 -9.71875 6.25 -11.25 C 6.21875 -11.25 6.203125 -11.25 6.203125 -11.25 Z M 6.203125 -11.25 "/></g></g></g><g fill="#003049" fill-opacity="0.4"><g transform="translate(148.678388, 49.192562)"><g><path d="M 2.21875 -15.78125 C 2.28125 -17.09375 2.316406 -18.316406 2.328125 -19.453125 C 2.347656 -20.585938 2.375 -21.71875 2.40625 -22.84375 C 2.4375 -23.875 2.453125 -24.898438 2.453125 -25.921875 C 2.453125 -26.953125 2.453125 -27.960938 2.453125 -28.953125 C 2.484375 -29.109375 2.5 -29.265625 2.5 -29.421875 C 2.5 -29.585938 2.515625 -29.734375 2.546875 -29.859375 C 2.609375 -30.210938 2.671875 -30.570312 2.734375 -30.9375 C 2.804688 -31.3125 2.875 -31.675781 2.9375 -32.03125 C 3.21875 -32.988281 3.84375 -33.519531 4.8125 -33.625 C 5.257812 -33.65625 5.695312 -33.6875 6.125 -33.71875 C 6.5625 -33.75 6.988281 -33.78125 7.40625 -33.8125 C 7.5625 -33.8125 7.726562 -33.8125 7.90625 -33.8125 C 8.082031 -33.8125 8.238281 -33.8125 8.375 -33.8125 C 8.625 -33.8125 8.882812 -33.8125 9.15625 -33.8125 C 9.4375 -33.8125 9.703125 -33.8125 9.953125 -33.8125 C 10.597656 -33.84375 11.253906 -33.859375 11.921875 -33.859375 C 12.597656 -33.859375 13.273438 -33.859375 13.953125 -33.859375 C 14.203125 -33.890625 14.460938 -33.894531 14.734375 -33.875 C 15.015625 -33.863281 15.28125 -33.859375 15.53125 -33.859375 C 15.976562 -33.828125 16.425781 -33.8125 16.875 -33.8125 C 17.320312 -33.8125 17.753906 -33.796875 18.171875 -33.765625 C 18.429688 -33.765625 18.609375 -33.75 18.703125 -33.71875 C 18.867188 -33.71875 19.003906 -33.707031 19.109375 -33.6875 C 19.222656 -33.675781 19.347656 -33.671875 19.484375 -33.671875 C 20.347656 -33.671875 20.921875 -33.300781 21.203125 -32.5625 C 21.304688 -32.238281 21.359375 -31.882812 21.359375 -31.5 C 21.390625 -31.019531 21.40625 -30.546875 21.40625 -30.078125 C 21.40625 -29.617188 21.421875 -29.164062 21.453125 -28.71875 C 21.453125 -28.582031 21.441406 -28.46875 21.421875 -28.375 C 21.410156 -28.28125 21.421875 -28.1875 21.453125 -28.09375 C 21.484375 -27.925781 21.46875 -27.769531 21.40625 -27.625 C 21.34375 -27.476562 21.273438 -27.328125 21.203125 -27.171875 C 21.109375 -26.984375 20.972656 -26.863281 20.796875 -26.8125 C 20.617188 -26.757812 20.453125 -26.71875 20.296875 -26.6875 C 19.910156 -26.65625 19.53125 -26.628906 19.15625 -26.609375 C 18.789062 -26.597656 18.414062 -26.59375 18.03125 -26.59375 C 17.164062 -26.5625 16.289062 -26.535156 15.40625 -26.515625 C 14.53125 -26.503906 13.660156 -26.484375 12.796875 -26.453125 C 12.210938 -26.453125 11.601562 -26.40625 10.96875 -26.3125 C 10.769531 -26.28125 10.582031 -26.210938 10.40625 -26.109375 C 10.226562 -26.015625 10.109375 -25.859375 10.046875 -25.640625 C 9.660156 -24.703125 9.566406 -23.738281 9.765625 -22.75 C 9.890625 -22.269531 10.191406 -21.929688 10.671875 -21.734375 C 10.898438 -21.671875 11.125 -21.625 11.34375 -21.59375 C 11.570312 -21.5625 11.800781 -21.546875 12.03125 -21.546875 C 12.726562 -21.546875 13.421875 -21.546875 14.109375 -21.546875 C 14.804688 -21.546875 15.488281 -21.546875 16.15625 -21.546875 C 16.601562 -21.546875 17.066406 -21.445312 17.546875 -21.25 C 17.804688 -21.125 17.953125 -20.96875 17.984375 -20.78125 C 18.179688 -20.257812 18.300781 -19.71875 18.34375 -19.15625 C 18.394531 -18.601562 18.335938 -18.050781 18.171875 -17.5 C 18.109375 -17.3125 18.019531 -17.117188 17.90625 -16.921875 C 17.800781 -16.734375 17.679688 -16.5625 17.546875 -16.40625 C 17.390625 -16.144531 17.117188 -16.015625 16.734375 -16.015625 C 16.285156 -15.984375 15.828125 -15.9375 15.359375 -15.875 C 14.898438 -15.8125 14.445312 -15.742188 14 -15.671875 C 13.519531 -15.640625 13.035156 -15.597656 12.546875 -15.546875 C 12.066406 -15.503906 11.601562 -15.484375 11.15625 -15.484375 C 10.863281 -15.484375 10.585938 -15.367188 10.328125 -15.140625 C 10.078125 -14.921875 9.921875 -14.664062 9.859375 -14.375 C 9.828125 -14.15625 9.800781 -13.941406 9.78125 -13.734375 C 9.769531 -13.523438 9.765625 -13.289062 9.765625 -13.03125 C 9.734375 -12.320312 9.71875 -11.613281 9.71875 -10.90625 C 9.71875 -10.207031 9.71875 -9.488281 9.71875 -8.75 C 9.71875 -8.5625 9.71875 -8.367188 9.71875 -8.171875 C 9.71875 -7.984375 9.734375 -7.789062 9.765625 -7.59375 C 9.796875 -7.40625 9.847656 -7.226562 9.921875 -7.0625 C 10.003906 -6.90625 10.097656 -6.75 10.203125 -6.59375 C 10.296875 -6.457031 10.421875 -6.375 10.578125 -6.34375 C 10.742188 -6.3125 10.890625 -6.296875 11.015625 -6.296875 C 11.460938 -6.296875 11.925781 -6.296875 12.40625 -6.296875 C 12.882812 -6.296875 13.363281 -6.3125 13.84375 -6.34375 C 14.300781 -6.34375 14.769531 -6.347656 15.25 -6.359375 C 15.726562 -6.378906 16.191406 -6.40625 16.640625 -6.4375 C 16.992188 -6.4375 17.320312 -6.445312 17.625 -6.46875 C 17.925781 -6.488281 18.238281 -6.5 18.5625 -6.5 C 18.851562 -6.5 19.140625 -6.476562 19.421875 -6.4375 C 19.710938 -6.40625 19.988281 -6.328125 20.25 -6.203125 C 20.34375 -6.171875 20.4375 -6.128906 20.53125 -6.078125 C 20.632812 -6.035156 20.71875 -5.984375 20.78125 -5.921875 C 21.414062 -5.429688 21.734375 -4.785156 21.734375 -3.984375 C 21.734375 -3.734375 21.738281 -3.476562 21.75 -3.21875 C 21.769531 -2.96875 21.796875 -2.710938 21.828125 -2.453125 C 21.828125 -2.222656 21.828125 -2.003906 21.828125 -1.796875 C 21.828125 -1.585938 21.828125 -1.375 21.828125 -1.15625 C 21.796875 -0.925781 21.707031 -0.722656 21.5625 -0.546875 C 21.425781 -0.367188 21.273438 -0.203125 21.109375 -0.046875 C 21.015625 0.046875 20.851562 0.09375 20.625 0.09375 C 19.832031 0.125 19.039062 0.140625 18.25 0.140625 C 17.46875 0.140625 16.675781 0.15625 15.875 0.1875 C 15.457031 0.1875 15.046875 0.203125 14.640625 0.234375 C 14.242188 0.265625 13.835938 0.28125 13.421875 0.28125 C 12.773438 0.320312 12.128906 0.34375 11.484375 0.34375 C 10.847656 0.34375 10.210938 0.359375 9.578125 0.390625 C 9.117188 0.421875 8.65625 0.453125 8.1875 0.484375 C 7.726562 0.515625 7.273438 0.546875 6.828125 0.578125 C 6.410156 0.609375 5.976562 0.613281 5.53125 0.59375 C 5.082031 0.582031 4.632812 0.53125 4.1875 0.4375 C 3.957031 0.40625 3.726562 0.347656 3.5 0.265625 C 3.28125 0.179688 3.078125 0.078125 2.890625 -0.046875 C 2.828125 -0.109375 2.757812 -0.171875 2.6875 -0.234375 C 2.625 -0.304688 2.578125 -0.375 2.546875 -0.4375 C 2.253906 -0.945312 2.078125 -1.523438 2.015625 -2.171875 C 1.984375 -2.804688 1.96875 -3.4375 1.96875 -4.0625 C 1.96875 -4.6875 1.96875 -5.304688 1.96875 -5.921875 C 2.03125 -7.171875 2.078125 -8.421875 2.109375 -9.671875 C 2.148438 -10.921875 2.1875 -12.171875 2.21875 -13.421875 C 2.25 -13.867188 2.253906 -14.304688 2.234375 -14.734375 C 2.222656 -15.171875 2.21875 -15.519531 2.21875 -15.78125 Z M 2.21875 -15.78125 "/></g></g></g><g fill="#003049" fill-opacity="1"><g transform="translate(0.278351, 47.067264)"><g><path d="M 8.375 -33.328125 C 9.070312 -33.328125 9.757812 -33.316406 10.4375 -33.296875 C 11.113281 -33.285156 11.769531 -33.28125 12.40625 -33.28125 C 12.945312 -33.25 13.472656 -33.222656 13.984375 -33.203125 C 14.503906 -33.191406 15.019531 -33.171875 15.53125 -33.140625 C 15.59375 -33.140625 15.648438 -33.140625 15.703125 -33.140625 C 15.753906 -33.140625 15.796875 -33.140625 15.828125 -33.140625 C 16.523438 -33.003906 17.203125 -32.816406 17.859375 -32.578125 C 18.523438 -32.335938 19.113281 -31.945312 19.625 -31.40625 C 19.976562 -31.082031 20.289062 -30.742188 20.5625 -30.390625 C 20.832031 -30.035156 21.046875 -29.648438 21.203125 -29.234375 C 21.367188 -28.890625 21.515625 -28.546875 21.640625 -28.203125 C 21.765625 -27.867188 21.894531 -27.523438 22.03125 -27.171875 C 22.0625 -27.078125 22.082031 -26.976562 22.09375 -26.875 C 22.113281 -26.78125 22.140625 -26.6875 22.171875 -26.59375 C 22.265625 -26.082031 22.359375 -25.578125 22.453125 -25.078125 C 22.554688 -24.578125 22.625 -24.070312 22.65625 -23.5625 C 22.6875 -23.019531 22.71875 -22.472656 22.75 -21.921875 C 22.78125 -21.378906 22.796875 -20.835938 22.796875 -20.296875 C 22.796875 -18.117188 22.265625 -16.082031 21.203125 -14.1875 C 20.984375 -13.800781 20.742188 -13.421875 20.484375 -13.046875 C 20.234375 -12.679688 19.929688 -12.359375 19.578125 -12.078125 C 19.347656 -11.878906 19.113281 -11.695312 18.875 -11.53125 C 18.632812 -11.375 18.382812 -11.25 18.125 -11.15625 C 17.8125 -11.03125 17.515625 -10.898438 17.234375 -10.765625 C 16.960938 -10.640625 16.6875 -10.5 16.40625 -10.34375 C 16.019531 -10.113281 15.582031 -9.921875 15.09375 -9.765625 C 14.675781 -9.671875 14.234375 -9.582031 13.765625 -9.5 C 13.304688 -9.414062 12.851562 -9.34375 12.40625 -9.28125 C 12.28125 -9.25 12.160156 -9.234375 12.046875 -9.234375 C 11.929688 -9.234375 11.8125 -9.234375 11.6875 -9.234375 C 11.394531 -9.203125 11.101562 -9.171875 10.8125 -9.140625 C 10.53125 -9.109375 10.257812 -9.078125 10 -9.046875 C 9.8125 -9.046875 9.6875 -8.929688 9.625 -8.703125 C 9.457031 -8.441406 9.34375 -8.160156 9.28125 -7.859375 C 9.21875 -7.554688 9.1875 -7.257812 9.1875 -6.96875 C 9.15625 -6.6875 9.144531 -6.390625 9.15625 -6.078125 C 9.175781 -5.773438 9.171875 -5.476562 9.140625 -5.1875 C 9.140625 -4.769531 9.140625 -4.335938 9.140625 -3.890625 C 9.140625 -3.441406 9.125 -2.992188 9.09375 -2.546875 C 9.0625 -2.222656 9.007812 -1.878906 8.9375 -1.515625 C 8.875 -1.148438 8.765625 -0.804688 8.609375 -0.484375 C 8.453125 -0.222656 8.273438 -0.03125 8.078125 0.09375 C 7.210938 0.476562 6.363281 0.65625 5.53125 0.625 C 5.40625 0.625 5.242188 0.59375 5.046875 0.53125 C 4.796875 0.46875 4.546875 0.394531 4.296875 0.3125 C 4.054688 0.226562 3.8125 0.15625 3.5625 0.09375 C 3.332031 0.03125 3.15625 -0.0625 3.03125 -0.1875 C 2.90625 -0.320312 2.773438 -0.453125 2.640625 -0.578125 C 2.515625 -0.796875 2.394531 -1.019531 2.28125 -1.25 C 2.164062 -1.476562 2.128906 -1.71875 2.171875 -1.96875 C 2.296875 -3.632812 2.347656 -5.289062 2.328125 -6.9375 C 2.316406 -8.59375 2.3125 -10.253906 2.3125 -11.921875 C 2.3125 -13.523438 2.3125 -15.144531 2.3125 -16.78125 C 2.3125 -18.414062 2.3125 -20.050781 2.3125 -21.6875 C 2.3125 -23.644531 2.210938 -25.632812 2.015625 -27.65625 C 1.984375 -28.195312 1.984375 -28.753906 2.015625 -29.328125 C 2.046875 -29.910156 2.113281 -30.472656 2.21875 -31.015625 C 2.25 -31.117188 2.269531 -31.222656 2.28125 -31.328125 C 2.300781 -31.441406 2.328125 -31.5625 2.359375 -31.6875 C 2.421875 -32.175781 2.617188 -32.570312 2.953125 -32.875 C 3.296875 -33.175781 3.707031 -33.34375 4.1875 -33.375 C 4.695312 -33.40625 5.191406 -33.40625 5.671875 -33.375 C 6.148438 -33.34375 6.632812 -33.328125 7.125 -33.328125 C 7.34375 -33.328125 7.554688 -33.328125 7.765625 -33.328125 C 7.972656 -33.328125 8.175781 -33.328125 8.375 -33.328125 Z M 9.328125 -18.90625 C 9.328125 -18.550781 9.328125 -18.203125 9.328125 -17.859375 C 9.328125 -17.523438 9.328125 -17.179688 9.328125 -16.828125 C 9.328125 -16.703125 9.332031 -16.59375 9.34375 -16.5 C 9.363281 -16.40625 9.390625 -16.289062 9.421875 -16.15625 C 9.484375 -15.875 9.554688 -15.691406 9.640625 -15.609375 C 9.722656 -15.523438 9.925781 -15.46875 10.25 -15.4375 C 10.53125 -15.40625 10.816406 -15.378906 11.109375 -15.359375 C 11.398438 -15.347656 11.6875 -15.359375 11.96875 -15.390625 C 12.289062 -15.453125 12.601562 -15.515625 12.90625 -15.578125 C 13.21875 -15.640625 13.515625 -15.738281 13.796875 -15.875 C 14.285156 -16.0625 14.609375 -16.378906 14.765625 -16.828125 C 14.828125 -16.929688 14.878906 -17.03125 14.921875 -17.125 C 14.972656 -17.21875 15.015625 -17.328125 15.046875 -17.453125 C 15.597656 -18.484375 15.890625 -19.5625 15.921875 -20.6875 C 15.953125 -21.132812 15.972656 -21.566406 15.984375 -21.984375 C 16.003906 -22.398438 16 -22.816406 15.96875 -23.234375 C 15.96875 -24.160156 15.789062 -24.992188 15.4375 -25.734375 C 15.28125 -26.015625 15.054688 -26.238281 14.765625 -26.40625 C 14.148438 -26.726562 13.523438 -26.90625 12.890625 -26.9375 C 12.441406 -26.96875 11.984375 -26.972656 11.515625 -26.953125 C 11.054688 -26.941406 10.597656 -26.9375 10.140625 -26.9375 C 9.890625 -26.9375 9.679688 -26.804688 9.515625 -26.546875 C 9.484375 -26.484375 9.453125 -26.410156 9.421875 -26.328125 C 9.390625 -26.253906 9.375 -26.164062 9.375 -26.0625 C 9.34375 -25.84375 9.3125 -25.601562 9.28125 -25.34375 C 9.25 -25.082031 9.234375 -24.828125 9.234375 -24.578125 C 9.234375 -23.648438 9.238281 -22.703125 9.25 -21.734375 C 9.269531 -20.773438 9.296875 -19.832031 9.328125 -18.90625 Z M 9.328125 -18.90625 "/></g></g></g><g fill="#003049" fill-opacity="1"><g transform="translate(29.417951, 47.067264)"><g><path d="M 1.921875 -15.53125 C 1.984375 -16.71875 2.082031 -17.859375 2.21875 -18.953125 C 2.28125 -19.304688 2.316406 -19.671875 2.328125 -20.046875 C 2.347656 -20.429688 2.375 -20.800781 2.40625 -21.15625 C 2.5 -22.0625 2.632812 -22.945312 2.8125 -23.8125 C 2.988281 -24.675781 3.222656 -25.523438 3.515625 -26.359375 C 3.703125 -26.898438 3.914062 -27.4375 4.15625 -27.96875 C 4.394531 -28.5 4.675781 -29.003906 5 -29.484375 C 5.382812 -30.085938 5.832031 -30.625 6.34375 -31.09375 C 6.863281 -31.5625 7.425781 -32.003906 8.03125 -32.421875 C 8.320312 -32.640625 8.632812 -32.835938 8.96875 -33.015625 C 9.300781 -33.191406 9.628906 -33.34375 9.953125 -33.46875 C 10.878906 -33.851562 11.828125 -34.046875 12.796875 -34.046875 C 13.242188 -34.078125 13.707031 -34.09375 14.1875 -34.09375 C 14.664062 -34.09375 15.144531 -34.0625 15.625 -34 C 16.144531 -33.96875 16.753906 -33.84375 17.453125 -33.625 C 17.453125 -33.625 17.457031 -33.625 17.46875 -33.625 C 17.488281 -33.625 17.5 -33.625 17.5 -33.625 C 17.914062 -33.394531 18.332031 -33.179688 18.75 -32.984375 C 19.164062 -32.796875 19.566406 -32.570312 19.953125 -32.3125 C 20.335938 -32.0625 20.675781 -31.773438 20.96875 -31.453125 C 21.257812 -31.128906 21.53125 -30.789062 21.78125 -30.4375 C 22.90625 -29 23.660156 -27.347656 24.046875 -25.484375 C 24.234375 -24.492188 24.429688 -23.484375 24.640625 -22.453125 C 24.847656 -21.429688 24.972656 -20.40625 25.015625 -19.375 C 25.046875 -18.832031 25.0625 -18.269531 25.0625 -17.6875 C 25.0625 -17.113281 25.0625 -16.554688 25.0625 -16.015625 C 25.0625 -15.953125 25.046875 -15.90625 25.015625 -15.875 C 24.878906 -15.394531 24.800781 -14.90625 24.78125 -14.40625 C 24.769531 -13.90625 24.703125 -13.414062 24.578125 -12.9375 C 24.378906 -12.007812 24.160156 -11.078125 23.921875 -10.140625 C 23.679688 -9.210938 23.367188 -8.316406 22.984375 -7.453125 C 22.828125 -7.097656 22.671875 -6.726562 22.515625 -6.34375 C 22.285156 -5.832031 22.023438 -5.328125 21.734375 -4.828125 C 21.453125 -4.335938 21.148438 -3.847656 20.828125 -3.359375 C 20.566406 -2.941406 20.25 -2.570312 19.875 -2.25 C 19.507812 -1.9375 19.117188 -1.648438 18.703125 -1.390625 C 18.609375 -1.296875 18.503906 -1.207031 18.390625 -1.125 C 18.285156 -1.050781 18.164062 -0.976562 18.03125 -0.90625 C 17.90625 -0.8125 17.773438 -0.722656 17.640625 -0.640625 C 17.515625 -0.566406 17.390625 -0.5 17.265625 -0.4375 C 17.109375 -0.375 16.941406 -0.300781 16.765625 -0.21875 C 16.585938 -0.132812 16.414062 -0.0625 16.25 0 C 15.9375 0.15625 15.59375 0.257812 15.21875 0.3125 C 14.851562 0.363281 14.492188 0.40625 14.140625 0.4375 C 13.628906 0.46875 13.097656 0.46875 12.546875 0.4375 C 12.003906 0.40625 11.460938 0.335938 10.921875 0.234375 C 10.398438 0.140625 9.890625 0.0390625 9.390625 -0.0625 C 8.898438 -0.175781 8.429688 -0.378906 7.984375 -0.671875 C 7.535156 -1.023438 7.085938 -1.378906 6.640625 -1.734375 C 6.191406 -2.085938 5.789062 -2.488281 5.4375 -2.9375 C 4.539062 -4.125 3.832031 -5.359375 3.3125 -6.640625 C 3 -7.472656 2.757812 -8.3125 2.59375 -9.15625 C 2.4375 -10.007812 2.328125 -10.867188 2.265625 -11.734375 C 2.265625 -11.992188 2.238281 -12.234375 2.1875 -12.453125 C 2.132812 -12.679688 2.109375 -12.90625 2.109375 -13.125 C 2.078125 -13.539062 2.046875 -13.945312 2.015625 -14.34375 C 1.984375 -14.75 1.953125 -15.144531 1.921875 -15.53125 Z M 18.375 -17.125 C 18.375 -17.40625 18.378906 -17.691406 18.390625 -17.984375 C 18.410156 -18.273438 18.40625 -18.566406 18.375 -18.859375 C 18.3125 -19.660156 18.207031 -20.453125 18.0625 -21.234375 C 17.914062 -22.015625 17.710938 -22.789062 17.453125 -23.5625 C 17.203125 -24.425781 16.816406 -25.210938 16.296875 -25.921875 C 16.265625 -25.953125 16.234375 -25.984375 16.203125 -26.015625 C 16.171875 -26.046875 16.140625 -26.078125 16.109375 -26.109375 C 15.304688 -26.722656 14.410156 -27.03125 13.421875 -27.03125 C 12.390625 -26.96875 11.539062 -26.550781 10.875 -25.78125 C 10.257812 -25.070312 9.773438 -24.289062 9.421875 -23.4375 C 9.066406 -22.59375 8.78125 -21.722656 8.5625 -20.828125 C 8.4375 -20.410156 8.351562 -20 8.3125 -19.59375 C 8.28125 -19.195312 8.25 -18.789062 8.21875 -18.375 C 8.15625 -17.28125 8.140625 -16.179688 8.171875 -15.078125 C 8.203125 -13.972656 8.316406 -12.875 8.515625 -11.78125 C 8.609375 -11.269531 8.726562 -10.753906 8.875 -10.234375 C 9.019531 -9.722656 9.203125 -9.226562 9.421875 -8.75 C 9.941406 -7.757812 10.695312 -7.117188 11.6875 -6.828125 C 12.007812 -6.765625 12.335938 -6.703125 12.671875 -6.640625 C 13.003906 -6.578125 13.332031 -6.53125 13.65625 -6.5 C 14.039062 -6.457031 14.414062 -6.492188 14.78125 -6.609375 C 15.15625 -6.722656 15.503906 -6.875 15.828125 -7.0625 C 16.398438 -7.382812 16.785156 -7.898438 16.984375 -8.609375 C 17.234375 -9.253906 17.429688 -9.90625 17.578125 -10.5625 C 17.722656 -11.21875 17.859375 -11.878906 17.984375 -12.546875 C 18.148438 -13.285156 18.25 -14.039062 18.28125 -14.8125 C 18.3125 -15.582031 18.34375 -16.351562 18.375 -17.125 Z M 18.375 -17.125 "/></g></g></g><g fill="#003049" fill-opacity="1"><g transform="translate(61.538735, 47.067264)"><g><path d="M 8.375 -33.328125 C 9.070312 -33.328125 9.757812 -33.316406 10.4375 -33.296875 C 11.113281 -33.285156 11.769531 -33.28125 12.40625 -33.28125 C 12.945312 -33.25 13.472656 -33.222656 13.984375 -33.203125 C 14.503906 -33.191406 15.019531 -33.171875 15.53125 -33.140625 C 15.59375 -33.140625 15.648438 -33.140625 15.703125 -33.140625 C 15.753906 -33.140625 15.796875 -33.140625 15.828125 -33.140625 C 16.523438 -33.003906 17.203125 -32.816406 17.859375 -32.578125 C 18.523438 -32.335938 19.113281 -31.945312 19.625 -31.40625 C 19.976562 -31.082031 20.289062 -30.742188 20.5625 -30.390625 C 20.832031 -30.035156 21.046875 -29.648438 21.203125 -29.234375 C 21.367188 -28.890625 21.515625 -28.546875 21.640625 -28.203125 C 21.765625 -27.867188 21.894531 -27.523438 22.03125 -27.171875 C 22.0625 -27.078125 22.082031 -26.976562 22.09375 -26.875 C 22.113281 -26.78125 22.140625 -26.6875 22.171875 -26.59375 C 22.265625 -26.082031 22.359375 -25.578125 22.453125 -25.078125 C 22.554688 -24.578125 22.625 -24.070312 22.65625 -23.5625 C 22.6875 -23.019531 22.71875 -22.472656 22.75 -21.921875 C 22.78125 -21.378906 22.796875 -20.835938 22.796875 -20.296875 C 22.796875 -18.117188 22.265625 -16.082031 21.203125 -14.1875 C 20.984375 -13.800781 20.742188 -13.421875 20.484375 -13.046875 C 20.234375 -12.679688 19.929688 -12.359375 19.578125 -12.078125 C 19.347656 -11.878906 19.113281 -11.695312 18.875 -11.53125 C 18.632812 -11.375 18.382812 -11.25 18.125 -11.15625 C 17.8125 -11.03125 17.515625 -10.898438 17.234375 -10.765625 C 16.960938 -10.640625 16.6875 -10.5 16.40625 -10.34375 C 16.019531 -10.113281 15.582031 -9.921875 15.09375 -9.765625 C 14.675781 -9.671875 14.234375 -9.582031 13.765625 -9.5 C 13.304688 -9.414062 12.851562 -9.34375 12.40625 -9.28125 C 12.28125 -9.25 12.160156 -9.234375 12.046875 -9.234375 C 11.929688 -9.234375 11.8125 -9.234375 11.6875 -9.234375 C 11.394531 -9.203125 11.101562 -9.171875 10.8125 -9.140625 C 10.53125 -9.109375 10.257812 -9.078125 10 -9.046875 C 9.8125 -9.046875 9.6875 -8.929688 9.625 -8.703125 C 9.457031 -8.441406 9.34375 -8.160156 9.28125 -7.859375 C 9.21875 -7.554688 9.1875 -7.257812 9.1875 -6.96875 C 9.15625 -6.6875 9.144531 -6.390625 9.15625 -6.078125 C 9.175781 -5.773438 9.171875 -5.476562 9.140625 -5.1875 C 9.140625 -4.769531 9.140625 -4.335938 9.140625 -3.890625 C 9.140625 -3.441406 9.125 -2.992188 9.09375 -2.546875 C 9.0625 -2.222656 9.007812 -1.878906 8.9375 -1.515625 C 8.875 -1.148438 8.765625 -0.804688 8.609375 -0.484375 C 8.453125 -0.222656 8.273438 -0.03125 8.078125 0.09375 C 7.210938 0.476562 6.363281 0.65625 5.53125 0.625 C 5.40625 0.625 5.242188 0.59375 5.046875 0.53125 C 4.796875 0.46875 4.546875 0.394531 4.296875 0.3125 C 4.054688 0.226562 3.8125 0.15625 3.5625 0.09375 C 3.332031 0.03125 3.15625 -0.0625 3.03125 -0.1875 C 2.90625 -0.320312 2.773438 -0.453125 2.640625 -0.578125 C 2.515625 -0.796875 2.394531 -1.019531 2.28125 -1.25 C 2.164062 -1.476562 2.128906 -1.71875 2.171875 -1.96875 C 2.296875 -3.632812 2.347656 -5.289062 2.328125 -6.9375 C 2.316406 -8.59375 2.3125 -10.253906 2.3125 -11.921875 C 2.3125 -13.523438 2.3125 -15.144531 2.3125 -16.78125 C 2.3125 -18.414062 2.3125 -20.050781 2.3125 -21.6875 C 2.3125 -23.644531 2.210938 -25.632812 2.015625 -27.65625 C 1.984375 -28.195312 1.984375 -28.753906 2.015625 -29.328125 C 2.046875 -29.910156 2.113281 -30.472656 2.21875 -31.015625 C 2.25 -31.117188 2.269531 -31.222656 2.28125 -31.328125 C 2.300781 -31.441406 2.328125 -31.5625 2.359375 -31.6875 C 2.421875 -32.175781 2.617188 -32.570312 2.953125 -32.875 C 3.296875 -33.175781 3.707031 -33.34375 4.1875 -33.375 C 4.695312 -33.40625 5.191406 -33.40625 5.671875 -33.375 C 6.148438 -33.34375 6.632812 -33.328125 7.125 -33.328125 C 7.34375 -33.328125 7.554688 -33.328125 7.765625 -33.328125 C 7.972656 -33.328125 8.175781 -33.328125 8.375 -33.328125 Z M 9.328125 -18.90625 C 9.328125 -18.550781 9.328125 -18.203125 9.328125 -17.859375 C 9.328125 -17.523438 9.328125 -17.179688 9.328125 -16.828125 C 9.328125 -16.703125 9.332031 -16.59375 9.34375 -16.5 C 9.363281 -16.40625 9.390625 -16.289062 9.421875 -16.15625 C 9.484375 -15.875 9.554688 -15.691406 9.640625 -15.609375 C 9.722656 -15.523438 9.925781 -15.46875 10.25 -15.4375 C 10.53125 -15.40625 10.816406 -15.378906 11.109375 -15.359375 C 11.398438 -15.347656 11.6875 -15.359375 11.96875 -15.390625 C 12.289062 -15.453125 12.601562 -15.515625 12.90625 -15.578125 C 13.21875 -15.640625 13.515625 -15.738281 13.796875 -15.875 C 14.285156 -16.0625 14.609375 -16.378906 14.765625 -16.828125 C 14.828125 -16.929688 14.878906 -17.03125 14.921875 -17.125 C 14.972656 -17.21875 15.015625 -17.328125 15.046875 -17.453125 C 15.597656 -18.484375 15.890625 -19.5625 15.921875 -20.6875 C 15.953125 -21.132812 15.972656 -21.566406 15.984375 -21.984375 C 16.003906 -22.398438 16 -22.816406 15.96875 -23.234375 C 15.96875 -24.160156 15.789062 -24.992188 15.4375 -25.734375 C 15.28125 -26.015625 15.054688 -26.238281 14.765625 -26.40625 C 14.148438 -26.726562 13.523438 -26.90625 12.890625 -26.9375 C 12.441406 -26.96875 11.984375 -26.972656 11.515625 -26.953125 C 11.054688 -26.941406 10.597656 -26.9375 10.140625 -26.9375 C 9.890625 -26.9375 9.679688 -26.804688 9.515625 -26.546875 C 9.484375 -26.484375 9.453125 -26.410156 9.421875 -26.328125 C 9.390625 -26.253906 9.375 -26.164062 9.375 -26.0625 C 9.34375 -25.84375 9.3125 -25.601562 9.28125 -25.34375 C 9.25 -25.082031 9.234375 -24.828125 9.234375 -24.578125 C 9.234375 -23.648438 9.238281 -22.703125 9.25 -21.734375 C 9.269531 -20.773438 9.296875 -19.832031 9.328125 -18.90625 Z M 9.328125 -18.90625 "/></g></g></g><g fill="#003049" fill-opacity="1"><g transform="translate(90.678328, 47.067264)"><g><path d="M 1.921875 -15.53125 C 1.984375 -16.71875 2.082031 -17.859375 2.21875 -18.953125 C 2.28125 -19.304688 2.316406 -19.671875 2.328125 -20.046875 C 2.347656 -20.429688 2.375 -20.800781 2.40625 -21.15625 C 2.5 -22.0625 2.632812 -22.945312 2.8125 -23.8125 C 2.988281 -24.675781 3.222656 -25.523438 3.515625 -26.359375 C 3.703125 -26.898438 3.914062 -27.4375 4.15625 -27.96875 C 4.394531 -28.5 4.675781 -29.003906 5 -29.484375 C 5.382812 -30.085938 5.832031 -30.625 6.34375 -31.09375 C 6.863281 -31.5625 7.425781 -32.003906 8.03125 -32.421875 C 8.320312 -32.640625 8.632812 -32.835938 8.96875 -33.015625 C 9.300781 -33.191406 9.628906 -33.34375 9.953125 -33.46875 C 10.878906 -33.851562 11.828125 -34.046875 12.796875 -34.046875 C 13.242188 -34.078125 13.707031 -34.09375 14.1875 -34.09375 C 14.664062 -34.09375 15.144531 -34.0625 15.625 -34 C 16.144531 -33.96875 16.753906 -33.84375 17.453125 -33.625 C 17.453125 -33.625 17.457031 -33.625 17.46875 -33.625 C 17.488281 -33.625 17.5 -33.625 17.5 -33.625 C 17.914062 -33.394531 18.332031 -33.179688 18.75 -32.984375 C 19.164062 -32.796875 19.566406 -32.570312 19.953125 -32.3125 C 20.335938 -32.0625 20.675781 -31.773438 20.96875 -31.453125 C 21.257812 -31.128906 21.53125 -30.789062 21.78125 -30.4375 C 22.90625 -29 23.660156 -27.347656 24.046875 -25.484375 C 24.234375 -24.492188 24.429688 -23.484375 24.640625 -22.453125 C 24.847656 -21.429688 24.972656 -20.40625 25.015625 -19.375 C 25.046875 -18.832031 25.0625 -18.269531 25.0625 -17.6875 C 25.0625 -17.113281 25.0625 -16.554688 25.0625 -16.015625 C 25.0625 -15.953125 25.046875 -15.90625 25.015625 -15.875 C 24.878906 -15.394531 24.800781 -14.90625 24.78125 -14.40625 C 24.769531 -13.90625 24.703125 -13.414062 24.578125 -12.9375 C 24.378906 -12.007812 24.160156 -11.078125 23.921875 -10.140625 C 23.679688 -9.210938 23.367188 -8.316406 22.984375 -7.453125 C 22.828125 -7.097656 22.671875 -6.726562 22.515625 -6.34375 C 22.285156 -5.832031 22.023438 -5.328125 21.734375 -4.828125 C 21.453125 -4.335938 21.148438 -3.847656 20.828125 -3.359375 C 20.566406 -2.941406 20.25 -2.570312 19.875 -2.25 C 19.507812 -1.9375 19.117188 -1.648438 18.703125 -1.390625 C 18.609375 -1.296875 18.503906 -1.207031 18.390625 -1.125 C 18.285156 -1.050781 18.164062 -0.976562 18.03125 -0.90625 C 17.90625 -0.8125 17.773438 -0.722656 17.640625 -0.640625 C 17.515625 -0.566406 17.390625 -0.5 17.265625 -0.4375 C 17.109375 -0.375 16.941406 -0.300781 16.765625 -0.21875 C 16.585938 -0.132812 16.414062 -0.0625 16.25 0 C 15.9375 0.15625 15.59375 0.257812 15.21875 0.3125 C 14.851562 0.363281 14.492188 0.40625 14.140625 0.4375 C 13.628906 0.46875 13.097656 0.46875 12.546875 0.4375 C 12.003906 0.40625 11.460938 0.335938 10.921875 0.234375 C 10.398438 0.140625 9.890625 0.0390625 9.390625 -0.0625 C 8.898438 -0.175781 8.429688 -0.378906 7.984375 -0.671875 C 7.535156 -1.023438 7.085938 -1.378906 6.640625 -1.734375 C 6.191406 -2.085938 5.789062 -2.488281 5.4375 -2.9375 C 4.539062 -4.125 3.832031 -5.359375 3.3125 -6.640625 C 3 -7.472656 2.757812 -8.3125 2.59375 -9.15625 C 2.4375 -10.007812 2.328125 -10.867188 2.265625 -11.734375 C 2.265625 -11.992188 2.238281 -12.234375 2.1875 -12.453125 C 2.132812 -12.679688 2.109375 -12.90625 2.109375 -13.125 C 2.078125 -13.539062 2.046875 -13.945312 2.015625 -14.34375 C 1.984375 -14.75 1.953125 -15.144531 1.921875 -15.53125 Z M 18.375 -17.125 C 18.375 -17.40625 18.378906 -17.691406 18.390625 -17.984375 C 18.410156 -18.273438 18.40625 -18.566406 18.375 -18.859375 C 18.3125 -19.660156 18.207031 -20.453125 18.0625 -21.234375 C 17.914062 -22.015625 17.710938 -22.789062 17.453125 -23.5625 C 17.203125 -24.425781 16.816406 -25.210938 16.296875 -25.921875 C 16.265625 -25.953125 16.234375 -25.984375 16.203125 -26.015625 C 16.171875 -26.046875 16.140625 -26.078125 16.109375 -26.109375 C 15.304688 -26.722656 14.410156 -27.03125 13.421875 -27.03125 C 12.390625 -26.96875 11.539062 -26.550781 10.875 -25.78125 C 10.257812 -25.070312 9.773438 -24.289062 9.421875 -23.4375 C 9.066406 -22.59375 8.78125 -21.722656 8.5625 -20.828125 C 8.4375 -20.410156 8.351562 -20 8.3125 -19.59375 C 8.28125 -19.195312 8.25 -18.789062 8.21875 -18.375 C 8.15625 -17.28125 8.140625 -16.179688 8.171875 -15.078125 C 8.203125 -13.972656 8.316406 -12.875 8.515625 -11.78125 C 8.609375 -11.269531 8.726562 -10.753906 8.875 -10.234375 C 9.019531 -9.722656 9.203125 -9.226562 9.421875 -8.75 C 9.941406 -7.757812 10.695312 -7.117188 11.6875 -6.828125 C 12.007812 -6.765625 12.335938 -6.703125 12.671875 -6.640625 C 13.003906 -6.578125 13.332031 -6.53125 13.65625 -6.5 C 14.039062 -6.457031 14.414062 -6.492188 14.78125 -6.609375 C 15.15625 -6.722656 15.503906 -6.875 15.828125 -7.0625 C 16.398438 -7.382812 16.785156 -7.898438 16.984375 -8.609375 C 17.234375 -9.253906 17.429688 -9.90625 17.578125 -10.5625 C 17.722656 -11.21875 17.859375 -11.878906 17.984375 -12.546875 C 18.148438 -13.285156 18.25 -14.039062 18.28125 -14.8125 C 18.3125 -15.582031 18.34375 -16.351562 18.375 -17.125 Z M 18.375 -17.125 "/></g></g></g><g fill="#003049" fill-opacity="1"><g transform="translate(121.452569, 47.067264)"><g><path d="M 6.203125 -11.25 C 6.234375 -12.28125 6.253906 -13.316406 6.265625 -14.359375 C 6.285156 -15.398438 6.3125 -16.445312 6.34375 -17.5 C 6.375 -18.113281 6.40625 -18.722656 6.4375 -19.328125 C 6.476562 -19.941406 6.515625 -20.550781 6.546875 -21.15625 C 6.578125 -21.894531 6.582031 -22.625 6.5625 -23.34375 C 6.550781 -24.070312 6.546875 -24.800781 6.546875 -25.53125 C 6.546875 -25.632812 6.546875 -25.738281 6.546875 -25.84375 C 6.546875 -25.957031 6.546875 -26.0625 6.546875 -26.15625 C 6.546875 -26.320312 6.507812 -26.5 6.4375 -26.6875 C 6.3125 -27.039062 6.070312 -27.21875 5.71875 -27.21875 C 5.238281 -27.21875 4.757812 -27.207031 4.28125 -27.1875 C 3.800781 -27.175781 3.335938 -27.1875 2.890625 -27.21875 C 2.660156 -27.21875 2.414062 -27.238281 2.15625 -27.28125 C 1.90625 -27.332031 1.679688 -27.457031 1.484375 -27.65625 C 1.140625 -27.945312 0.96875 -28.332031 0.96875 -28.8125 C 0.96875 -29.414062 1.019531 -30.015625 1.125 -30.609375 C 1.238281 -31.203125 1.410156 -31.785156 1.640625 -32.359375 C 1.796875 -32.679688 1.984375 -32.9375 2.203125 -33.125 C 2.429688 -33.320312 2.722656 -33.421875 3.078125 -33.421875 C 3.554688 -33.421875 4.023438 -33.421875 4.484375 -33.421875 C 4.953125 -33.421875 5.429688 -33.421875 5.921875 -33.421875 C 6.265625 -33.390625 6.613281 -33.359375 6.96875 -33.328125 C 7.320312 -33.296875 7.660156 -33.28125 7.984375 -33.28125 C 8.910156 -33.28125 9.832031 -33.269531 10.75 -33.25 C 11.664062 -33.238281 12.570312 -33.234375 13.46875 -33.234375 C 13.945312 -33.234375 14.414062 -33.25 14.875 -33.28125 C 15.34375 -33.3125 15.800781 -33.34375 16.25 -33.375 C 16.507812 -33.375 16.773438 -33.359375 17.046875 -33.328125 C 17.316406 -33.296875 17.566406 -33.21875 17.796875 -33.09375 C 18.046875 -32.957031 18.253906 -32.734375 18.421875 -32.421875 C 18.484375 -32.191406 18.535156 -31.972656 18.578125 -31.765625 C 18.628906 -31.554688 18.640625 -31.335938 18.609375 -31.109375 C 18.578125 -30.734375 18.546875 -30.34375 18.515625 -29.9375 C 18.484375 -29.539062 18.484375 -29.132812 18.515625 -28.71875 C 18.515625 -28.457031 18.410156 -28.207031 18.203125 -27.96875 C 17.992188 -27.726562 17.773438 -27.578125 17.546875 -27.515625 C 17.359375 -27.484375 17.164062 -27.441406 16.96875 -27.390625 C 16.78125 -27.335938 16.578125 -27.3125 16.359375 -27.3125 C 15.898438 -27.28125 15.4375 -27.265625 14.96875 -27.265625 C 14.507812 -27.265625 14.054688 -27.25 13.609375 -27.21875 C 13.191406 -27.21875 12.9375 -26.976562 12.84375 -26.5 C 12.8125 -26.238281 12.78125 -25.976562 12.75 -25.71875 C 12.71875 -25.46875 12.703125 -25.210938 12.703125 -24.953125 C 12.671875 -23.742188 12.65625 -22.535156 12.65625 -21.328125 C 12.65625 -20.128906 12.617188 -18.921875 12.546875 -17.703125 C 12.546875 -17.148438 12.53125 -16.59375 12.5 -16.03125 C 12.46875 -15.476562 12.4375 -14.910156 12.40625 -14.328125 C 12.375 -13.816406 12.359375 -13.304688 12.359375 -12.796875 C 12.359375 -12.285156 12.34375 -11.769531 12.3125 -11.25 C 12.3125 -10.164062 12.3125 -9.082031 12.3125 -8 C 12.3125 -6.925781 12.296875 -5.847656 12.265625 -4.765625 C 12.265625 -4.410156 12.265625 -4.054688 12.265625 -3.703125 C 12.265625 -3.347656 12.234375 -2.992188 12.171875 -2.640625 C 12.140625 -2.421875 12.109375 -2.210938 12.078125 -2.015625 C 12.046875 -1.828125 11.992188 -1.632812 11.921875 -1.4375 C 11.890625 -1.3125 11.847656 -1.175781 11.796875 -1.03125 C 11.753906 -0.882812 11.703125 -0.734375 11.640625 -0.578125 C 11.546875 -0.160156 11.289062 0.125 10.875 0.28125 C 10.738281 0.320312 10.582031 0.363281 10.40625 0.40625 C 10.226562 0.457031 10.0625 0.5 9.90625 0.53125 C 9.613281 0.5625 9.320312 0.59375 9.03125 0.625 C 8.75 0.65625 8.445312 0.640625 8.125 0.578125 C 7.226562 0.421875 6.664062 -0.0546875 6.4375 -0.859375 C 6.34375 -1.242188 6.296875 -1.628906 6.296875 -2.015625 C 6.265625 -3.554688 6.25 -5.097656 6.25 -6.640625 C 6.25 -8.179688 6.25 -9.71875 6.25 -11.25 C 6.21875 -11.25 6.203125 -11.25 6.203125 -11.25 Z M 6.203125 -11.25 "/></g></g></g><g fill="#003049" fill-opacity="1"><g transform="translate(146.553075, 47.067264)"><g><path d="M 2.21875 -15.78125 C 2.28125 -17.09375 2.316406 -18.316406 2.328125 -19.453125 C 2.347656 -20.585938 2.375 -21.71875 2.40625 -22.84375 C 2.4375 -23.875 2.453125 -24.898438 2.453125 -25.921875 C 2.453125 -26.953125 2.453125 -27.960938 2.453125 -28.953125 C 2.484375 -29.109375 2.5 -29.265625 2.5 -29.421875 C 2.5 -29.585938 2.515625 -29.734375 2.546875 -29.859375 C 2.609375 -30.210938 2.671875 -30.570312 2.734375 -30.9375 C 2.804688 -31.3125 2.875 -31.675781 2.9375 -32.03125 C 3.21875 -32.988281 3.84375 -33.519531 4.8125 -33.625 C 5.257812 -33.65625 5.695312 -33.6875 6.125 -33.71875 C 6.5625 -33.75 6.988281 -33.78125 7.40625 -33.8125 C 7.5625 -33.8125 7.726562 -33.8125 7.90625 -33.8125 C 8.082031 -33.8125 8.238281 -33.8125 8.375 -33.8125 C 8.625 -33.8125 8.882812 -33.8125 9.15625 -33.8125 C 9.4375 -33.8125 9.703125 -33.8125 9.953125 -33.8125 C 10.597656 -33.84375 11.253906 -33.859375 11.921875 -33.859375 C 12.597656 -33.859375 13.273438 -33.859375 13.953125 -33.859375 C 14.203125 -33.890625 14.460938 -33.894531 14.734375 -33.875 C 15.015625 -33.863281 15.28125 -33.859375 15.53125 -33.859375 C 15.976562 -33.828125 16.425781 -33.8125 16.875 -33.8125 C 17.320312 -33.8125 17.753906 -33.796875 18.171875 -33.765625 C 18.429688 -33.765625 18.609375 -33.75 18.703125 -33.71875 C 18.867188 -33.71875 19.003906 -33.707031 19.109375 -33.6875 C 19.222656 -33.675781 19.347656 -33.671875 19.484375 -33.671875 C 20.347656 -33.671875 20.921875 -33.300781 21.203125 -32.5625 C 21.304688 -32.238281 21.359375 -31.882812 21.359375 -31.5 C 21.390625 -31.019531 21.40625 -30.546875 21.40625 -30.078125 C 21.40625 -29.617188 21.421875 -29.164062 21.453125 -28.71875 C 21.453125 -28.582031 21.441406 -28.46875 21.421875 -28.375 C 21.410156 -28.28125 21.421875 -28.1875 21.453125 -28.09375 C 21.484375 -27.925781 21.46875 -27.769531 21.40625 -27.625 C 21.34375 -27.476562 21.273438 -27.328125 21.203125 -27.171875 C 21.109375 -26.984375 20.972656 -26.863281 20.796875 -26.8125 C 20.617188 -26.757812 20.453125 -26.71875 20.296875 -26.6875 C 19.910156 -26.65625 19.53125 -26.628906 19.15625 -26.609375 C 18.789062 -26.597656 18.414062 -26.59375 18.03125 -26.59375 C 17.164062 -26.5625 16.289062 -26.535156 15.40625 -26.515625 C 14.53125 -26.503906 13.660156 -26.484375 12.796875 -26.453125 C 12.210938 -26.453125 11.601562 -26.40625 10.96875 -26.3125 C 10.769531 -26.28125 10.582031 -26.210938 10.40625 -26.109375 C 10.226562 -26.015625 10.109375 -25.859375 10.046875 -25.640625 C 9.660156 -24.703125 9.566406 -23.738281 9.765625 -22.75 C 9.890625 -22.269531 10.191406 -21.929688 10.671875 -21.734375 C 10.898438 -21.671875 11.125 -21.625 11.34375 -21.59375 C 11.570312 -21.5625 11.800781 -21.546875 12.03125 -21.546875 C 12.726562 -21.546875 13.421875 -21.546875 14.109375 -21.546875 C 14.804688 -21.546875 15.488281 -21.546875 16.15625 -21.546875 C 16.601562 -21.546875 17.066406 -21.445312 17.546875 -21.25 C 17.804688 -21.125 17.953125 -20.96875 17.984375 -20.78125 C 18.179688 -20.257812 18.300781 -19.71875 18.34375 -19.15625 C 18.394531 -18.601562 18.335938 -18.050781 18.171875 -17.5 C 18.109375 -17.3125 18.019531 -17.117188 17.90625 -16.921875 C 17.800781 -16.734375 17.679688 -16.5625 17.546875 -16.40625 C 17.390625 -16.144531 17.117188 -16.015625 16.734375 -16.015625 C 16.285156 -15.984375 15.828125 -15.9375 15.359375 -15.875 C 14.898438 -15.8125 14.445312 -15.742188 14 -15.671875 C 13.519531 -15.640625 13.035156 -15.597656 12.546875 -15.546875 C 12.066406 -15.503906 11.601562 -15.484375 11.15625 -15.484375 C 10.863281 -15.484375 10.585938 -15.367188 10.328125 -15.140625 C 10.078125 -14.921875 9.921875 -14.664062 9.859375 -14.375 C 9.828125 -14.15625 9.800781 -13.941406 9.78125 -13.734375 C 9.769531 -13.523438 9.765625 -13.289062 9.765625 -13.03125 C 9.734375 -12.320312 9.71875 -11.613281 9.71875 -10.90625 C 9.71875 -10.207031 9.71875 -9.488281 9.71875 -8.75 C 9.71875 -8.5625 9.71875 -8.367188 9.71875 -8.171875 C 9.71875 -7.984375 9.734375 -7.789062 9.765625 -7.59375 C 9.796875 -7.40625 9.847656 -7.226562 9.921875 -7.0625 C 10.003906 -6.90625 10.097656 -6.75 10.203125 -6.59375 C 10.296875 -6.457031 10.421875 -6.375 10.578125 -6.34375 C 10.742188 -6.3125 10.890625 -6.296875 11.015625 -6.296875 C 11.460938 -6.296875 11.925781 -6.296875 12.40625 -6.296875 C 12.882812 -6.296875 13.363281 -6.3125 13.84375 -6.34375 C 14.300781 -6.34375 14.769531 -6.347656 15.25 -6.359375 C 15.726562 -6.378906 16.191406 -6.40625 16.640625 -6.4375 C 16.992188 -6.4375 17.320312 -6.445312 17.625 -6.46875 C 17.925781 -6.488281 18.238281 -6.5 18.5625 -6.5 C 18.851562 -6.5 19.140625 -6.476562 19.421875 -6.4375 C 19.710938 -6.40625 19.988281 -6.328125 20.25 -6.203125 C 20.34375 -6.171875 20.4375 -6.128906 20.53125 -6.078125 C 20.632812 -6.035156 20.71875 -5.984375 20.78125 -5.921875 C 21.414062 -5.429688 21.734375 -4.785156 21.734375 -3.984375 C 21.734375 -3.734375 21.738281 -3.476562 21.75 -3.21875 C 21.769531 -2.96875 21.796875 -2.710938 21.828125 -2.453125 C 21.828125 -2.222656 21.828125 -2.003906 21.828125 -1.796875 C 21.828125 -1.585938 21.828125 -1.375 21.828125 -1.15625 C 21.796875 -0.925781 21.707031 -0.722656 21.5625 -0.546875 C 21.425781 -0.367188 21.273438 -0.203125 21.109375 -0.046875 C 21.015625 0.046875 20.851562 0.09375 20.625 0.09375 C 19.832031 0.125 19.039062 0.140625 18.25 0.140625 C 17.46875 0.140625 16.675781 0.15625 15.875 0.1875 C 15.457031 0.1875 15.046875 0.203125 14.640625 0.234375 C 14.242188 0.265625 13.835938 0.28125 13.421875 0.28125 C 12.773438 0.320312 12.128906 0.34375 11.484375 0.34375 C 10.847656 0.34375 10.210938 0.359375 9.578125 0.390625 C 9.117188 0.421875 8.65625 0.453125 8.1875 0.484375 C 7.726562 0.515625 7.273438 0.546875 6.828125 0.578125 C 6.410156 0.609375 5.976562 0.613281 5.53125 0.59375 C 5.082031 0.582031 4.632812 0.53125 4.1875 0.4375 C 3.957031 0.40625 3.726562 0.347656 3.5 0.265625 C 3.28125 0.179688 3.078125 0.078125 2.890625 -0.046875 C 2.828125 -0.109375 2.757812 -0.171875 2.6875 -0.234375 C 2.625 -0.304688 2.578125 -0.375 2.546875 -0.4375 C 2.253906 -0.945312 2.078125 -1.523438 2.015625 -2.171875 C 1.984375 -2.804688 1.96875 -3.4375 1.96875 -4.0625 C 1.96875 -4.6875 1.96875 -5.304688 1.96875 -5.921875 C 2.03125 -7.171875 2.078125 -8.421875 2.109375 -9.671875 C 2.148438 -10.921875 2.1875 -12.171875 2.21875 -13.421875 C 2.25 -13.867188 2.253906 -14.304688 2.234375 -14.734375 C 2.222656 -15.171875 2.21875 -15.519531 2.21875 -15.78125 Z M 2.21875 -15.78125 "/></g></g></g></g></g></svg>